<svg width="665" height="273" viewBox="0 0 665 273" fill="none" xmlns="http://www.w3.org/2000/svg">
<g clip-path="url(#clip0_3093_420)">
<path d="M559.346 80.5601C560.166 78.0474 560.817 75.7765 561.189 73.7976C561.395 72.7956 561.507 71.8992 561.581 71.0383L563.071 69.8147C563.103 69.5528 563.067 69.3112 563.082 69.0594L563.153 68.9838C563.722 63.0271 562.286 57.1962 559.104 52.8205C558.797 52.3975 558.399 51.9997 558.057 51.5868C557.458 50.2374 556.758 48.9584 555.907 47.7902C555.6 47.3673 555.202 46.9694 554.86 46.5565C554.265 45.207 553.56 43.9281 552.715 42.765C552.352 42.2665 551.899 41.8083 551.486 41.3249C550.896 39.9904 550.191 38.7166 549.351 37.5584C549.044 37.1405 548.646 36.7527 548.309 36.3449C547.714 34.9904 547.004 33.7065 546.153 32.5333C545.413 31.5162 544.562 30.5392 543.62 29.6077C543.561 29.5523 543.51 29.5019 543.449 29.4465C543.399 29.3963 543.349 29.3459 543.298 29.3005C543.243 29.2401 543.183 29.1846 543.122 29.1294C543.066 29.079 543.016 29.0286 542.962 28.9782C542.906 28.9229 542.85 28.8675 542.789 28.8121C542.735 28.7617 542.685 28.7063 542.634 28.6611C542.573 28.6056 542.523 28.5504 542.462 28.4949C542.412 28.4446 542.357 28.3942 542.311 28.3488C542.272 28.3136 542.246 28.2683 542.205 28.2381C539.421 25.529 535.619 23.4948 530.932 22.2612C527.11 21.1635 522.205 20.5291 516.41 20.3226C515.882 20.3025 515.413 20.227 514.864 20.227H514.638H514.405H514.179H513.948H513.721H513.489H513.263H513.031H512.804H512.573H512.346H492.985H492.758H492.527H492.3H492.07H491.843H491.61H491.384H491.153H490.926H490.695H490.468C483.016 20.227 476.586 20.8916 471.116 22.1907C469.723 22.4979 468.373 22.8956 467.023 23.2934C466.816 23.0316 466.626 22.7596 466.409 22.5029C466.379 22.4727 466.333 22.4526 466.308 22.4172C465.578 20.6499 464.51 19.0134 463.212 17.4776C462.466 15.6045 461.333 13.8774 459.968 12.251C459.953 12.2359 459.929 12.2258 459.918 12.2107C459.174 10.4282 458.075 8.78165 456.762 7.22574C456.313 6.70207 455.714 6.27908 455.105 5.86619C454.742 5.30727 454.446 4.71309 453.977 4.19446C451.786 1.40993 448.201 0 443.307 0C442.677 0 441.987 0.0201905 441.267 0.0504023L440.216 0.0805976H436.807H436.58H436.348H436.122H435.89H435.663H435.432H435.205H434.973H434.746H434.515H434.289L433.372 0.0504023C432.702 0.0201905 432.068 0 431.469 0C426.499 0 421.751 1.53581 417.284 4.60736C415.511 5.81584 410.703 9.1391 407.359 15.2267C406.902 14.5823 406.409 13.968 405.819 13.4292C405.103 11.3396 403.941 9.54195 402.3 8.14212C400.87 4.17431 397.777 1.2488 392.873 0.407905C392.043 0.216564 391.176 0.0805976 390.224 0.0805976H389.999H389.767H389.54H389.309H389.082H388.85H388.623H388.392H388.165H387.933H387.717H381.931H381.704H381.473H381.247H381.014H380.789H380.557H380.33H380.099H379.872H379.641H379.414C368.164 0.0805976 353.195 10.8562 349.202 21.8282L349.117 22.0547L349.031 22.2813L348.946 22.5078L348.86 22.7345L348.774 22.9611L348.693 23.1877L348.607 23.4143L348.522 23.6408L348.436 23.8674L348.351 24.0939L348.265 24.3206L347.908 25.3125C345.728 26.944 343.744 28.9178 342.057 31.1786C339.488 34.6127 338.356 37.7347 337.576 39.8596L337.489 40.0862L337.405 40.3129L337.323 40.5394L337.238 40.766L337.152 40.9925L337.067 41.2191L336.981 41.4457L336.896 41.6723L336.81 41.8988L336.724 42.1255L336.639 42.3521L335.556 45.3329L335.471 45.5596L335.385 45.7862L335.3 46.0127L335.214 46.2394L335.129 46.466L335.043 46.6925L334.957 46.9191L334.872 47.1457L334.786 47.3723L334.705 47.5988L334.619 47.8254C334.564 47.9714 334.584 48.0974 334.574 48.2334C334.468 48.5909 334.363 48.9181 334.262 49.3008C333.295 48.6965 332.253 48.2282 331.171 47.8305C330.823 46.9795 330.369 46.2141 329.811 45.5193C329.343 44.5525 328.749 43.7167 328.039 43.0017C327.676 42.0751 327.207 41.2393 326.618 40.494C326.166 39.5625 325.602 38.7519 324.927 38.062C324.539 37.0146 324.01 36.0882 323.326 35.2724C322.887 34.4165 322.353 33.6661 321.724 33.0115C321.302 31.8988 320.733 30.9117 319.982 30.0608C319.398 29.0035 318.678 28.0921 317.791 27.367C317.772 27.3217 317.752 27.2864 317.731 27.2411C316.396 22.8352 313.134 20.1664 308.194 20.1664H307.968H307.736H307.509H307.278H307.052H306.819H306.593H306.362H306.135H305.903H305.677H288.336H288.109H287.876H287.65H287.419H287.192H286.961H286.734H286.502H286.275H286.044H285.817C280.963 20.1664 276.769 20.5743 273.023 21.4051C267.67 22.5835 262.705 24.7637 258.743 27.5483C258.637 27.6188 258.54 27.6943 258.435 27.7648C256.28 23.5704 252.293 20.1664 246.492 20.1664H246.265H246.034H245.807H245.575H245.348H245.117H244.89H244.658H244.431H244.201H243.974H238.667H238.44H238.208H237.983H237.75H237.524H237.293H237.066H236.834H236.607H236.376H236.149C235.877 20.1664 235.58 20.2319 235.303 20.2419C234.981 20.2672 234.648 20.2923 234.321 20.3327C224.432 21.098 212.393 27.9561 207.458 38.1325C207.217 38.5806 206.999 39.0439 206.793 39.502C206.687 39.7639 206.516 40.0006 206.426 40.2675L206.34 40.494L206.255 40.7206L206.168 40.9471L206.084 41.1738L205.997 41.4004L205.913 41.6271L205.826 41.8536L205.741 42.0802L205.655 42.3067L205.569 42.5334L205.489 42.7599L203.888 47.1558C203.701 46.8738 203.48 46.617 203.268 46.3501C202.815 45.4135 202.262 44.5776 201.596 43.8275C201.2 42.9261 200.69 42.1003 200.071 41.3249C199.638 40.4336 199.124 39.6229 198.495 38.8979C198.062 37.8857 197.493 36.9593 196.773 36.1083C196.355 35.2825 195.866 34.5272 195.282 33.8474C194.819 32.7749 194.21 31.7879 193.435 30.8967C192.845 29.804 192.1 28.8424 191.203 28.0266C189.704 23.3992 186.163 20.1513 180.232 20.1513H180.005H179.774H179.547H179.316H179.089H178.857H178.63H178.399H178.173H177.94H177.713H172.171H171.944H171.712H171.485H171.254H171.027H170.796H170.569H170.337H170.112H169.879H169.653C167.915 20.1513 166.072 20.4132 164.184 20.8512C164.078 20.665 163.913 20.519 163.792 20.3427C163.288 19.1645 162.593 18.1373 161.631 17.3316C161.344 16.5359 160.957 15.8109 160.468 15.1512C159.879 13.8723 159.083 12.7444 157.935 11.9237C156.914 7.76451 153.882 5.04538 148.041 5.04538H147.814H147.583H147.356H147.125H146.898H146.666H146.439H146.208H145.982H145.749H145.524H139.747H139.522H139.29H139.063H138.972H138.746H138.514H138.287H138.057H137.83H137.597H137.372C124.426 5.04538 115.281 14.2298 111.973 23.3287L111.887 23.5553L111.802 23.7818L111.716 24.0084L111.631 24.2349L111.545 24.4616L111.46 24.6882L111.379 24.9148L111.293 25.1414L111.208 25.3679L111.122 25.5945L111.037 25.8212L94.7975 70.429C94.4451 70.4642 94.0826 70.4844 93.7352 70.4844H81.3484H81.1216H80.8903H80.6635H80.432H80.2052H79.9738H79.747H79.5155H79.2887H79.0573H78.8308C67.8237 70.4844 56.4739 78.8783 52.4155 90.0164L52.3299 90.2429L52.2442 90.4696L52.1636 90.6962L52.0779 90.9227L51.9925 91.1493L51.9068 91.376L51.8214 91.6025L51.7355 91.829L51.6501 92.0557L51.5644 92.2823L51.479 92.5088L50.3409 95.6358L50.2552 95.8624L50.1697 96.0889L50.084 96.3156L49.9985 96.5422L49.9128 96.7687L49.8274 96.9953L49.7468 97.222L49.6611 97.4485L49.5753 97.675L49.4899 97.9017L49.4042 98.1283C47.1987 104.181 48.5935 108.702 51.9621 111.673C52.0024 111.708 52.0277 111.749 52.058 111.784C52.3903 112.932 52.8988 113.969 53.5786 114.901C54.0721 116.029 54.7317 117.001 55.5575 117.841C55.8949 118.677 56.338 119.443 56.8868 120.148C57.3702 121.195 57.9944 122.107 58.7648 122.887C59.1325 123.783 59.6159 124.604 60.2201 125.349C60.4668 125.843 60.658 126.376 60.9703 126.814C61.2875 130.349 62.7531 133.461 64.9332 135.904H64.7317H64.5051H64.2734H64.047H63.8152H63.5888H63.357H63.1305H57.471H57.2442H57.0127H56.7859H56.5546H56.3278H56.0963H55.8695H55.6381H55.4115H55.1798H54.9533C44.1324 135.904 32.3346 145.023 28.1 156.659L28.0141 156.885L27.9287 157.112L27.843 157.339L27.7576 157.566L27.6719 157.791L27.5864 158.018L27.5006 158.245L27.4202 158.472L27.3344 158.699L27.2489 158.924L27.1632 159.151L1.74507 228.986L1.65932 229.213L1.57388 229.44L1.48814 229.666L1.40269 229.892L1.31695 230.119L1.23151 230.345L1.14577 230.572L1.06033 230.799L0.974585 231.026L0.894065 231.251L0.808318 231.478C-0.792912 235.884 0.0279701 239.767 2.88803 242.505C3.13476 242.803 3.34119 243.13 3.62317 243.402C3.83465 244.142 4.11153 244.858 4.50428 245.517C5.00781 247.079 5.83874 248.448 7.12275 249.485C7.31409 249.934 7.5357 250.371 7.80256 250.784C8.3212 252.249 9.11169 253.544 10.3353 254.535C10.5468 255.034 10.8086 255.502 11.1107 255.96C11.4631 256.882 11.9568 257.708 12.5862 258.452C13.0343 265.311 17.9235 271.817 27.4604 271.817C27.4855 271.817 37.6115 271.817 37.6368 271.817C45.3156 271.817 49.8021 266.978 53.1204 263.801C55.8042 261.227 57.0025 258.262 57.7275 255.809C58.0096 255.063 58.1809 254.374 58.3371 253.724C58.3622 253.614 58.4026 253.497 58.4277 253.387C58.458 253.276 58.493 253.17 58.5233 253.06C58.5535 252.954 58.5838 252.859 58.6139 252.753C58.6693 252.577 58.7197 252.411 58.7701 252.24C58.8103 252.099 58.8607 251.952 58.901 251.816C58.9513 251.675 58.9965 251.524 59.0369 251.388C59.1023 251.187 59.1576 251.001 59.2231 250.814C59.2835 250.657 59.3339 250.512 59.3893 250.365C59.4648 250.155 59.5405 249.948 59.611 249.757L59.6964 249.53L59.7821 249.303L59.8675 249.076L59.9484 248.851L60.0338 248.624L60.1094 248.422L76.1367 266.459C78.1911 269.128 82.8942 271.122 87.0583 271.122C88.5237 271.122 89.5357 271.826 90.5075 271.826H99.3799C105.231 271.826 111.374 269.531 116.495 265.653C118.323 269.152 122.401 271.826 130.292 271.826H140.841C143.459 271.826 146.833 271.107 150.665 269.671C152.991 268.8 155.383 267.078 157.392 265.624C159.3 268.704 162.628 271.821 168.646 271.821C168.671 271.821 178.111 271.821 178.143 271.821C188.46 271.821 195.821 262.748 199.688 252.27C200.192 253.004 200.876 253.644 201.678 254.238C202.1 255.995 202.976 257.632 204.537 258.936C205.227 264.646 208.586 271.826 220.993 271.826C220.993 271.826 228.853 271.826 228.879 271.826C236.692 271.826 245.324 265.135 250.076 252.173C250.58 252.898 251.229 253.553 252.02 254.143C252.429 255.839 253.279 257.425 254.759 258.72C255.389 264.489 258.833 271.826 271.844 271.826H281.698C284.287 271.826 286.357 270.593 290.117 269.223C297.665 266.489 302.902 259.259 305.53 252.048L305.616 251.821L305.702 251.595L305.782 251.368L305.869 251.141L305.954 250.916L306.04 250.689L306.125 250.462L306.211 250.235L306.296 250.008L306.382 249.781L306.468 249.556L306.553 249.329L306.639 249.102L306.719 248.875L306.804 248.649L306.89 248.422L306.976 248.196L307.061 247.97L307.147 247.743L307.232 247.516L307.318 247.289L307.403 247.062L319.05 215.068C320.802 210.26 323.28 205.663 323.692 200.859C323.698 200.788 323.703 200.717 323.709 200.647C323.718 200.541 323.759 200.436 323.768 200.33C324.226 195.225 324.67 190.259 322.147 186C321.438 184.811 320.486 183.199 319.217 181.609C319.111 181.402 319.076 181.176 318.95 180.975C318.245 179.786 317.288 178.17 316.02 176.583C315.914 176.377 315.879 176.15 315.758 175.949C315.012 174.701 314.021 172.994 312.661 171.331C312.555 171.136 312.52 170.918 312.399 170.727C311.694 169.549 310.747 167.957 309.499 166.391C309.382 166.166 309.338 165.919 309.206 165.697C308.391 164.338 307.329 162.439 305.746 160.642C305.687 160.572 305.636 160.51 305.571 160.44C305.521 160.38 305.471 160.33 305.42 160.269C305.365 160.203 305.315 160.144 305.259 160.077C305.209 160.017 305.164 159.962 305.112 159.902C305.047 159.837 304.997 159.77 304.937 159.7C304.887 159.645 304.846 159.595 304.801 159.539C304.735 159.469 304.69 159.403 304.619 159.333C304.569 159.277 304.534 159.227 304.489 159.171C304.422 159.101 304.373 159.035 304.307 158.965C304.256 158.909 304.216 158.859 304.171 158.804C302.58 157.047 300.475 155.38 297.559 154.408L296.286 153.9C295.556 153.603 294.719 153.264 293.798 152.928C291.618 151.921 289.02 151.014 285.667 151.014H285.44H285.208H284.982H284.75H284.523H284.292H284.065H283.833H283.606H283.375H283.149H269.346H269.12H268.889H268.662H268.431H268.204H267.972H267.745H267.514H267.287H267.056H266.83C259.256 151.014 251.311 152.993 243.354 156.785C243.324 156.77 243.284 156.755 243.254 156.74C243.189 156.705 243.118 156.669 243.053 156.634C242.982 156.593 242.912 156.558 242.836 156.523C242.77 156.482 242.7 156.452 242.635 156.417C242.538 156.361 242.428 156.311 242.332 156.256C242.216 156.18 242.06 156.115 241.939 156.045C241.829 155.974 241.697 155.909 241.582 155.838C241.532 155.808 241.481 155.782 241.437 155.753C239.986 154.735 238.117 153.733 235.695 153.21C235.374 153.124 235.046 152.998 234.704 152.877C234.196 152.701 233.621 152.5 232.991 152.303C231.481 151.618 229.669 151.025 227.408 151.025H227.181H226.95H226.723H226.491H226.265H226.033H225.806H225.575H225.349H225.116H224.89H211.576H211.351H211.119H210.892H210.661H210.434H210.202H209.975H209.744H209.517H209.285H209.06C202.976 151.025 197.473 152.756 193.848 153.904L192.533 154.317C192.111 154.428 191.687 154.605 191.259 154.735C191.043 154.131 190.766 153.573 190.413 153.078C190.398 153.058 190.388 153.043 190.373 153.023C190.358 153.004 190.353 152.983 190.338 152.963C190.323 152.942 190.303 152.922 190.288 152.898C190.277 152.883 190.271 152.862 190.262 152.847C190.247 152.832 190.238 152.812 190.221 152.792C190.206 152.771 190.206 152.747 190.191 152.731C190.176 152.706 190.156 152.686 190.137 152.661C190.132 152.65 190.126 152.636 190.117 152.626C190.111 152.615 190.102 152.6 190.096 152.591C190.07 152.545 190.041 152.494 190.02 152.449C189.663 151.84 189.285 151.246 188.882 150.682C188.691 150.42 188.365 150.264 188.142 150.028C187.911 149.308 187.623 148.627 187.206 148.049C187.195 148.034 187.18 148.018 187.176 148.003C187.156 147.982 187.15 147.952 187.135 147.932C187.12 147.913 187.1 147.887 187.085 147.867C187.074 147.852 187.065 147.832 187.055 147.817C187.04 147.792 187.02 147.772 187.005 147.746L187 147.742C186.994 147.731 186.989 147.716 186.985 147.707C186.979 147.696 186.97 147.69 186.964 147.681C186.546 146.941 186.094 146.221 185.599 145.54C185.419 145.284 185.091 145.138 184.874 144.911C184.638 144.181 184.346 143.496 183.923 142.912C183.912 142.897 183.903 142.888 183.892 142.873C183.877 142.852 183.868 142.821 183.853 142.797C183.832 142.776 183.817 142.752 183.797 142.726C183.786 142.717 183.787 142.691 183.777 142.681C183.762 142.666 184.033 142.65 184.029 142.631C184.013 142.615 184.275 142.596 184.28 142.575L184.864 140.963H184.567C184.496 140.963 184.048 141.614 184.009 141.543C184.003 141.532 183.782 141.915 183.777 141.906C183.762 141.885 183.646 142.066 183.631 142.047C183.596 141.98 183.51 142.016 183.475 141.956C183.248 141.582 182.951 141.326 182.699 140.969H196.435C203.828 140.969 210.473 139.57 216.375 138.26C223.444 136.609 230.177 133.048 236.123 129.02C236.441 128.803 236.713 128.657 237.005 128.491C237.674 130.183 238.656 131.603 239.88 132.736C241.572 137.998 246.15 140.963 251.567 140.963H302.857C308.461 140.963 313.481 139.806 317.973 138.969C323.698 137.797 329.207 134.901 333.462 132.147C334.474 131.512 335.244 131.346 336.111 130.692C336.15 130.732 336.185 130.777 336.221 130.823C338.421 136.523 344.091 140.969 351.081 140.969H359.378C370.229 140.969 379.757 130.46 384.01 119.413C384.252 119.755 384.535 120.072 384.821 120.389C385.184 121.074 385.602 121.709 386.091 122.283C386.579 123.516 387.263 124.629 388.171 125.606C388.251 125.742 388.312 125.888 388.402 126.019C389.067 134.226 395.683 140.969 404.313 140.969H414.384C420.18 140.969 426.313 138.506 431.424 134.569C433.474 138.798 437.899 140.969 443.08 140.969H451.016C460.336 140.969 474.587 133.521 479.4 120.299L484.284 106.89C483.65 108.632 484.838 110.163 486.237 111.411C486.65 112.786 486.807 114.015 487.708 115.102C488.112 115.918 488.333 116.663 488.912 117.323C489.354 118.421 489.829 119.423 490.608 120.319C490.997 121.064 491.38 121.754 491.928 122.368C492.391 123.536 493.015 124.594 493.861 125.53C493.967 125.722 494.038 125.923 494.158 126.105C494.839 134.272 501.384 140.963 509.914 140.963H517.85C528.676 140.963 541.052 130.767 545.439 118.718L545.523 118.491L545.61 118.264L545.694 118.038L545.781 117.811L545.867 117.585L545.947 117.358L546.033 117.132L546.118 116.905L546.204 116.678L546.289 116.452L546.375 116.225L546.46 115.999L546.546 115.772L546.632 115.545L546.717 115.319L546.803 115.092L546.883 114.866L546.968 114.639L547.055 114.412L547.139 114.186L547.226 113.959L547.311 113.733L557.151 86.6931L557.236 86.4666L557.322 86.2399L557.408 86.0133L557.493 85.7866L557.579 85.5601L557.664 85.3335L557.75 85.107L557.835 84.8803L557.921 84.6538L558.001 84.4272L558.087 84.2005L558.172 83.974L558.258 83.7474L558.343 83.5207L558.429 83.2942L558.514 83.0676L558.6 82.8411L558.686 82.6145L558.771 82.3879L558.857 82.1613L558.938 81.9346L559.024 81.7081C559.18 81.3203 559.219 80.9628 559.346 80.5601ZM139.954 122.132C140.342 122.867 140.659 123.642 141.142 124.307C141.516 124.82 141.989 125.294 142.416 125.787C142.956 127.026 143.569 128.24 144.34 129.332C145.524 130.908 147.019 132.373 148.742 133.708C146.782 134.544 144.873 135.495 143.157 136.668C141.047 138.114 139.113 139.83 137.367 141.684C135.025 138.537 131.535 136.029 126.772 136.029H126.545H126.314H126.087H125.856H125.629H125.397H125.17H124.939H124.713H124.481H124.254H119.098C123.831 134.111 128.363 131.507 132.427 128.743C135.523 126.593 137.93 124.387 139.954 122.132ZM76.2778 141.069H92.6324C95.7141 141.069 98.6498 140.753 101.49 140.334C101.026 140.617 100.568 140.878 100.1 141.195L81.9527 153.008C81.293 151.025 80.2404 149.353 78.7248 148.149C78.0803 146.156 77.0581 144.454 75.5627 143.224C75.2908 142.373 74.9485 141.578 74.5306 140.842C75.1098 140.918 75.6685 141.069 76.2778 141.069Z" fill="url(#paint0_linear_3093_420)"/>
<path d="M65.5035 95.746L67.5528 90.1064C68.5648 87.327 70.5841 85.6805 73.3635 85.6805H88.2632C91.2442 85.6805 94.0335 85.1366 96.0728 84.6532C98.1776 84.1648 100.232 83.0973 101.657 82.0449C103.198 80.9171 104.829 79.5071 105.847 77.8153C106.944 76.1234 108.636 74.069 109.517 71.6521L127.08 23.3937C128.093 20.6141 129.09 20.2163 131.874 20.2163H140.163C142.947 20.2163 143.199 20.6141 142.181 23.3937L124.306 72.4981C122.402 77.7348 121.199 82.1658 118.837 85.7913C116.572 89.3411 114.749 92.2365 111.511 94.4973C108.309 96.6726 104.462 98.2838 99.9651 99.3311C95.5945 100.298 90.3327 100.786 84.2148 100.786H67.8602C65.0856 100.786 64.4914 98.5306 65.5035 95.746ZM223.657 85.7913C226.019 82.1658 228.154 77.7348 230.057 72.4981L241.775 40.3123C242.786 37.5277 241.347 35.3223 238.572 35.3223H230.753C227.968 35.3223 222.646 37.5277 221.628 40.3123L210.088 72.0146C209.061 74.8343 209.121 77.1305 207.988 78.903C206.971 80.5948 206.286 81.9242 204.811 82.8859C203.411 83.8527 201.915 84.6633 199.83 85.0661C197.777 85.3884 195.545 85.6754 192.645 85.6754H173.794C171.049 85.6754 168.822 85.3884 167 85.0661C165.298 84.6633 164.076 83.918 163.31 82.9513C162.529 81.9895 162.554 80.63 162.594 78.9382C162.755 77.1607 163.743 74.8395 164.77 72.0197L176.31 40.3172C177.322 37.5328 175.118 35.3273 172.343 35.3273H164.286C161.502 35.3273 157.181 37.5328 156.169 40.3172L144.452 72.503C142.549 77.7397 142.051 82.1708 141.698 85.7963C141.446 89.3461 142.447 92.2414 144.039 94.5023C145.665 96.6776 148.466 98.289 152.106 99.3363C155.786 100.303 160.806 100.791 166.844 100.791H188.119C194.247 100.791 199.498 100.308 203.868 99.3363C208.365 98.289 212.208 96.6726 215.42 94.5023C218.647 92.2414 221.401 89.3461 223.657 85.7913ZM243.25 100.786H294.54C299.122 100.786 302.933 100.499 305.965 99.9404C309.097 99.296 311.721 98.2838 313.83 96.9192C316.025 95.5496 317.195 93.7723 318.549 91.597C319.938 89.3461 320.608 86.6019 321.781 83.3794L323.015 79.9955C324.274 76.5313 325.658 73.6259 325.94 71.2946C326.258 68.8776 326.212 66.9389 325.211 65.4938C324.238 63.9581 322.803 62.5533 320.381 61.9088C317.98 61.1786 314.958 60.5039 310.769 60.5039H275.245C273.633 60.5039 271.977 60.5039 271.483 59.8544C270.99 59.2098 270.491 58.2833 271.166 56.4253L272.269 53.4041C272.883 51.7122 273.875 51.2892 274.836 50.6498C275.885 50.0002 277.501 50.4281 279.272 50.4281H294.781C297.566 50.4281 299.898 46.6769 300.904 43.8973L302.214 40.3123C303.225 37.5277 303.065 35.3223 300.279 35.3223H280.425C276.886 35.3223 273.85 35.579 271.302 36.1481C268.76 36.707 266.578 37.6235 264.736 38.9124C262.933 40.121 262.112 41.7272 260.743 43.7413C259.438 45.7555 259.066 48.1673 258.043 50.982L256.241 55.9369C255.184 58.8372 253.674 61.3749 253.285 63.5502C253.004 65.645 252.858 67.4225 253.618 68.8726C254.373 70.3228 255.134 72.6038 257.117 73.3288C259.192 74.0539 261.448 75.6047 265.159 75.6047H301.892C304.066 75.6047 306.7 74.7387 307.35 75.3832C308.105 75.9473 309.274 76.2443 308.392 78.6612L307.602 80.8416C306.781 83.0974 305.124 84.1498 303.871 84.9554C302.612 85.756 300.169 85.6805 297.748 85.6805H248.759C245.984 85.6805 244.248 88.8981 243.231 91.6725L241.75 95.746C240.727 98.5306 240.476 100.786 243.25 100.786ZM395.554 35.3273H384.958C382.174 35.3273 380.377 33.0261 381.389 30.2467L384.45 21.8277C385.462 19.0431 384.999 15.186 382.22 15.186H373.922C371.137 15.186 365.327 19.0481 364.315 21.8277L361.086 30.6897C360.16 33.2275 359.435 35.2819 356.898 35.2819C354.359 35.2819 353.634 37.3364 352.708 39.8742L350.729 45.3123C349.802 47.8451 349.036 49.9046 351.575 49.9046C354.112 49.9046 353.347 51.959 352.421 54.4918L337.41 95.741C336.398 98.5256 339.984 100.781 342.763 100.781H351.062C353.846 100.781 356.535 98.5256 357.547 95.741L372.396 54.9348C373.408 52.1502 376.676 50.4231 379.455 50.4231H390.05C392.835 50.4231 395.191 47.6387 396.208 44.8641L397.864 40.3123C398.881 37.5328 398.338 35.3273 395.554 35.3273ZM433.096 40.3626C434.109 37.5832 432.679 35.3273 429.895 35.3273H419.824C417.039 35.3273 413.967 37.5832 412.955 40.3626L392.799 95.751C391.787 98.5306 393.216 100.786 396.002 100.786H406.072C408.856 100.786 411.928 98.5306 412.94 95.751L433.096 40.3626ZM434.718 15.186H428.796C426.545 15.186 424.808 14.7983 423.525 15.6845C422.346 16.4902 421.445 17.029 420.74 18.9675L418.187 25.9817C417.482 27.9103 417.9 28.7009 418.464 29.5871C419.104 30.4732 421.047 30.292 423.298 30.292H429.22C431.561 30.292 433.732 30.4732 434.945 29.5871C436.233 28.6959 437.628 27.9103 438.333 25.9817L440.887 18.9675C441.592 17.029 440.675 16.4902 440.005 15.6845C439.442 14.7983 437.059 15.186 434.718 15.186ZM532.484 50.3879C532.832 46.7575 531.623 43.8571 529.996 41.6818C528.41 39.431 525.48 37.8399 521.799 36.8681C518.154 35.8207 512.978 35.3223 506.849 35.3223H484.976C478.938 35.3223 473.721 35.8207 469.311 36.8681C464.926 37.8348 461.124 39.4362 457.886 41.692C454.672 43.8672 452.643 46.7625 450.283 50.393C447.991 54.0184 446.652 58.4444 444.743 63.6811L433.077 95.746C432.065 98.5306 431.978 100.786 434.764 100.786H442.699C445.483 100.786 447.171 98.5306 448.183 95.746L459.633 64.2854C460.624 61.5462 462.331 59.3307 463.343 57.6387C464.481 55.8664 466.133 54.4968 467.608 53.53C469.12 52.4877 471.099 51.6014 473.107 51.1985C475.176 50.7958 477.861 50.4383 480.685 50.4383H500.268C503.158 50.4383 505.408 50.7958 507.121 51.1985C508.903 51.6014 510.101 52.4122 510.767 53.4545C511.542 54.4213 511.873 55.8361 511.633 57.6036C511.496 59.2953 510.982 61.5512 509.991 64.2904L498.541 95.751C497.528 98.5356 498.822 100.791 501.592 100.791H509.528C512.312 100.791 517.665 98.5356 518.677 95.751L530.344 63.6862C532.257 58.4444 532.213 54.0134 532.484 50.3879ZM73.5599 195.602C71.9838 193.577 73.3285 189.967 76.395 187.973L118.676 160.318C123.364 157.283 123.455 151.14 118.767 151.14H109.603C108.384 151.14 106.929 151.885 105.721 152.696L58.1217 183.678C53.8166 186.528 48.3583 184.372 49.9344 180.042L58.3986 156.79C59.4057 154.01 60.4984 151.14 57.7138 151.14H49.5416C46.7571 151.14 44.2997 154.01 43.2926 156.79L16.9629 229.136C15.9509 231.922 17.4363 231.704 20.2158 231.704H28.3883C31.1729 231.704 31.0519 231.916 32.064 229.136L40.8303 205.037C42.4064 200.713 49.4962 198.401 51.7218 201.251L77.3566 231.69C77.976 232.495 80.0153 231.704 81.2388 231.704H91.083C95.7356 231.704 99.5523 227.178 97.1706 224.116L73.5599 195.602ZM161.346 146.105H155.424C153.164 146.105 150.555 146.955 149.262 147.842C148.083 148.647 146.305 150.42 145.6 152.358L143.048 159.372C142.343 161.3 142.726 163.37 143.284 164.261C143.933 165.148 145.832 166.251 148.092 166.251H154.014C156.355 166.251 158.546 165.148 159.759 164.261C161.059 163.37 162.489 161.3 163.194 159.372L165.746 152.358C166.451 150.42 166.416 148.647 165.737 147.842C165.173 146.955 163.687 146.105 161.346 146.105ZM153.435 171.28H145.137C142.363 171.28 138.233 172.616 137.221 175.4L117.664 229.136C116.652 231.922 120.368 231.704 123.143 231.704H131.441C134.226 231.704 136.793 231.916 137.805 229.136L157.363 175.4C158.375 172.616 156.22 171.28 153.435 171.28ZM293.014 174.353C291.861 172.419 290.401 169.796 287.738 168.904C285.108 167.942 282.067 166.246 277.711 166.246H261.398C254.957 166.246 249.322 168.426 245.4 170.36C243.512 171.276 241.563 173.038 239.987 174.453C238.427 175.843 235.354 176.19 234.846 174.77C234.408 173.325 233.451 172.303 232.082 171.416C230.818 170.451 229.479 168.587 227.249 168.104C225.082 167.62 222.761 166.24 219.458 166.24H203.632C199.276 166.24 194.997 167.938 191.658 168.9C188.355 169.791 185.213 171.805 182.65 173.737C180.097 175.672 178.083 178.436 176.189 181.411C174.331 184.313 172.882 188.079 171.417 192.111L157.942 229.132C156.93 231.916 158.611 231.699 161.396 231.699H168.848C171.623 231.699 172.036 231.911 173.048 229.132L185.55 194.771C187.046 190.662 189.251 189.005 191.236 187.555C193.315 186.024 196.663 186.386 200.284 186.386H211.769C214.503 186.386 217.092 185.46 218.723 185.864C220.375 186.185 221.734 186.226 222.374 187.117C223.129 187.923 222.802 188.728 222.621 190.098C222.555 191.387 221.533 192.756 220.803 194.776L208.3 229.136C207.288 231.922 211.064 231.704 213.848 231.704H219.614C222.389 231.704 222.398 231.916 223.41 229.136L235.914 194.776C236.649 192.762 238.537 191.105 239.409 189.821C240.309 188.456 241.936 187.368 243.19 186.563C244.555 185.672 246.019 186.195 247.827 185.873C249.746 185.47 251.896 186.397 254.559 186.397H266.271C269.741 186.397 271.382 186.039 272.349 187.565C273.437 189.015 272.656 190.672 271.161 194.78L258.658 229.142C257.647 231.926 261.941 231.71 264.726 231.71H272.299C275.083 231.71 277.788 231.922 278.799 229.142L292.274 192.122C293.74 188.088 294.329 184.629 294.58 181.729C294.852 178.742 294.157 176.285 293.014 174.353Z" fill="#F0F0F0"/>
<path d="M437.686 185.129C437.669 185.105 437.645 185.084 437.63 185.054C437.615 185.029 437.599 185.004 437.584 184.978C437.569 184.958 437.559 184.943 437.55 184.923C437.509 184.857 437.463 184.798 437.428 184.733C437.413 184.712 437.403 184.692 437.388 184.666C437.368 184.642 437.353 184.616 437.338 184.591C437.318 184.56 437.303 184.536 437.288 184.51C437.273 184.48 437.252 184.46 437.237 184.43C437.222 184.404 437.202 184.379 437.191 184.349C437.176 184.335 437.167 184.32 437.152 184.299C437.117 184.233 437.07 184.173 437.031 184.108C437.031 184.093 437.015 184.082 437.005 184.067C436.97 184.002 436.925 183.941 436.89 183.875C436.875 183.855 436.86 183.836 436.844 183.81C436.829 183.786 436.814 183.76 436.799 183.734C436.784 183.715 436.774 183.7 436.763 183.68C436.724 183.613 436.678 183.554 436.643 183.488C436.638 183.473 436.628 183.463 436.618 183.448C436.583 183.382 436.531 183.321 436.497 183.256C436.486 183.232 436.466 183.217 436.456 183.191C436.441 183.167 436.421 183.141 436.412 183.111C436.397 183.096 436.386 183.08 436.371 183.061C436.336 182.994 436.291 182.934 436.25 182.869C436.25 182.854 436.235 182.843 436.226 182.828C436.19 182.763 436.144 182.702 436.109 182.637C436.103 182.622 436.088 182.612 436.079 182.597C436.049 182.542 436.008 182.491 435.978 182.43C435.938 182.371 435.897 182.315 435.863 182.254C435.857 182.239 435.847 182.229 435.837 182.214C435.802 182.149 435.752 182.088 435.716 182.023C435.711 182.008 435.701 181.997 435.69 181.982C435.656 181.928 435.621 181.876 435.586 181.822C435.565 181.787 435.551 181.755 435.53 181.72C435.495 181.675 435.465 181.63 435.434 181.584C435.398 181.524 435.354 181.469 435.324 181.409C435.318 181.394 435.303 181.383 435.294 181.368C435.263 181.313 435.223 181.262 435.192 181.203C435.173 181.171 435.153 181.141 435.132 181.112C435.102 181.061 435.067 181.015 435.041 180.976C435 180.911 434.961 180.855 434.926 180.794C434.92 180.779 434.911 180.769 434.9 180.754C434.866 180.699 434.831 180.648 434.795 180.593C434.775 180.557 434.76 180.528 434.74 180.492C434.704 180.447 434.674 180.401 434.643 180.356C434.628 180.326 434.608 180.295 434.589 180.265C434.558 180.215 434.522 180.17 434.492 180.13C434.463 180.074 434.427 180.024 434.397 179.973C434.377 179.943 434.357 179.914 434.336 179.882C434.306 179.832 434.271 179.787 434.247 179.747C434.226 179.711 434.206 179.681 434.191 179.646C434.156 179.601 434.12 179.555 434.095 179.51C434.074 179.48 434.055 179.449 434.039 179.419C434.024 179.389 433.999 179.369 433.985 179.339C433.97 179.313 433.953 179.289 433.938 179.259C433.903 179.213 433.873 179.168 433.843 179.123C433.828 179.092 433.808 179.062 433.788 179.032C433.758 178.982 433.722 178.936 433.693 178.896C433.678 178.861 433.657 178.831 433.637 178.796C433.622 178.77 433.602 178.75 433.587 178.72C433.572 178.694 433.557 178.669 433.536 178.644C433.506 178.593 433.471 178.549 433.445 178.508C433.425 178.473 433.405 178.443 433.39 178.407C433.354 178.363 433.319 178.316 433.295 178.272C433.274 178.242 433.254 178.21 433.239 178.181C433.224 178.151 433.198 178.13 433.183 178.1C433.168 178.075 433.153 178.05 433.138 178.02C433.118 177.994 433.103 177.97 433.088 177.939C433.073 177.914 433.047 177.894 433.032 177.864C433.017 177.838 433.003 177.814 432.988 177.788C432.956 177.738 432.921 177.693 432.891 177.652C432.876 177.617 432.856 177.587 432.835 177.552C432.821 177.526 432.8 177.505 432.785 177.476C432.77 177.451 432.755 177.425 432.735 177.401C428.264 169.641 419.941 164.832 408.828 164.832C386.617 164.832 361.551 184.032 352.966 207.632C348.66 219.466 349.3 230.185 353.807 237.944C353.822 237.976 353.842 237.996 353.857 238.026C353.872 238.05 353.892 238.076 353.903 238.106C353.918 238.121 353.928 238.136 353.943 238.156C353.978 238.221 354.023 238.283 354.063 238.348C354.074 238.374 354.089 238.389 354.104 238.413C354.119 238.439 354.134 238.463 354.149 238.494C354.169 238.519 354.184 238.545 354.199 238.575C354.214 238.599 354.24 238.619 354.255 238.649C354.27 238.675 354.285 238.701 354.3 238.725C354.315 238.746 354.326 238.761 354.335 238.781C354.376 238.846 354.421 238.907 354.456 238.973C354.461 238.988 354.471 238.997 354.482 239.012C354.521 239.079 354.567 239.138 354.603 239.203C354.612 239.229 354.627 239.244 354.642 239.269C354.658 239.294 354.677 239.32 354.688 239.35C354.703 239.365 354.713 239.38 354.729 239.4C354.763 239.466 354.809 239.527 354.848 239.592C354.854 239.607 354.865 239.616 354.874 239.631C354.91 239.698 354.954 239.758 354.995 239.823C355.005 239.843 355.025 239.864 355.036 239.888C355.051 239.914 355.066 239.94 355.081 239.964C355.096 239.984 355.105 239.999 355.116 240.02C355.157 240.085 355.202 240.146 355.237 240.211C355.242 240.226 355.252 240.236 355.261 240.251C355.302 240.317 355.348 240.377 355.384 240.442C355.388 240.457 355.397 240.468 355.408 240.483C355.438 240.539 355.479 240.589 355.514 240.645C355.549 240.71 355.594 240.765 355.629 240.825C355.635 240.84 355.644 240.851 355.655 240.866C355.689 240.931 355.735 240.991 355.776 241.057C355.776 241.072 355.791 241.082 355.801 241.097C355.836 241.153 355.871 241.203 355.901 241.264C355.921 241.294 355.942 241.324 355.962 241.354C355.992 241.404 356.027 241.45 356.057 241.489C356.093 241.556 356.133 241.61 356.169 241.671C356.173 241.686 356.184 241.696 356.193 241.712C356.223 241.766 356.264 241.817 356.299 241.872C356.319 241.908 356.334 241.938 356.355 241.973C356.39 242.019 356.42 242.064 356.45 242.109C356.485 242.17 356.531 242.225 356.567 242.285C356.567 242.3 356.582 242.311 356.591 242.326C356.626 242.382 356.662 242.432 356.692 242.492C356.712 242.522 356.732 242.553 356.753 242.583C356.783 242.633 356.818 242.678 356.848 242.719C356.863 242.754 356.883 242.784 356.898 242.819C356.933 242.865 356.969 242.91 356.994 242.955C357.024 243.005 357.065 243.055 357.095 243.102C357.115 243.137 357.13 243.167 357.151 243.202C357.186 243.247 357.216 243.293 357.246 243.338C357.261 243.368 357.281 243.398 357.301 243.429C357.331 243.479 357.367 243.524 357.396 243.565C357.411 243.6 357.432 243.63 357.452 243.665C357.467 243.691 357.487 243.71 357.502 243.741C357.517 243.766 357.538 243.792 357.553 243.816C357.583 243.866 357.618 243.912 357.649 243.952C357.664 243.987 357.684 244.017 357.699 244.052C357.735 244.098 357.77 244.143 357.794 244.189C357.815 244.219 357.835 244.249 357.856 244.279C357.865 244.309 357.891 244.329 357.906 244.361C357.921 244.385 357.936 244.411 357.951 244.441C357.986 244.486 358.016 244.532 358.047 244.577C358.062 244.606 358.082 244.636 358.101 244.668C358.133 244.718 358.168 244.763 358.198 244.803C358.213 244.839 358.233 244.869 358.252 244.904C358.268 244.93 358.287 244.949 358.304 244.98C358.319 245.004 358.339 245.03 358.354 245.055C358.374 245.085 358.389 245.11 358.404 245.136C358.419 245.166 358.44 245.186 358.454 245.216C358.469 245.241 358.484 245.267 358.499 245.296C358.535 245.343 358.57 245.387 358.596 245.432C358.616 245.462 358.635 245.493 358.656 245.523C358.666 245.553 358.691 245.573 358.706 245.603C358.721 245.629 358.736 245.654 358.752 245.685C363.227 253.439 371.552 258.247 382.665 258.247C404.875 258.247 429.936 239.047 438.526 215.447C442.836 203.614 442.187 192.894 437.686 185.129Z" fill="url(#paint1_linear_3093_420)"/>
<path d="M423.528 207.682C416.947 225.76 398.09 240.412 381.403 240.412C364.716 240.412 356.528 225.76 363.103 207.682C369.68 189.605 388.537 174.953 405.224 174.953C421.911 174.953 430.104 189.605 423.528 207.682Z" fill="#F0F0F0"/>
<path d="M549.647 181.074C549.632 181.053 549.617 181.033 549.601 181.009C549.586 180.983 549.576 180.962 549.561 180.943C549.55 180.923 549.535 180.912 549.526 180.897C549.491 180.842 549.45 180.787 549.42 180.726C549.41 180.711 549.4 180.691 549.385 180.67C549.37 180.651 549.355 180.631 549.344 180.605C549.329 180.575 549.309 180.56 549.299 180.535C549.284 180.51 549.269 180.49 549.254 180.464C549.238 180.439 549.223 180.419 549.213 180.395C549.199 180.384 549.193 180.374 549.178 180.354C549.143 180.304 549.108 180.243 549.072 180.183C549.072 180.172 549.057 180.162 549.048 180.147C549.012 180.092 548.981 180.032 548.947 179.976C548.931 179.956 548.916 179.941 548.907 179.921C548.892 179.9 548.881 179.876 548.866 179.855C548.856 179.835 548.845 179.826 548.836 179.809C548.806 179.75 548.76 179.694 548.73 179.638C548.72 179.629 548.715 179.619 548.704 179.603C548.669 179.548 548.629 179.493 548.6 179.432C548.589 179.413 548.574 179.396 548.564 179.377C548.549 179.357 548.538 179.331 548.524 179.307C548.514 179.292 548.503 179.286 548.488 179.266C548.453 179.216 548.418 179.156 548.382 179.095C548.382 179.085 548.367 179.074 548.358 179.06C548.322 179.004 548.291 178.944 548.257 178.888C548.246 178.879 548.237 178.868 548.226 178.853C548.202 178.808 548.166 178.758 548.136 178.708C548.105 178.658 548.07 178.602 548.035 178.552C548.025 178.541 548.02 178.531 548.01 178.516C547.975 178.461 547.93 178.405 547.904 178.345C547.899 178.334 547.889 178.325 547.884 178.31C547.859 178.26 547.819 178.213 547.789 178.169C547.774 178.139 547.759 178.113 547.738 178.083C547.709 178.042 547.683 178.003 547.658 177.962C547.627 177.912 547.582 177.856 547.556 177.806C547.552 177.796 547.537 177.786 547.527 177.771C547.502 177.726 547.471 177.676 547.441 177.624C547.426 177.599 547.406 177.574 547.385 177.549C547.355 177.508 547.331 177.464 547.305 177.428C547.27 177.373 547.229 177.322 547.199 177.267C547.194 177.257 547.184 177.246 547.179 177.231C547.154 177.181 547.114 177.136 547.084 177.091C547.069 177.06 547.054 177.036 547.034 177.005C547.002 176.965 546.978 176.924 546.952 176.885C546.937 176.859 546.922 176.833 546.902 176.804C546.872 176.764 546.847 176.723 546.822 176.683C546.792 176.632 546.766 176.588 546.736 176.541C546.721 176.517 546.701 176.491 546.68 176.467C546.651 176.426 546.625 176.381 546.6 176.346C546.585 176.316 546.565 176.29 546.554 176.26C546.519 176.22 546.494 176.179 546.469 176.139C546.454 176.11 546.435 176.089 546.418 176.059C546.409 176.033 546.383 176.019 546.368 175.989C546.359 175.968 546.349 175.942 546.333 175.918C546.303 175.872 546.273 175.837 546.247 175.797C546.232 175.771 546.217 175.747 546.197 175.716C546.167 175.676 546.137 175.636 546.117 175.595C546.102 175.565 546.087 175.535 546.067 175.505C546.052 175.485 546.037 175.47 546.022 175.44C546.005 175.42 545.99 175.399 545.975 175.373C545.946 175.334 545.92 175.288 545.895 175.252C545.88 175.223 545.86 175.198 545.851 175.167C545.815 175.128 545.789 175.087 545.764 175.046C545.749 175.016 545.728 174.996 545.713 174.966C545.704 174.94 545.679 174.925 545.663 174.895C545.654 174.875 545.644 174.85 545.628 174.825C545.613 174.8 545.598 174.78 545.583 174.754C545.568 174.73 545.548 174.715 545.533 174.689C545.523 174.668 545.507 174.648 545.492 174.624C545.468 174.579 545.432 174.544 545.412 174.503C545.397 174.473 545.382 174.447 545.362 174.412C545.347 174.391 545.332 174.376 545.317 174.347C545.3 174.326 545.286 174.306 545.271 174.281C540.477 168.027 534.012 163.219 524.228 163.219C504.681 163.219 482.622 180.118 475.063 200.883C471.271 211.295 472.46 220.41 475.804 227.56C475.813 227.586 475.834 227.605 475.848 227.63C475.859 227.651 475.88 227.675 475.884 227.701C475.899 227.716 475.91 227.726 475.925 227.746C475.96 227.796 475.995 227.857 476.03 227.917C476.035 227.937 476.051 227.952 476.066 227.973C476.075 227.993 476.09 228.013 476.101 228.043C476.121 228.064 476.131 228.088 476.146 228.114C476.155 228.138 476.181 228.153 476.196 228.179C476.211 228.2 476.222 228.224 476.237 228.244C476.252 228.259 476.257 228.274 476.267 228.291C476.302 228.345 476.347 228.401 476.373 228.462C476.378 228.471 476.388 228.481 476.397 228.497C476.432 228.551 476.468 228.607 476.503 228.663C476.509 228.683 476.523 228.698 476.534 228.718C476.549 228.737 476.57 228.763 476.574 228.789C476.589 228.799 476.6 228.808 476.614 228.828C476.65 228.879 476.685 228.94 476.72 229C476.72 229.01 476.73 229.02 476.739 229.035C476.775 229.091 476.816 229.146 476.845 229.202C476.856 229.221 476.871 229.237 476.881 229.256C476.896 229.277 476.907 229.302 476.921 229.323C476.936 229.338 476.942 229.353 476.951 229.368C476.987 229.423 477.033 229.479 477.057 229.539C477.063 229.548 477.072 229.559 477.083 229.574C477.117 229.63 477.154 229.684 477.189 229.745C477.189 229.755 477.199 229.766 477.208 229.78C477.234 229.825 477.269 229.876 477.299 229.922C477.329 229.976 477.37 230.028 477.405 230.082C477.405 230.093 477.414 230.102 477.425 230.117C477.461 230.173 477.496 230.229 477.531 230.288C477.531 230.299 477.541 230.309 477.55 230.324C477.582 230.37 477.606 230.42 477.641 230.47C477.662 230.495 477.677 230.526 477.692 230.551C477.721 230.595 477.753 230.631 477.777 230.671C477.812 230.727 477.844 230.777 477.883 230.833C477.883 230.843 477.893 230.853 477.903 230.868C477.928 230.913 477.963 230.964 477.994 231.01C478.013 231.04 478.024 231.064 478.045 231.095C478.075 231.135 478.104 231.175 478.13 231.216C478.16 231.266 478.201 231.321 478.235 231.371C478.235 231.382 478.246 231.391 478.255 231.406C478.286 231.452 478.316 231.503 478.346 231.553C478.361 231.577 478.382 231.603 478.396 231.629C478.428 231.674 478.462 231.709 478.482 231.749C478.497 231.78 478.508 231.81 478.528 231.84C478.553 231.88 478.583 231.921 478.608 231.96C478.634 232.007 478.674 232.046 478.699 232.092C478.72 232.122 478.729 232.147 478.75 232.178C478.779 232.217 478.805 232.258 478.83 232.299C478.845 232.323 478.865 232.349 478.88 232.379C478.91 232.424 478.945 232.459 478.966 232.5C478.98 232.53 479.001 232.555 479.016 232.585C479.027 232.606 479.046 232.626 479.062 232.65C479.071 232.671 479.092 232.691 479.101 232.716C479.127 232.762 479.163 232.801 479.187 232.836C479.202 232.868 479.213 232.892 479.233 232.922C479.258 232.963 479.289 233.004 479.313 233.043C479.328 233.074 479.354 233.093 479.369 233.124C479.378 233.149 479.399 233.164 479.414 233.194C479.423 233.214 479.44 233.234 479.455 233.264C479.479 233.305 479.509 233.346 479.535 233.385C479.55 233.411 479.57 233.435 479.585 233.467C479.615 233.511 479.65 233.547 479.67 233.588C479.685 233.617 479.706 233.642 479.721 233.673C479.732 233.694 479.751 233.713 479.767 233.738C479.776 233.759 479.797 233.779 479.806 233.804C479.821 233.833 479.838 233.854 479.852 233.874C479.867 233.9 479.882 233.919 479.897 233.945C479.907 233.965 479.922 233.986 479.938 234.015C479.962 234.055 479.992 234.096 480.018 234.136C480.033 234.166 480.059 234.187 480.074 234.216C480.083 234.242 480.104 234.257 480.119 234.287C480.13 234.307 480.144 234.332 480.159 234.358C484.157 241.15 491.423 245.415 501.206 245.415C520.754 245.415 542.808 228.516 550.372 207.75C554.174 197.342 553.815 187.775 549.647 181.074Z" fill="url(#paint2_linear_3093_420)"/>
<path d="M537.18 200.923C531.394 216.835 514.798 229.731 500.105 229.731C485.421 229.731 478.211 216.835 484.007 200.923C489.792 185.017 506.389 172.117 521.077 172.117C535.765 172.117 542.97 185.017 537.18 200.923Z" fill="#F0F0F0"/>
<path d="M661.38 157.669C661.37 157.649 661.355 157.634 661.34 157.609C661.329 157.589 661.314 157.574 661.305 157.554C661.294 157.539 661.285 157.524 661.275 157.508C661.244 157.457 661.214 157.413 661.184 157.368C661.173 157.353 661.169 157.336 661.154 157.317C661.138 157.297 661.123 157.277 661.113 157.256C661.099 157.236 661.084 157.216 661.073 157.197C661.063 157.176 661.052 157.161 661.037 157.135C661.028 157.115 661.017 157.095 661.002 157.076C660.993 157.065 660.982 157.05 660.972 157.035C660.942 156.985 660.912 156.94 660.877 156.894C660.877 156.879 660.861 156.873 660.857 156.864C660.831 156.814 660.801 156.758 660.766 156.717C660.751 156.702 660.741 156.687 660.73 156.667C660.721 156.648 660.71 156.632 660.695 156.613C660.686 156.596 660.68 156.581 660.671 156.566C660.639 156.516 660.6 156.475 660.574 156.425C660.57 156.41 660.559 156.406 660.554 156.395C660.529 156.345 660.489 156.295 660.459 156.25C660.449 156.23 660.438 156.219 660.429 156.2C660.418 156.179 660.398 156.159 660.394 156.139C660.383 156.129 660.373 156.118 660.364 156.098C660.328 156.053 660.303 156.003 660.267 155.958C660.267 155.942 660.258 155.942 660.247 155.927C660.212 155.882 660.187 155.826 660.157 155.781C660.152 155.77 660.141 155.761 660.137 155.751C660.111 155.705 660.081 155.666 660.055 155.625C660.031 155.58 659.99 155.54 659.966 155.495C659.96 155.478 659.955 155.478 659.945 155.463C659.91 155.419 659.88 155.363 659.849 155.318C659.845 155.307 659.839 155.298 659.834 155.288C659.81 155.242 659.774 155.203 659.754 155.167C659.733 155.136 659.724 155.116 659.709 155.091C659.683 155.056 659.659 155.021 659.633 154.985C659.607 154.941 659.572 154.894 659.547 154.855C659.542 154.844 659.533 154.835 659.523 154.824C659.503 154.779 659.477 154.738 659.451 154.699C659.436 154.673 659.416 154.653 659.401 154.628C659.382 154.593 659.35 154.558 659.331 154.522C659.3 154.472 659.27 154.427 659.24 154.386C659.24 154.377 659.23 154.372 659.22 154.357C659.19 154.316 659.164 154.275 659.14 154.236C659.124 154.21 659.12 154.185 659.099 154.154C659.079 154.124 659.049 154.089 659.029 154.05C659.019 154.029 659.004 154.003 658.988 153.979C658.969 153.944 658.938 153.908 658.913 153.873C658.887 153.832 658.857 153.797 658.837 153.758C658.828 153.732 658.813 153.711 658.796 153.687C658.772 153.646 658.752 153.616 658.727 153.581C658.707 153.555 658.701 153.531 658.686 153.505C658.661 153.464 658.631 153.434 658.61 153.399C658.601 153.379 658.576 153.354 658.565 153.334C658.556 153.309 658.536 153.293 658.525 153.274C658.515 153.254 658.504 153.233 658.495 153.208C658.465 153.178 658.445 153.142 658.419 153.103C658.404 153.083 658.394 153.062 658.374 153.032C658.349 153.001 658.324 152.966 658.303 152.926C658.294 152.901 658.273 152.876 658.264 152.85C658.253 152.83 658.233 152.815 658.223 152.795C658.212 152.776 658.197 152.759 658.182 152.735C658.158 152.705 658.132 152.664 658.117 152.629C658.102 152.604 658.087 152.579 658.072 152.553C658.052 152.519 658.026 152.484 658.002 152.448C657.987 152.428 657.971 152.402 657.961 152.382C657.952 152.357 657.931 152.346 657.916 152.322C657.905 152.302 657.896 152.281 657.881 152.257C657.87 152.242 657.861 152.221 657.846 152.196C657.836 152.175 657.81 152.16 657.799 152.14C657.79 152.121 657.78 152.101 657.77 152.08C657.749 152.045 657.714 152.015 657.695 151.974C657.679 151.954 657.669 151.924 657.654 151.9C657.639 151.879 657.628 151.868 657.613 151.844C657.604 151.823 657.589 151.803 657.578 151.783C654.351 145.792 647.851 142.23 639.407 142.23C622.517 142.23 603.464 156.829 596.938 174.769C593.665 183.762 594.34 191.813 597.578 197.811C597.587 197.831 597.604 197.846 597.619 197.871C597.628 197.891 597.638 197.906 597.648 197.932C597.658 197.941 597.669 197.956 597.678 197.971C597.708 198.018 597.739 198.068 597.775 198.113C597.779 198.133 597.794 198.138 597.809 198.163C597.82 198.183 597.829 198.204 597.84 198.224C597.855 198.244 597.87 198.265 597.879 198.284C597.89 198.304 597.911 198.319 597.92 198.345C597.931 198.365 597.94 198.38 597.955 198.401C597.965 198.416 597.97 198.43 597.98 198.445C598.011 198.49 598.046 198.54 598.082 198.587C598.082 198.602 598.091 198.607 598.097 198.617C598.127 198.667 598.162 198.717 598.192 198.763C598.203 198.782 598.212 198.793 598.223 198.813C598.232 198.832 598.253 198.849 598.257 198.873C598.272 198.884 598.277 198.899 598.288 198.914C598.313 198.959 598.359 199.005 598.383 199.055C598.389 199.07 598.394 199.07 598.404 199.085C598.439 199.13 598.474 199.18 598.499 199.23C598.504 199.245 598.524 199.262 598.53 199.281C598.539 199.301 598.554 199.316 598.565 199.336C598.575 199.351 598.584 199.366 598.59 199.383C598.615 199.433 598.66 199.472 598.686 199.522C598.69 199.537 598.696 199.543 598.705 199.554C598.74 199.599 598.772 199.654 598.802 199.699C598.807 199.71 598.811 199.719 598.816 199.729C598.841 199.77 598.876 199.814 598.897 199.85C598.927 199.9 598.967 199.941 598.993 199.986C598.997 200.002 599.003 200.006 599.008 200.017C599.038 200.067 599.073 200.117 599.108 200.162C599.108 200.173 599.118 200.183 599.129 200.192C599.159 200.227 599.179 200.278 599.204 200.318C599.22 200.344 599.235 200.363 599.25 200.389C599.27 200.424 599.3 200.46 599.32 200.495C599.35 200.545 599.38 200.59 599.41 200.631C599.41 200.64 599.421 200.646 599.43 200.661C599.456 200.696 599.486 200.741 599.512 200.781C599.527 200.807 599.536 200.832 599.551 200.858C599.577 200.893 599.602 200.928 599.622 200.963C599.648 201.008 599.683 201.053 599.713 201.094C599.713 201.103 599.728 201.114 599.733 201.124C599.758 201.17 599.793 201.205 599.813 201.25C599.823 201.275 599.843 201.295 599.858 201.321C599.884 201.356 599.904 201.391 599.929 201.427C599.944 201.451 599.955 201.477 599.97 201.501C599.994 201.537 600.02 201.572 600.04 201.607C600.061 201.648 600.096 201.687 600.115 201.719C600.135 201.749 600.146 201.769 600.161 201.793C600.186 201.829 600.206 201.864 600.232 201.899C600.247 201.92 600.262 201.94 600.277 201.964C600.302 202 600.327 202.035 600.347 202.07C600.357 202.096 600.377 202.121 600.388 202.146C600.397 202.167 600.418 202.182 600.427 202.202C600.438 202.221 600.459 202.242 600.468 202.262C600.488 202.297 600.518 202.327 600.539 202.368C600.548 202.394 600.563 202.418 600.578 202.444C600.598 202.479 600.624 202.515 600.649 202.549C600.665 202.569 600.684 202.589 600.695 202.615C600.71 202.634 600.719 202.65 600.734 202.675C600.745 202.695 600.755 202.716 600.77 202.74C600.79 202.771 600.82 202.807 600.84 202.846C600.851 202.866 600.87 202.892 600.881 202.911C600.905 202.952 600.937 202.982 600.957 203.017C600.972 203.037 600.987 203.063 601.002 203.093C601.011 203.114 601.022 203.123 601.037 203.149C601.047 203.168 601.058 203.188 601.072 203.209C601.087 203.229 601.102 203.249 601.112 203.27C601.123 203.294 601.143 203.309 601.153 203.33C601.163 203.35 601.173 203.37 601.182 203.391C601.208 203.426 601.233 203.46 601.259 203.495C601.273 203.516 601.294 203.536 601.303 203.562C601.32 203.581 601.335 203.601 601.344 203.622C601.354 203.642 601.364 203.662 601.374 203.687C604.346 209.805 611.112 213.234 619.556 213.234C636.44 213.234 655.489 198.637 662.019 180.696C665.293 171.719 664.618 163.667 661.38 157.669Z" fill="url(#paint3_linear_3093_420)"/>
<path d="M650.612 174.809C645.607 188.55 631.277 199.688 618.587 199.688C605.898 199.688 599.679 188.545 604.675 174.809C609.68 161.067 624.01 149.93 636.694 149.93C649.379 149.93 655.617 161.067 650.612 174.809Z" fill="#F0F0F0"/>
<path d="M637.877 82.4928C637.872 82.4777 637.851 82.4625 637.842 82.4424C637.832 82.4273 637.827 82.4123 637.812 82.3972C637.801 82.3871 637.797 82.3719 637.792 82.3619C637.771 82.3166 637.741 82.2813 637.711 82.241C637.701 82.2309 637.697 82.2159 637.686 82.2008C637.671 82.1857 637.665 82.1705 637.65 82.1504C637.641 82.1353 637.63 82.1202 637.621 82.1C637.611 82.0799 637.6 82.0699 637.591 82.0498C637.58 82.0347 637.565 82.0144 637.559 81.9994C637.55 81.9943 637.54 81.9793 637.535 81.9692C637.515 81.9238 637.479 81.8885 637.455 81.8483C637.455 81.8383 637.444 81.8331 637.44 81.8231C637.414 81.7829 637.39 81.7375 637.358 81.6973C637.349 81.6871 637.343 81.6771 637.329 81.657C637.318 81.6419 637.314 81.6216 637.299 81.6116C637.293 81.6015 637.288 81.5865 637.278 81.5764C637.248 81.5361 637.228 81.4957 637.197 81.4555C637.197 81.4455 637.187 81.4405 637.182 81.4304C637.157 81.3901 637.122 81.3497 637.102 81.3045C637.096 81.2893 637.081 81.2794 637.077 81.2642C637.066 81.2491 637.051 81.229 637.046 81.2139C637.036 81.2089 637.031 81.1937 637.022 81.1836C636.992 81.1433 636.971 81.1031 636.941 81.0627C636.941 81.0527 636.931 81.0477 636.925 81.0376C636.901 80.9973 636.875 80.9519 636.845 80.9117C636.845 80.9067 636.835 80.8966 636.83 80.8866C636.81 80.8513 636.784 80.816 636.765 80.7808C636.739 80.7404 636.715 80.7053 636.683 80.6701C636.683 80.66 636.674 80.6549 636.668 80.6448C636.644 80.6046 636.614 80.5593 636.588 80.519C636.588 80.514 636.583 80.5089 636.573 80.4938C636.548 80.4586 636.529 80.4233 636.508 80.3881C636.493 80.3629 636.482 80.3428 636.473 80.3275C636.452 80.2974 636.427 80.2672 636.406 80.2371C636.382 80.2018 636.356 80.1614 636.332 80.1263C636.332 80.1212 636.321 80.111 636.317 80.101C636.296 80.0658 636.27 80.0305 636.251 79.9953C636.241 79.9752 636.22 79.96 636.211 79.9399C636.19 79.9098 636.17 79.8795 636.155 79.8492C636.131 79.809 636.105 79.7688 636.08 79.7335C636.075 79.7284 636.069 79.7234 636.06 79.7082C636.034 79.673 636.019 79.6378 635.993 79.6025C635.978 79.5774 635.974 79.5572 635.959 79.5371C635.943 79.5119 635.908 79.4867 635.893 79.4515C635.889 79.4364 635.874 79.4163 635.863 79.3911C635.848 79.3609 635.813 79.3356 635.798 79.3055C635.777 79.2752 635.757 79.24 635.737 79.2047C635.727 79.1846 635.712 79.1645 635.701 79.1494C635.682 79.1191 635.662 79.089 635.642 79.0587C635.627 79.0386 635.616 79.0185 635.606 78.9983C635.591 78.9681 635.561 78.9428 635.545 78.9077C635.536 78.8926 635.515 78.8724 635.511 78.8523C635.496 78.8322 635.485 78.8221 635.476 78.802C635.465 78.7818 635.456 78.7667 635.445 78.7466C635.43 78.7213 635.405 78.6912 635.385 78.661C635.374 78.6458 635.359 78.6257 635.35 78.6004C635.335 78.5703 635.299 78.5452 635.284 78.5149C635.274 78.4948 635.259 78.4747 635.249 78.4494C635.244 78.4343 635.229 78.4243 635.218 78.404C635.214 78.389 635.199 78.3689 635.188 78.3538C635.168 78.3235 635.143 78.2934 635.134 78.2631C635.113 78.243 635.102 78.2229 635.093 78.2028C635.073 78.1725 635.052 78.1423 635.032 78.112C635.022 78.097 635.007 78.0769 634.996 78.0566C634.987 78.0365 634.972 78.0265 634.963 78.0064C634.952 77.9863 634.942 77.971 634.931 77.9509C634.922 77.9409 634.911 77.9208 634.901 77.9006C634.892 77.8855 634.871 77.8704 634.866 77.8553C634.851 77.8401 634.846 77.825 634.836 77.8049C634.816 77.7748 634.79 77.7445 634.771 77.7194C634.766 77.6993 634.751 77.679 634.74 77.6539C634.73 77.6388 634.715 77.6288 634.704 77.6085C634.7 77.5935 634.685 77.5732 634.675 77.5582C631.648 72.689 626.482 69.5117 619.368 69.5117C605.143 69.5117 589.096 81.808 583.596 96.914C580.838 104.487 580.807 111.637 584.13 116.32C584.145 116.34 584.156 116.35 584.165 116.37C584.175 116.386 584.18 116.401 584.195 116.421C584.206 116.431 584.21 116.441 584.216 116.456C584.236 116.496 584.271 116.537 584.296 116.577C584.307 116.592 584.316 116.602 584.327 116.617C584.337 116.632 584.347 116.647 584.357 116.668C584.366 116.688 584.377 116.698 584.387 116.718C584.398 116.738 584.413 116.748 584.422 116.768C584.433 116.783 584.443 116.798 584.452 116.814C584.458 116.824 584.468 116.839 584.478 116.849C584.502 116.884 584.528 116.929 584.558 116.97C584.558 116.98 584.563 116.985 584.569 116.995C584.599 117.035 584.629 117.08 584.649 117.116C584.659 117.131 584.669 117.141 584.679 117.156C584.69 117.171 584.699 117.186 584.709 117.206C584.72 117.211 584.725 117.226 584.729 117.236C584.75 117.277 584.779 117.317 584.811 117.357C584.82 117.367 584.826 117.372 584.83 117.383C584.855 117.423 584.885 117.463 584.911 117.503C584.915 117.519 584.932 117.529 584.936 117.544C584.941 117.559 584.956 117.574 584.965 117.589C584.971 117.599 584.982 117.614 584.986 117.624C585.006 117.669 585.047 117.7 585.067 117.745C585.071 117.755 585.077 117.76 585.082 117.77C585.112 117.811 585.138 117.856 585.162 117.896C585.168 117.901 585.172 117.911 585.177 117.921C585.198 117.957 585.228 117.992 585.248 118.027C585.274 118.067 585.304 118.108 585.324 118.143C585.328 118.153 585.334 118.158 585.339 118.168C585.363 118.208 585.395 118.254 585.425 118.294C585.425 118.299 585.434 118.309 585.439 118.319C585.46 118.354 585.484 118.39 585.505 118.425C585.516 118.445 585.53 118.46 585.545 118.485C585.566 118.51 585.59 118.541 585.605 118.571C585.631 118.611 585.651 118.651 585.676 118.687C585.681 118.692 585.687 118.702 585.691 118.712C585.711 118.742 585.741 118.777 585.761 118.818C585.776 118.838 585.787 118.863 585.797 118.878C585.817 118.908 585.837 118.938 585.858 118.969C585.878 119.004 585.908 119.044 585.933 119.079C585.933 119.084 585.947 119.094 585.953 119.105C585.973 119.14 585.994 119.175 586.014 119.21C586.024 119.23 586.044 119.246 586.059 119.266C586.079 119.291 586.1 119.321 586.115 119.351C586.124 119.371 586.139 119.392 586.15 119.417C586.165 119.447 586.195 119.472 586.21 119.502C586.23 119.538 586.26 119.568 586.275 119.598C586.291 119.623 586.301 119.638 586.31 119.658C586.33 119.689 586.351 119.719 586.371 119.749C586.381 119.764 586.396 119.784 586.407 119.804C586.427 119.835 586.451 119.865 586.466 119.895C586.477 119.915 586.492 119.935 586.502 119.956C586.512 119.971 586.527 119.986 586.531 120.001C586.546 120.016 586.557 120.031 586.567 120.051C586.583 120.082 586.608 120.112 586.628 120.142C586.637 120.162 586.652 120.182 586.658 120.202C586.684 120.233 586.708 120.258 586.723 120.293C586.734 120.308 586.743 120.328 586.758 120.348C586.769 120.363 586.784 120.379 586.794 120.399C586.804 120.419 586.814 120.429 586.819 120.454C586.844 120.479 586.864 120.509 586.885 120.54C586.894 120.555 586.91 120.575 586.92 120.595C586.94 120.625 586.961 120.655 586.981 120.686C586.985 120.706 587 120.726 587.015 120.746C587.026 120.761 587.035 120.776 587.046 120.791C587.056 120.807 587.065 120.822 587.08 120.842C587.091 120.857 587.106 120.877 587.111 120.892C587.121 120.912 587.136 120.927 587.141 120.942C587.156 120.958 587.167 120.973 587.171 120.993C587.197 121.023 587.217 121.048 587.236 121.083C587.247 121.099 587.257 121.119 587.272 121.139C587.277 121.159 587.298 121.169 587.303 121.189C587.318 121.204 587.323 121.224 587.333 121.245C589.483 126.557 595.53 129.286 602.645 129.286C616.864 129.286 632.913 116.99 638.411 101.884C641.175 94.3258 640.122 87.7799 637.877 82.4928Z" fill="url(#paint4_linear_3093_420)"/>
<path d="M628.816 96.9297C624.596 108.501 612.527 117.887 601.842 117.887C591.151 117.887 585.915 108.501 590.124 96.9297C594.339 85.3534 606.408 75.9727 617.093 75.9727C627.778 75.9727 633.025 85.3584 628.816 96.9297Z" fill="#F0F0F0"/>
<path d="M636.622 14.0213C636.617 14.0062 636.602 13.9961 636.596 13.9811C636.587 13.966 636.582 13.9559 636.572 13.9407C636.561 13.9307 636.557 13.9206 636.552 13.9106C636.531 13.8753 636.511 13.8451 636.486 13.8099C636.481 13.7997 636.476 13.7897 636.466 13.7746C636.455 13.7646 636.451 13.7495 636.44 13.7343C636.431 13.7192 636.42 13.7091 636.416 13.6939C636.405 13.6789 636.395 13.6688 636.39 13.6537C636.38 13.6387 636.37 13.6236 636.366 13.6084C636.355 13.6033 636.349 13.5933 636.345 13.5832C636.325 13.548 636.299 13.5178 636.28 13.4826C636.28 13.4725 636.269 13.4675 636.264 13.4624C636.245 13.4272 636.224 13.3919 636.204 13.3566C636.193 13.3466 636.189 13.3365 636.178 13.3264C636.169 13.3113 636.163 13.2962 636.154 13.2862C636.148 13.2761 636.143 13.266 636.139 13.256C636.113 13.2207 636.093 13.1905 636.072 13.1552C636.068 13.1452 636.063 13.1402 636.057 13.1351C636.038 13.0999 636.012 13.0647 635.992 13.0294C635.987 13.0193 635.977 13.0092 635.972 12.9991C635.962 12.984 635.953 12.969 635.947 12.9539C635.942 12.9488 635.936 12.9387 635.927 12.9287C635.906 12.8934 635.886 12.8632 635.862 12.8279C635.862 12.8179 635.851 12.8129 635.847 12.8078C635.832 12.7726 635.806 12.7373 635.786 12.7021C635.78 12.6971 635.776 12.692 635.771 12.682C635.756 12.6517 635.73 12.6265 635.715 12.5913C635.695 12.5611 635.676 12.5308 635.655 12.5006C635.65 12.4906 635.644 12.4855 635.64 12.4805C635.625 12.4453 635.594 12.41 635.574 12.3748C635.574 12.3697 635.57 12.3647 635.564 12.3546C635.544 12.3244 635.523 12.2993 635.509 12.2691C635.499 12.2489 635.49 12.2338 635.479 12.2187C635.458 12.1935 635.443 12.1683 635.428 12.1431C635.408 12.1129 635.388 12.0777 635.367 12.0475C635.367 12.0424 635.358 12.0374 635.352 12.0273C635.337 11.9971 635.317 11.9719 635.302 11.9367C635.293 11.9216 635.278 11.9065 635.267 11.8913C635.252 11.8662 635.237 11.841 635.222 11.8158C635.202 11.7856 635.181 11.7504 635.162 11.7202C635.157 11.7151 635.151 11.7101 635.146 11.7C635.127 11.6698 635.111 11.6447 635.092 11.6144C635.081 11.5943 635.071 11.5792 635.06 11.559C635.045 11.5389 635.025 11.5138 635.01 11.4886C635.006 11.4735 634.995 11.4583 634.986 11.4382C634.971 11.413 634.95 11.3929 634.935 11.3677C634.919 11.3375 634.9 11.3124 634.885 11.2821C634.874 11.267 634.865 11.2519 634.854 11.2368C634.834 11.2116 634.819 11.1865 634.804 11.1613C634.794 11.1462 634.785 11.131 634.779 11.1109C634.759 11.0857 634.738 11.0656 634.729 11.0353C634.718 11.0202 634.703 11.0052 634.698 10.9901C634.688 10.975 634.679 10.9649 634.668 10.9498C634.662 10.9347 634.653 10.9195 634.647 10.9044C634.628 10.8843 634.612 10.8591 634.597 10.834C634.588 10.8189 634.577 10.8038 634.567 10.7836C634.552 10.7585 634.532 10.7383 634.517 10.7131C634.508 10.693 634.497 10.6779 634.487 10.6577C634.482 10.6476 634.472 10.6376 634.461 10.6225C634.456 10.6074 634.446 10.5923 634.437 10.5822C634.421 10.557 634.402 10.5318 634.391 10.5067C634.376 10.4916 634.366 10.4714 634.361 10.4563C634.34 10.4312 634.326 10.406 634.311 10.3808C634.301 10.3657 634.29 10.3506 634.281 10.3355C634.275 10.3204 634.26 10.3103 634.249 10.2952C634.245 10.2801 634.235 10.265 634.23 10.2499C634.22 10.2398 634.21 10.2247 634.205 10.2096C634.195 10.1944 634.179 10.1844 634.175 10.1693C634.164 10.1542 634.16 10.1441 634.149 10.129C634.134 10.1039 634.114 10.0786 634.099 10.0585C634.095 10.0384 634.084 10.0232 634.074 10.0031C634.063 9.99303 634.054 9.98302 634.043 9.96792C634.039 9.9528 634.028 9.93765 634.019 9.92758C631.692 5.88926 627.362 3.38672 621.576 3.38672C610.015 3.38672 596.973 13.3768 592.508 25.658C590.267 31.8161 590.603 37.3952 592.945 41.4336C592.956 41.4487 592.965 41.4587 592.976 41.4738C592.98 41.489 592.991 41.4991 592.995 41.5141C593.006 41.5242 593.012 41.5342 593.016 41.5444C593.036 41.5746 593.062 41.6099 593.082 41.6451C593.086 41.6601 593.097 41.6652 593.107 41.6802C593.112 41.6903 593.122 41.7055 593.127 41.7206C593.136 41.7358 593.147 41.7458 593.151 41.7609C593.162 41.776 593.177 41.786 593.183 41.8011C593.192 41.8162 593.198 41.8264 593.207 41.8415C593.213 41.8515 593.218 41.8616 593.227 41.8716C593.248 41.9019 593.268 41.9372 593.293 41.9724C593.293 41.9824 593.298 41.9875 593.304 41.9925C593.323 42.0278 593.348 42.063 593.369 42.0931C593.374 42.1083 593.384 42.1184 593.389 42.1284C593.399 42.1435 593.408 42.1536 593.414 42.1738C593.424 42.1788 593.429 42.1889 593.434 42.1989C593.454 42.2292 593.475 42.2644 593.499 42.2996C593.505 42.3098 593.51 42.3148 593.514 42.3198C593.529 42.3551 593.555 42.3903 593.581 42.4205C593.585 42.4355 593.596 42.4457 593.6 42.4558C593.605 42.4709 593.615 42.4809 593.625 42.496C593.631 42.506 593.635 42.5161 593.64 42.5263C593.661 42.5614 593.685 42.5917 593.706 42.6269C593.711 42.637 593.715 42.642 593.721 42.647C593.741 42.6823 593.767 42.7176 593.786 42.7528C593.786 42.7578 593.791 42.7629 593.797 42.7731C593.817 42.7982 593.836 42.8283 593.852 42.8586C593.871 42.8938 593.897 42.9241 593.917 42.9542C593.917 42.9643 593.923 42.9693 593.927 42.9743C593.947 43.0097 593.973 43.0448 593.998 43.0801C593.998 43.0852 594.003 43.0902 594.008 43.1002C594.027 43.1255 594.044 43.1557 594.063 43.1859C594.074 43.206 594.083 43.2211 594.094 43.2362C594.109 43.2615 594.129 43.2866 594.144 43.3067C594.159 43.342 594.18 43.3722 594.204 43.4075C594.204 43.4125 594.209 43.4175 594.215 43.4276C594.23 43.4527 594.249 43.483 594.269 43.5131C594.28 43.5334 594.29 43.5485 594.3 43.5635C594.321 43.5887 594.334 43.6139 594.351 43.639C594.366 43.6693 594.39 43.6995 594.41 43.7347C594.41 43.7397 594.421 43.7447 594.425 43.7549C594.44 43.7851 594.461 43.8103 594.476 43.8455C594.487 43.8606 594.496 43.8758 594.511 43.8909C594.527 43.916 594.542 43.9411 594.557 43.9613C594.567 43.9815 594.576 43.9965 594.587 44.0166C594.602 44.0419 594.622 44.062 594.632 44.0873C594.652 44.1174 594.673 44.1425 594.688 44.1678C594.697 44.1879 594.708 44.203 594.717 44.2182C594.732 44.2433 594.749 44.2684 594.764 44.2937C594.773 44.3088 594.783 44.3239 594.793 44.3389C594.808 44.3691 594.829 44.3893 594.844 44.4144C594.853 44.4345 594.864 44.4498 594.874 44.4648C594.879 44.4799 594.894 44.49 594.899 44.5052C594.909 44.5203 594.92 44.5303 594.924 44.5454C594.939 44.5705 594.959 44.5958 594.974 44.6209C594.985 44.636 594.995 44.6512 595 44.6713C595.02 44.6965 595.041 44.7167 595.05 44.7468C595.06 44.7619 595.071 44.7771 595.08 44.7922C595.091 44.8072 595.1 44.8173 595.11 44.8324C595.115 44.8476 595.126 44.8576 595.13 44.8777C595.151 44.8978 595.166 44.9231 595.181 44.9482C595.191 44.9633 595.201 44.9784 595.212 44.9936C595.227 45.0237 595.247 45.0438 595.262 45.0691C595.266 45.0892 595.277 45.1044 595.292 45.1195C595.297 45.1346 595.307 45.1446 595.316 45.1597C595.322 45.1748 595.333 45.1848 595.342 45.2C595.352 45.2151 595.363 45.2302 595.368 45.2402C595.378 45.2603 595.387 45.2705 595.392 45.2856C595.403 45.2957 595.413 45.3107 595.418 45.3258C595.437 45.3511 595.454 45.3712 595.469 45.4015C595.478 45.4165 595.489 45.4316 595.498 45.4467C595.504 45.4618 595.519 45.4719 595.524 45.487C595.534 45.5021 595.543 45.5172 595.549 45.5323C597.881 49.5656 602.211 52.0681 607.997 52.0681C619.552 52.0681 632.594 42.0781 637.06 29.797C639.301 23.6387 638.968 18.0546 636.622 14.0213Z" fill="url(#paint5_linear_3093_420)"/>
<path d="M629.253 25.757C625.825 35.163 616.016 42.7916 607.33 42.7916C598.643 42.7916 594.389 35.163 597.807 25.757C601.226 16.3512 611.046 8.72266 619.732 8.72266C628.417 8.72266 632.677 16.3461 629.253 25.757Z" fill="#F0F0F0"/>
</g>
<defs>
<linearGradient id="paint0_linear_3093_420" x1="281.637" y1="0" x2="281.637" y2="271.827" gradientUnits="userSpaceOnUse">
<stop offset="0.254166" stop-color="#D748D0"/>
<stop offset="0.504166" stop-color="#0053A7"/>
<stop offset="1" stop-color="#51CFD6"/>
</linearGradient>
<linearGradient id="paint1_linear_3093_420" x1="395.745" y1="164.832" x2="395.745" y2="258.247" gradientUnits="userSpaceOnUse">
<stop offset="0.170833" stop-color="#D748D0"/>
<stop offset="0.504166" stop-color="#0053A7"/>
<stop offset="1" stop-color="#51CFD6"/>
</linearGradient>
<linearGradient id="paint2_linear_3093_420" x1="512.861" y1="163.219" x2="512.861" y2="245.415" gradientUnits="userSpaceOnUse">
<stop offset="0.170833" stop-color="#D748D0"/>
<stop offset="0.504166" stop-color="#0053A7"/>
<stop offset="1" stop-color="#51CFD6"/>
</linearGradient>
<linearGradient id="paint3_linear_3093_420" x1="629.479" y1="142.23" x2="629.479" y2="213.234" gradientUnits="userSpaceOnUse">
<stop offset="0.170833" stop-color="#D748D0"/>
<stop offset="0.504166" stop-color="#0053A7"/>
<stop offset="1" stop-color="#51CFD6"/>
</linearGradient>
<linearGradient id="paint4_linear_3093_420" x1="610.823" y1="69.5117" x2="610.823" y2="129.286" gradientUnits="userSpaceOnUse">
<stop offset="0.170833" stop-color="#D748D0"/>
<stop offset="0.504166" stop-color="#0053A7"/>
<stop offset="1" stop-color="#51CFD6"/>
</linearGradient>
<linearGradient id="paint5_linear_3093_420" x1="614.785" y1="3.38672" x2="614.785" y2="52.0681" gradientUnits="userSpaceOnUse">
<stop offset="0.170833" stop-color="#D748D0"/>
<stop offset="0.504166" stop-color="#0053A7"/>
<stop offset="1" stop-color="#51CFD6"/>
</linearGradient>
<clipPath id="clip0_3093_420">
<rect width="664.164" height="273" fill="white"/>
</clipPath>
</defs>
</svg>
