<svg width="192" height="192" viewBox="0 0 192 192" fill="none" xmlns="http://www.w3.org/2000/svg">
<g clip-path="url(#clip0_3093_433)">
<mask id="mask0_3093_433" style="mask-type:luminance" maskUnits="userSpaceOnUse" x="0" y="0" width="192" height="192">
<path d="M192 0H0V192H192V0Z" fill="white"/>
</mask>
<g mask="url(#mask0_3093_433)">
<path d="M180.102 41.718C180.071 41.6663 180.02 41.6249 179.989 41.5628C179.957 41.511 179.926 41.4593 179.895 41.4076C179.864 41.3662 179.844 41.3351 179.823 41.2937C179.74 41.1592 179.646 41.035 179.574 40.9005C179.543 40.8591 179.523 40.8177 179.491 40.766C179.45 40.7142 179.42 40.6625 179.388 40.6107C179.347 40.5486 179.316 40.4968 179.285 40.4451C179.254 40.383 179.212 40.3415 179.181 40.2794C179.15 40.2277 179.108 40.176 179.088 40.1139C179.057 40.0829 179.036 40.0519 179.005 40.0105C178.933 39.8759 178.839 39.7516 178.757 39.6171C178.757 39.5861 178.726 39.5654 178.705 39.5343C178.633 39.3998 178.539 39.2757 178.467 39.1411C178.436 39.0997 178.405 39.0583 178.374 39.0066C178.343 38.9548 178.311 38.9031 178.281 38.8514C178.25 38.81 178.229 38.7789 178.209 38.7375C178.126 38.603 178.033 38.4787 177.96 38.3441C177.95 38.3131 177.929 38.2924 177.908 38.2614C177.836 38.1268 177.732 38.0027 177.66 37.8682C177.639 37.8164 177.597 37.7854 177.577 37.7336C177.546 37.6819 177.505 37.6301 177.484 37.5679C177.453 37.5369 177.432 37.5059 177.401 37.4645C177.329 37.33 177.236 37.2057 177.153 37.0711C177.153 37.0401 177.122 37.0195 177.101 36.9884C177.029 36.8539 176.935 36.7297 176.863 36.5952C176.853 36.5642 176.822 36.5434 176.801 36.5123C176.739 36.3985 176.656 36.295 176.594 36.1709C176.511 36.0467 176.428 35.9328 176.356 35.8086C176.346 35.7775 176.325 35.7569 176.304 35.7259C176.231 35.5913 176.128 35.467 176.056 35.3325C176.045 35.3014 176.025 35.2808 176.004 35.2498C175.932 35.1359 175.859 35.0324 175.787 34.9186C175.745 34.8461 175.714 34.784 175.673 34.7116C175.601 34.6184 175.538 34.5253 175.476 34.4322C175.403 34.308 175.31 34.1941 175.249 34.0699C175.238 34.0389 175.207 34.0182 175.187 33.9872C175.124 33.8733 175.042 33.7698 174.979 33.6456C174.938 33.5835 174.897 33.5214 174.855 33.4593C174.793 33.3558 174.721 33.2627 174.669 33.1799C174.586 33.0454 174.503 32.9316 174.431 32.8074C174.421 32.7763 174.4 32.7555 174.379 32.7245C174.307 32.6106 174.235 32.5071 174.162 32.3933C174.121 32.3209 174.089 32.2587 174.047 32.1863C173.975 32.0932 173.913 32.0001 173.851 31.9069C173.82 31.8449 173.779 31.7827 173.738 31.7206C173.675 31.6171 173.603 31.5241 173.541 31.4412C173.479 31.3274 173.406 31.2238 173.344 31.1204C173.302 31.0582 173.261 30.9961 173.22 30.934C173.158 30.8305 173.085 30.7374 173.034 30.6547C172.993 30.5822 172.951 30.5201 172.92 30.4476C172.847 30.3545 172.775 30.2614 172.723 30.1683C172.682 30.1062 172.641 30.044 172.61 29.9819C172.578 29.9198 172.527 29.8785 172.495 29.8164C172.465 29.7647 172.433 29.7129 172.402 29.6508C172.33 29.5576 172.268 29.4645 172.206 29.3714C172.175 29.3093 172.133 29.2471 172.092 29.1851C172.03 29.0816 171.958 28.9884 171.895 28.9055C171.865 28.8331 171.822 28.7711 171.781 28.6987C171.75 28.6469 171.709 28.6055 171.678 28.5435C171.646 28.4917 171.616 28.4399 171.575 28.3882C171.513 28.2847 171.44 28.1915 171.388 28.1087C171.347 28.0363 171.305 27.9741 171.274 27.9017C171.202 27.8085 171.129 27.7155 171.077 27.6223C171.036 27.5602 170.995 27.4981 170.964 27.4359C170.933 27.3739 170.881 27.3326 170.85 27.2705C170.819 27.2187 170.788 27.1669 170.757 27.1048C170.715 27.0531 170.684 27.0014 170.653 26.9393C170.622 26.8876 170.571 26.8462 170.539 26.7841C170.508 26.7323 170.477 26.6806 170.446 26.6289C170.385 26.5254 170.311 26.4322 170.25 26.3493C170.218 26.2769 170.177 26.2148 170.136 26.1423C170.105 26.0906 170.063 26.0492 170.032 25.9871C170.001 25.9353 169.971 25.8836 169.929 25.8318C160.739 9.88357 143.631 0 120.79 0C75.1397 0 23.6209 39.4618 5.97536 87.9691C-2.87329 112.29 -1.55901 134.323 7.70357 150.271C7.73467 150.334 7.77616 150.375 7.8072 150.437C7.83824 150.489 7.88 150.541 7.90069 150.603C7.93173 150.634 7.95237 150.665 7.98341 150.707C8.05589 150.841 8.14891 150.965 8.23168 151.1C8.25237 151.151 8.28336 151.182 8.3144 151.234C8.34549 151.286 8.37621 151.338 8.40731 151.4C8.44869 151.452 8.47984 151.503 8.51088 151.565C8.54192 151.617 8.59413 151.659 8.62523 151.721C8.65627 151.772 8.68704 151.824 8.71808 151.876C8.74912 151.917 8.77003 151.948 8.79072 151.99C8.87349 152.124 8.96651 152.249 9.03893 152.383C9.04928 152.414 9.07003 152.435 9.09077 152.466C9.17355 152.601 9.26656 152.724 9.33899 152.859C9.35968 152.911 9.39072 152.942 9.42176 152.994C9.4528 153.045 9.49451 153.097 9.51525 153.159C9.54629 153.19 9.56693 153.221 9.59797 153.262C9.6704 153.397 9.76341 153.522 9.84624 153.656C9.85659 153.687 9.87733 153.708 9.89803 153.739C9.97045 153.873 10.0635 153.997 10.1463 154.132C10.167 154.173 10.2083 154.215 10.229 154.267C10.2601 154.318 10.2915 154.37 10.3225 154.422C10.3535 154.463 10.3738 154.494 10.3945 154.535C10.4773 154.67 10.5703 154.794 10.6428 154.929C10.6531 154.96 10.6739 154.981 10.6946 155.012C10.7773 155.146 10.871 155.27 10.9434 155.405C10.9538 155.436 10.9739 155.457 10.9946 155.487C11.0567 155.602 11.1401 155.705 11.2125 155.819C11.285 155.954 11.3776 156.067 11.45 156.191C11.4604 156.222 11.4811 156.243 11.5018 156.274C11.5743 156.409 11.6679 156.533 11.7507 156.668C11.7507 156.699 11.7812 156.719 11.8019 156.75C11.8743 156.865 11.947 156.967 12.0091 157.092C12.0505 157.154 12.0921 157.216 12.1335 157.278C12.1956 157.382 12.2678 157.475 12.33 157.557C12.4024 157.692 12.4849 157.806 12.5573 157.93C12.5677 157.961 12.5884 157.982 12.6092 158.013C12.6713 158.127 12.754 158.23 12.8265 158.344C12.8678 158.417 12.8994 158.479 12.9408 158.551C13.0132 158.644 13.0751 158.738 13.1372 158.83C13.2097 158.955 13.3029 159.069 13.3754 159.193C13.3754 159.224 13.4065 159.244 13.4271 159.276C13.4996 159.389 13.5716 159.493 13.6337 159.617C13.6751 159.679 13.7167 159.741 13.7581 159.803C13.8203 159.907 13.8925 160 13.9546 160.083C13.9857 160.155 14.0271 160.218 14.0582 160.29C14.1307 160.383 14.2029 160.476 14.2547 160.569C14.3167 160.673 14.3997 160.776 14.4619 160.869C14.5033 160.942 14.5341 161.004 14.5755 161.076C14.648 161.17 14.7105 161.262 14.7726 161.356C14.8037 161.418 14.8449 161.48 14.8863 161.542C14.9484 161.646 15.0207 161.739 15.0828 161.821C15.1138 161.894 15.1551 161.956 15.1965 162.028C15.2275 162.08 15.269 162.122 15.3001 162.184C15.3311 162.236 15.3726 162.287 15.4037 162.339C15.4658 162.443 15.538 162.535 15.6001 162.619C15.6311 162.691 15.6726 162.753 15.7037 162.826C15.7762 162.918 15.8484 163.012 15.9002 163.105C15.9415 163.167 15.9832 163.229 16.0246 163.291C16.0453 163.353 16.0971 163.395 16.1282 163.457C16.1593 163.508 16.19 163.561 16.2211 163.622C16.2935 163.716 16.3561 163.809 16.4181 163.902C16.4492 163.964 16.4905 164.026 16.5318 164.088C16.5939 164.191 16.6662 164.285 16.7283 164.367C16.7593 164.44 16.8006 164.502 16.842 164.574C16.873 164.626 16.9145 164.668 16.9455 164.73C16.9766 164.781 17.0181 164.833 17.0492 164.885C17.0906 164.947 17.1217 164.999 17.1527 165.051C17.1838 165.113 17.2253 165.154 17.2564 165.216C17.2874 165.268 17.3181 165.319 17.3492 165.382C17.4217 165.475 17.4946 165.568 17.5463 165.661C17.5877 165.723 17.6287 165.786 17.6701 165.847C17.6908 165.909 17.7427 165.951 17.7737 166.013C17.8047 166.065 17.8355 166.116 17.8666 166.179C27.067 182.116 44.1747 192 67.0155 192C112.666 192 164.174 152.538 181.83 104.031C190.69 79.7104 189.355 57.6768 180.102 41.718Z" fill="url(#paint0_linear_3093_433)"/>
<path d="M151.001 88.0712C137.474 125.225 98.7163 155.342 64.4192 155.342C30.1214 155.342 13.2932 125.225 26.8093 88.0712C40.3255 50.9172 79.0837 20.8008 113.381 20.8008C147.678 20.8008 164.517 50.9172 151.001 88.0712Z" fill="#F0F0F0"/>
</g>
</g>
<defs>
<linearGradient id="paint0_linear_3093_433" x1="93.9035" y1="0" x2="93.9035" y2="192" gradientUnits="userSpaceOnUse">
<stop offset="0.170833" stop-color="#D748D0"/>
<stop offset="0.504166" stop-color="#0053A7"/>
<stop offset="1" stop-color="#51CFD6"/>
</linearGradient>
<clipPath id="clip0_3093_433">
<rect width="192" height="192" fill="white"/>
</clipPath>
</defs>
</svg>
