<svg width="489" height="201" viewBox="0 0 489 201" fill="none" xmlns="http://www.w3.org/2000/svg">
<g clip-path="url(#clip0_2883_378)">
<path d="M411.826 59.3135C412.43 57.4635 412.909 55.7915 413.183 54.3345C413.335 53.5968 413.417 52.9368 413.472 52.3029L414.569 51.402C414.592 51.2092 414.566 51.0313 414.577 50.8459L414.629 50.7903C415.048 46.4046 413.991 42.1115 411.648 38.8898C411.422 38.5784 411.129 38.2855 410.877 37.9815C410.436 36.988 409.921 36.0463 409.294 35.1862C409.068 34.8748 408.775 34.5819 408.523 34.2779C408.085 33.2843 407.566 32.3427 406.944 31.4863C406.677 31.1193 406.343 30.7819 406.039 30.426C405.605 29.4435 405.086 28.5056 404.467 27.6529C404.241 27.3452 403.948 27.0597 403.7 26.7594C403.262 25.7622 402.739 24.8169 402.113 23.9531C401.568 23.2042 400.941 22.4849 400.248 21.7991C400.204 21.7583 400.167 21.7212 400.122 21.6804C400.085 21.6434 400.048 21.6063 400.011 21.5729C399.97 21.5284 399.926 21.4876 399.881 21.4469C399.84 21.4098 399.803 21.3727 399.763 21.3356C399.722 21.2949 399.681 21.2541 399.636 21.2133C399.596 21.1762 399.559 21.1354 399.522 21.1021C399.477 21.0613 399.44 21.0206 399.395 20.9798C399.358 20.9427 399.318 20.9056 399.284 20.8722C399.255 20.8463 399.236 20.8129 399.206 20.7907C397.156 18.7961 394.357 17.2984 390.906 16.3901C388.092 15.5819 384.481 15.1148 380.214 14.9628C379.825 14.948 379.48 14.8924 379.076 14.8924H378.909H378.738H378.571H378.401H378.234H378.063H377.897H377.726H377.559H377.389H377.222H362.967H362.8H362.63H362.463H362.293H362.126H361.955H361.788H361.618H361.451H361.281H361.114C355.627 14.8924 350.893 15.3817 346.866 16.3382C345.84 16.5644 344.846 16.8572 343.852 17.1501C343.7 16.9573 343.56 16.7571 343.4 16.5681C343.378 16.5458 343.344 16.531 343.326 16.505C342.788 15.2038 342.002 13.9989 341.046 12.8681C340.497 11.489 339.663 10.2174 338.658 9.01996C338.647 9.00884 338.629 9.00139 338.621 8.99026C338.073 7.67787 337.264 6.46561 336.297 5.32005C335.967 4.93449 335.526 4.62306 335.077 4.31906C334.81 3.90755 334.592 3.47008 334.247 3.08823C332.634 1.03808 329.994 0 326.391 0C325.927 0 325.419 0.0148655 324.889 0.0371094L324.115 0.0593411H321.605H321.438H321.267H321.101H320.93H320.763H320.593H320.426H320.255H320.088H319.918H319.751L319.076 0.0371094C318.583 0.0148655 318.116 0 317.675 0C314.016 0 310.52 1.13076 307.231 3.39223C305.926 4.28199 302.386 6.72879 299.924 11.2109C299.587 10.7364 299.224 10.2841 298.79 9.88745C298.263 8.34891 297.407 7.02539 296.199 5.99475C295.146 3.07339 292.869 0.919449 289.258 0.300326C288.647 0.159448 288.009 0.0593411 287.308 0.0593411H287.142H286.971H286.804H286.634H286.467H286.296H286.129H285.959H285.792H285.621H285.462H281.202H281.035H280.865H280.698H280.527H280.361H280.19H280.023H279.853H279.686H279.516H279.349C271.066 0.0593411 260.045 7.99301 257.105 16.0713L257.042 16.2381L256.979 16.4049L256.916 16.5717L256.853 16.7386L256.79 16.9054L256.73 17.0723L256.667 17.2391L256.604 17.4059L256.541 17.5727L256.478 17.7395L256.415 17.9064L256.152 18.6367C254.547 19.8379 253.086 21.2911 251.844 22.9557C249.953 25.4841 249.119 27.7827 248.545 29.3472L248.481 29.514L248.419 29.6809L248.359 29.8477L248.296 30.0145L248.233 30.1813L248.17 30.3481L248.107 30.515L248.044 30.6818L247.981 30.8486L247.918 31.0155L247.855 31.1823L247.058 33.377L246.995 33.5439L246.932 33.7107L246.869 33.8775L246.806 34.0444L246.743 34.2112L246.68 34.378L246.617 34.5448L246.554 34.7117L246.491 34.8785L246.431 35.0453L246.368 35.2121C246.327 35.3196 246.342 35.4124 246.335 35.5125C246.257 35.7757 246.179 36.0166 246.105 36.2984C245.393 35.8535 244.626 35.5087 243.829 35.2159C243.573 34.5893 243.239 34.0258 242.828 33.5142C242.483 32.8024 242.046 32.187 241.523 31.6606C241.256 30.9784 240.911 30.363 240.477 29.8143C240.144 29.1284 239.729 28.5316 239.232 28.0237C238.946 27.2525 238.557 26.5704 238.053 25.9698C237.73 25.3396 237.337 24.7871 236.874 24.3052C236.563 23.4859 236.144 22.7592 235.591 22.1327C235.161 21.3542 234.631 20.6832 233.978 20.1493C233.964 20.116 233.949 20.09 233.934 20.0566C232.951 16.8127 230.549 14.8478 226.912 14.8478H226.746H226.575H226.408H226.238H226.071H225.9H225.733H225.563H225.396H225.225H225.059H212.291H212.124H211.953H211.786H211.616H211.449H211.279H211.112H210.941H210.774H210.604H210.437C206.863 14.8478 203.775 15.1481 201.017 15.7598C197.076 16.6274 193.42 18.2326 190.503 20.2828C190.425 20.3347 190.354 20.3903 190.276 20.4422C188.69 17.354 185.754 14.8478 181.483 14.8478H181.316H181.146H180.979H180.808H180.641H180.471H180.304H180.133H179.966H179.796H179.629H175.722H175.555H175.384H175.218H175.047H174.88H174.71H174.543H174.372H174.205H174.035H173.868C173.668 14.8478 173.449 14.896 173.245 14.9034C173.008 14.922 172.763 14.9405 172.522 14.9702C165.241 15.5337 156.377 20.5831 152.744 28.0756C152.566 28.4055 152.406 28.7466 152.254 29.0839C152.176 29.2767 152.05 29.451 151.984 29.6475L151.921 29.8143L151.858 29.9811L151.794 30.1479L151.732 30.3148L151.668 30.4816L151.606 30.6485L151.542 30.8153L151.48 30.9821L151.416 31.1489L151.353 31.3158L151.294 31.4826L150.115 34.7191C149.978 34.5115 149.815 34.3224 149.659 34.1259C149.325 33.4363 148.918 32.8209 148.428 32.2686C148.136 31.6049 147.761 30.9969 147.305 30.426C146.986 29.7698 146.608 29.1729 146.145 28.6391C145.826 27.8939 145.407 27.2118 144.877 26.5852C144.569 25.9772 144.209 25.4211 143.779 24.9206C143.438 24.131 142.99 23.4043 142.419 22.7481C141.985 21.9436 141.436 21.2356 140.776 20.635C139.672 17.228 137.065 14.8367 132.698 14.8367H132.531H132.361H132.194H132.024H131.857H131.686H131.519H131.349H131.182H131.011H130.844H126.763H126.596H126.425H126.258H126.088H125.921H125.751H125.584H125.413H125.247H125.076H124.909C123.63 14.8367 122.273 15.0295 120.883 15.352C120.805 15.2149 120.683 15.1074 120.594 14.9776C120.223 14.1101 119.711 13.3538 119.003 12.7606C118.792 12.1748 118.507 11.641 118.147 11.1553C117.713 10.2137 117.127 9.38327 116.282 8.77898C115.53 5.71673 113.298 3.71473 108.997 3.71473H108.83H108.66H108.493H108.323H108.156H107.985H107.818H107.648H107.481H107.31H107.144H102.891H102.725H102.554H102.387H102.32H102.154H101.983H101.816H101.646H101.479H101.308H101.142C91.61 3.71473 84.8775 10.4769 82.4418 17.1761L82.3786 17.3429L82.3157 17.5097L82.2526 17.6765L82.1897 17.8433L82.1265 18.0102L82.0636 18.177L82.0044 18.3439L81.9412 18.5107L81.8783 18.6775L81.8152 18.8443L81.7523 19.0112L69.796 51.8543C69.5365 51.8802 69.2696 51.8951 69.0138 51.8951H59.8939H59.7269H59.5566H59.3896H59.2192H59.0522H58.8818H58.7148H58.5444H58.3774H58.207H58.0403C49.9361 51.8951 41.5797 58.0752 38.5916 66.2758L38.5286 66.4426L38.4655 66.6095L38.4062 66.7763L38.3431 66.9431L38.2802 67.1099L38.2171 67.2768L38.1542 67.4436L38.091 67.6104L38.0281 67.7773L37.965 67.9441L37.9021 68.1109L37.0642 70.4132L37.0011 70.58L36.9381 70.7468L36.875 70.9137L36.8121 71.0805L36.749 71.2473L36.6861 71.4141L36.6268 71.581L36.5637 71.7478L36.5005 71.9146L36.4376 72.0815L36.3745 72.2483C34.7507 76.7045 35.7776 80.0337 38.2578 82.221C38.2875 82.2469 38.3061 82.2766 38.3284 82.3026C38.5731 83.1478 38.9475 83.9115 39.448 84.5974C39.8113 85.4278 40.297 86.1433 40.905 86.7624C41.1534 87.3778 41.4796 87.9414 41.8837 88.4604C42.2396 89.2315 42.6992 89.9026 43.2664 90.4772C43.5371 91.1371 43.893 91.7414 44.3379 92.2901C44.5195 92.6534 44.6603 93.0464 44.8902 93.3689C45.1238 95.9715 46.2028 98.2626 47.808 100.061H47.6596H47.4928H47.3222H47.1555H46.9848H46.8181H46.6475H46.4807H42.3138H42.1468H41.9764H41.8094H41.6391H41.4721H41.3017H41.1347H40.9643H40.7975H40.6269H40.4601C32.4931 100.061 23.8068 106.775 20.689 115.342L20.6258 115.509L20.5629 115.676L20.4998 115.843L20.4369 116.01L20.3738 116.176L20.3109 116.343L20.2477 116.51L20.1885 116.677L20.1253 116.844L20.0624 117.01L19.9993 117.177L1.28483 168.594L1.2217 168.761L1.15879 168.928L1.09566 169.095L1.03275 169.261L0.969624 169.428L0.906719 169.595L0.843587 169.762L0.780682 169.929L0.717551 170.096L0.658267 170.262L0.595135 170.429C-0.583793 173.673 0.0205934 176.532 2.12635 178.548C2.30801 178.767 2.46 179.008 2.66761 179.208C2.82331 179.753 3.02717 180.28 3.31634 180.765C3.68707 181.915 4.29885 182.923 5.24422 183.687C5.3851 184.017 5.54826 184.339 5.74474 184.643C6.1266 185.722 6.70861 186.675 7.60949 187.405C7.7652 187.772 7.95795 188.117 8.18039 188.454C8.4399 189.133 8.80333 189.741 9.26675 190.289C9.5967 195.339 13.1964 200.129 20.2181 200.129C20.2366 200.129 27.692 200.129 27.7106 200.129C33.3642 200.129 36.6675 196.566 39.1106 194.227C41.0866 192.332 41.9689 190.149 42.5027 188.343C42.7104 187.794 42.8365 187.286 42.9515 186.808C42.97 186.727 42.9997 186.641 43.0182 186.56C43.0405 186.478 43.0663 186.4 43.0886 186.319C43.1108 186.241 43.1331 186.171 43.1553 186.093C43.1961 185.963 43.2332 185.841 43.2703 185.715C43.2999 185.611 43.337 185.503 43.3667 185.403C43.4037 185.299 43.437 185.188 43.4667 185.088C43.5149 184.94 43.5556 184.803 43.6038 184.665C43.6483 184.55 43.6854 184.443 43.7262 184.335C43.7818 184.18 43.8375 184.028 43.8894 183.887L43.9523 183.72L44.0154 183.553L44.0783 183.386L44.1378 183.22L44.2007 183.053L44.2564 182.904L56.0567 196.184C57.5693 198.149 61.032 199.617 64.0979 199.617C65.1768 199.617 65.9219 200.136 66.6374 200.136H73.1698C77.4777 200.136 82.0006 198.446 85.771 195.591C87.1167 198.167 90.1196 200.136 95.929 200.136H103.696C105.624 200.136 108.108 199.606 110.929 198.549C112.642 197.908 114.403 196.64 115.882 195.569C117.287 197.837 119.737 200.132 124.168 200.132C124.186 200.132 131.137 200.132 131.16 200.132C138.756 200.132 144.176 193.452 147.023 185.737C147.394 186.278 147.898 186.749 148.488 187.186C148.799 188.48 149.444 189.685 150.593 190.645C151.101 194.849 153.574 200.136 162.709 200.136C162.709 200.136 168.496 200.136 168.515 200.136C174.268 200.136 180.623 195.209 184.122 185.666C184.493 186.2 184.971 186.682 185.553 187.116C185.854 188.365 186.48 189.533 187.57 190.486C188.034 194.734 190.569 200.136 200.149 200.136H207.404C209.31 200.136 210.834 199.228 213.603 198.219C219.16 196.206 223.016 190.883 224.951 185.574L225.014 185.407L225.077 185.24L225.136 185.073L225.2 184.906L225.263 184.74L225.326 184.573L225.389 184.406L225.452 184.239L225.515 184.072L225.578 183.905L225.641 183.739L225.704 183.572L225.767 183.405L225.826 183.238L225.889 183.071L225.952 182.904L226.015 182.738L226.078 182.571L226.141 182.404L226.204 182.237L226.267 182.07L226.33 181.903L234.905 158.347C236.195 154.807 238.019 151.422 238.323 147.885C238.327 147.833 238.331 147.781 238.335 147.729C238.342 147.651 238.372 147.574 238.379 147.496C238.716 143.737 239.043 140.081 237.185 136.945C236.663 136.07 235.962 134.883 235.028 133.712C234.95 133.56 234.924 133.393 234.831 133.245C234.312 132.37 233.608 131.18 232.674 130.012C232.596 129.86 232.57 129.693 232.481 129.545C231.932 128.626 231.202 127.369 230.201 126.145C230.123 126.001 230.097 125.841 230.008 125.7C229.489 124.833 228.792 123.661 227.873 122.508C227.787 122.342 227.754 122.16 227.657 121.997C227.057 120.996 226.275 119.598 225.11 118.275C225.066 118.223 225.029 118.178 224.981 118.126C224.944 118.082 224.907 118.045 224.87 118C224.829 117.952 224.792 117.908 224.751 117.859C224.714 117.815 224.681 117.774 224.643 117.73C224.595 117.682 224.558 117.633 224.514 117.581C224.477 117.541 224.447 117.504 224.414 117.463C224.365 117.411 224.332 117.363 224.28 117.311C224.243 117.27 224.217 117.233 224.184 117.192C224.135 117.14 224.099 117.092 224.05 117.04C224.013 116.999 223.983 116.962 223.95 116.922C222.779 115.628 221.229 114.401 219.082 113.685L218.145 113.311C217.607 113.092 216.991 112.843 216.313 112.595C214.708 111.854 212.795 111.186 210.326 111.186H210.159H209.988H209.822H209.651H209.484H209.314H209.147H208.976H208.809H208.639H208.472H198.31H198.143H197.973H197.806H197.636H197.469H197.298H197.131H196.961H196.794H196.624H196.457C190.881 111.186 185.031 112.643 179.173 115.435C179.151 115.424 179.121 115.413 179.099 115.402C179.051 115.376 178.999 115.35 178.951 115.324C178.899 115.294 178.847 115.268 178.791 115.242C178.743 115.212 178.691 115.19 178.643 115.164C178.572 115.123 178.491 115.086 178.42 115.046C178.335 114.99 178.22 114.942 178.131 114.89C178.05 114.838 177.953 114.79 177.868 114.738C177.831 114.716 177.794 114.697 177.761 114.675C176.693 113.926 175.317 113.188 173.534 112.803C173.297 112.74 173.056 112.647 172.804 112.558C172.43 112.428 172.007 112.28 171.543 112.135C170.431 111.631 169.097 111.194 167.432 111.194H167.265H167.095H166.928H166.757H166.591H166.42H166.253H166.083H165.916H165.745H165.578H155.776H155.61H155.439H155.272H155.102H154.935H154.764H154.597H154.427H154.26H154.089H153.923C149.444 111.194 145.392 112.469 142.723 113.314L141.755 113.618C141.444 113.7 141.132 113.83 140.817 113.926C140.658 113.481 140.454 113.07 140.194 112.706C140.183 112.691 140.176 112.68 140.165 112.665C140.154 112.651 140.15 112.636 140.139 112.621C140.128 112.606 140.113 112.591 140.102 112.573C140.094 112.562 140.09 112.547 140.083 112.536C140.072 112.525 140.065 112.51 140.053 112.495C140.042 112.48 140.042 112.462 140.031 112.45C140.02 112.432 140.005 112.417 139.991 112.399C139.987 112.391 139.983 112.38 139.976 112.373C139.972 112.365 139.965 112.354 139.961 112.347C139.942 112.313 139.92 112.276 139.905 112.243C139.642 111.794 139.364 111.357 139.067 110.942C138.926 110.749 138.686 110.634 138.522 110.46C138.352 109.93 138.14 109.429 137.833 109.003C137.825 108.992 137.814 108.98 137.811 108.969C137.796 108.954 137.792 108.932 137.781 108.917C137.77 108.903 137.755 108.884 137.744 108.869C137.736 108.858 137.729 108.843 137.722 108.832C137.711 108.814 137.696 108.799 137.685 108.78L137.681 108.777C137.677 108.769 137.673 108.758 137.67 108.751C137.666 108.743 137.659 108.739 137.655 108.732C137.347 108.187 137.014 107.657 136.65 107.156C136.517 106.967 136.276 106.86 136.116 106.693C135.942 106.155 135.727 105.651 135.416 105.221C135.408 105.21 135.401 105.203 135.393 105.192C135.382 105.177 135.375 105.154 135.364 105.136C135.349 105.121 135.338 105.103 135.323 105.084C135.315 105.077 135.316 105.058 135.308 105.051C135.297 105.04 135.497 105.028 135.494 105.014C135.482 105.002 135.675 104.988 135.679 104.973L136.109 103.786H135.89C135.838 103.786 135.508 104.265 135.479 104.213C135.475 104.205 135.312 104.487 135.308 104.48C135.297 104.465 135.212 104.598 135.201 104.584C135.175 104.535 135.112 104.561 135.086 104.517C134.919 104.242 134.7 104.053 134.515 103.79H144.628C150.071 103.79 154.964 102.76 159.309 101.796C164.514 100.58 169.471 97.9585 173.849 94.9927C174.083 94.8333 174.283 94.7258 174.498 94.6034C174.991 95.8491 175.714 96.8946 176.615 97.7287C177.861 101.603 181.231 103.786 185.22 103.786H222.983C227.109 103.786 230.805 102.934 234.112 102.318C238.327 101.455 242.383 99.3228 245.516 97.2949C246.261 96.8278 246.828 96.7055 247.466 96.2235C247.495 96.2532 247.521 96.2865 247.547 96.3199C249.167 100.517 253.342 103.79 258.488 103.79H264.597C272.586 103.79 279.601 96.053 282.733 87.9192C282.911 88.1713 283.119 88.4048 283.33 88.6384C283.597 89.1426 283.905 89.6097 284.265 90.0323C284.624 90.9406 285.128 91.7599 285.796 92.4791C285.855 92.5792 285.9 92.6868 285.966 92.7831C286.456 98.8261 291.327 103.79 297.681 103.79H305.096C309.363 103.79 313.879 101.977 317.642 99.0782C319.151 102.192 322.409 103.79 326.224 103.79H332.067C338.929 103.79 349.421 98.307 352.965 88.5716L356.561 78.699C356.094 79.9818 356.969 81.1088 357.999 82.0282C358.303 83.0403 358.418 83.9449 359.082 84.7457C359.379 85.3463 359.542 85.8949 359.968 86.3806C360.294 87.1888 360.643 87.9265 361.217 88.5864C361.503 89.1351 361.785 89.643 362.189 90.0953C362.53 90.9554 362.989 91.734 363.612 92.4235C363.69 92.5644 363.742 92.7127 363.831 92.8462C364.332 98.8594 369.151 103.786 375.431 103.786H381.274C389.245 103.786 398.357 96.2792 401.587 87.4075L401.649 87.2407L401.713 87.0738L401.775 86.907L401.839 86.7402L401.902 86.5734L401.961 86.4065L402.024 86.2397L402.087 86.0729L402.15 85.9061L402.213 85.7392L402.276 85.5724L402.339 85.4056L402.402 85.2387L402.465 85.0719L402.528 84.9051L402.591 84.7383L402.65 84.5714L402.713 84.4046L402.777 84.2377L402.839 84.0709L402.903 83.9041L402.965 83.7373L410.21 63.829L410.273 63.6622L410.336 63.4953L410.399 63.3285L410.462 63.1616L410.525 62.9948L410.588 62.828L410.651 62.6612L410.714 62.4943L410.777 62.3275L410.836 62.1607L410.899 61.9938L410.962 61.827L411.025 61.6602L411.088 61.4933L411.151 61.3265L411.214 61.1597L411.277 60.9929L411.34 60.8261L411.403 60.6592L411.466 60.4924L411.526 60.3255L411.589 60.1587C411.704 59.8732 411.733 59.61 411.826 59.3135ZM103.043 89.9211C103.329 90.4624 103.562 91.0333 103.918 91.5227C104.193 91.9008 104.541 92.2493 104.856 92.6126C105.253 93.5246 105.705 94.4181 106.272 95.2226C107.144 96.383 108.245 97.4618 109.513 98.4442C108.07 99.0596 106.665 99.7603 105.401 100.624C103.848 101.688 102.424 102.952 101.138 104.317C99.414 102 96.8448 100.153 93.3377 100.153H93.1707H93.0003H92.8333H92.6629H92.4959H92.3255H92.1585H91.9881H91.8214H91.6508H91.484H87.6875C91.1724 98.7408 94.5091 96.8241 97.5009 94.7888C99.7809 93.2058 101.553 91.582 103.043 89.9211ZM56.1606 103.864H68.2019C70.4708 103.864 72.6323 103.631 74.7232 103.323C74.3821 103.531 74.0448 103.723 73.7 103.957L60.3388 112.654C59.8531 111.194 59.0781 109.963 57.9622 109.077C57.4877 107.609 56.7351 106.356 55.6341 105.451C55.4339 104.824 55.1819 104.239 54.8742 103.697C55.3006 103.753 55.712 103.864 56.1606 103.864Z" fill="url(#paint0_linear_2883_378)"/>
<path d="M48.228 70.4928L49.7368 66.3406C50.4819 64.2942 51.9686 63.0819 54.015 63.0819H64.9851C67.1799 63.0819 69.2336 62.6815 70.735 62.3256C72.2847 61.966 73.7973 61.18 74.8465 60.4052C75.9809 59.5748 77.1822 58.5367 77.9311 57.2911C78.7393 56.0454 79.985 54.5328 80.6338 52.7533L93.5648 17.2224C94.31 15.1759 95.0441 14.883 97.0943 14.883H103.197C105.247 14.883 105.432 15.1759 104.683 17.2224L91.522 53.3762C90.1206 57.2318 89.2346 60.4942 87.4958 63.1635C85.8275 65.7771 84.4856 67.9089 82.1018 69.5734C79.744 71.175 76.9115 72.3613 73.6008 73.1324C70.3829 73.8443 66.5088 74.2039 62.0044 74.2039H49.9631C47.9203 74.2039 47.4828 72.543 48.228 70.4928ZM164.671 63.1635C166.41 60.4942 167.982 57.2318 169.383 53.3762L178.01 29.679C178.755 27.6288 177.695 26.005 175.652 26.005H169.895C167.845 26.005 163.926 27.6288 163.177 29.679L154.68 53.0202C153.924 55.0963 153.968 56.7869 153.134 58.0919C152.385 59.3375 151.881 60.3163 150.795 61.0244C149.764 61.7362 148.663 62.333 147.128 62.6296C145.616 62.8669 143.973 63.0782 141.838 63.0782H127.958C125.937 63.0782 124.298 62.8669 122.956 62.6296C121.703 62.333 120.803 61.7843 120.239 61.0725C119.664 60.3644 119.683 59.3634 119.712 58.1178C119.831 56.8091 120.558 55.1001 121.314 53.024L129.811 29.6826C130.556 27.6325 128.933 26.0087 126.89 26.0087H120.958C118.908 26.0087 115.727 27.6325 114.982 29.6826L106.355 53.3798C104.954 57.2354 104.587 60.4979 104.327 63.1672C104.142 65.7808 104.879 67.9125 106.051 69.5771C107.248 71.1787 109.31 72.3651 111.99 73.1362C114.7 73.848 118.396 74.2076 122.841 74.2076H138.505C143.017 74.2076 146.883 73.8517 150.101 73.1362C153.412 72.3651 156.241 71.175 158.606 69.5771C160.982 67.9125 163.01 65.7808 164.671 63.1635ZM179.096 74.2039H216.859C220.233 74.2039 223.039 73.9926 225.271 73.581C227.577 73.1065 229.509 72.3613 231.062 71.3566C232.678 70.3482 233.539 69.0396 234.536 67.438C235.559 65.7808 236.052 63.7603 236.916 61.3877L237.824 58.8963C238.751 56.3457 239.77 54.2066 239.978 52.4901C240.212 50.7106 240.178 49.2832 239.441 48.2192C238.725 47.0885 237.668 46.0542 235.885 45.5797C234.117 45.0421 231.892 44.5453 228.808 44.5453H202.653C201.466 44.5453 200.247 44.5453 199.883 44.0671C199.52 43.5925 199.153 42.9104 199.65 41.5424L200.462 39.318C200.914 38.0723 201.644 37.7609 202.352 37.2901C203.124 36.8118 204.314 37.1269 205.618 37.1269H217.037C219.087 37.1269 220.804 34.365 221.545 32.3185L222.509 29.679C223.254 27.6288 223.136 26.005 221.085 26.005H206.467C203.861 26.005 201.626 26.194 199.75 26.613C197.878 27.0245 196.272 27.6993 194.916 28.6483C193.588 29.5381 192.984 30.7207 191.976 32.2036C191.015 33.6866 190.741 35.4623 189.988 37.5347L188.661 41.1828C187.883 43.3182 186.771 45.1866 186.485 46.7882C186.278 48.3305 186.17 49.6392 186.73 50.7069C187.286 51.7746 187.846 53.454 189.306 53.9878C190.834 54.5217 192.495 55.6635 195.227 55.6635H222.272C223.873 55.6635 225.812 55.0259 226.291 55.5004C226.847 55.9157 227.707 56.1344 227.058 57.9139L226.476 59.5192C225.872 61.1801 224.652 61.9549 223.729 62.5481C222.802 63.1375 221.004 63.0819 219.221 63.0819H183.152C181.109 63.0819 179.831 65.4509 179.082 67.4936L177.992 70.4928C177.239 72.543 177.054 74.2039 179.096 74.2039ZM291.232 26.0087H283.431C281.381 26.0087 280.058 24.3144 280.803 22.268L283.057 16.0694C283.802 14.0192 283.461 11.1794 281.415 11.1794H275.305C273.255 11.1794 268.977 14.0229 268.232 16.0694L265.855 22.5942C265.173 24.4627 264.639 25.9753 262.771 25.9753C260.902 25.9753 260.368 27.4879 259.686 29.3564L258.229 33.3603C257.547 35.2251 256.983 36.7414 258.852 36.7414C260.72 36.7414 260.157 38.254 259.475 40.1188L248.423 70.4891C247.678 72.5393 250.318 74.2001 252.364 74.2001H258.474C260.524 74.2001 262.504 72.5393 263.249 70.4891L274.182 40.445C274.927 38.3948 277.333 37.1232 279.379 37.1232H287.18C289.23 37.1232 290.965 35.0731 291.714 33.0303L292.933 29.679C293.682 27.6325 293.282 26.0087 291.232 26.0087ZM318.873 29.716C319.619 27.6696 318.566 26.0087 316.516 26.0087H309.101C307.051 26.0087 304.789 27.6696 304.044 29.716L289.204 70.4965C288.459 72.543 289.511 74.2039 291.562 74.2039H298.976C301.026 74.2039 303.288 72.543 304.033 70.4965L318.873 29.716ZM320.067 11.1794H315.707C314.05 11.1794 312.771 10.8939 311.826 11.5464C310.958 12.1396 310.295 12.5363 309.776 13.9636L307.896 19.1279C307.377 20.5478 307.685 21.1299 308.1 21.7824C308.571 22.4348 310.002 22.3014 311.659 22.3014H316.019C317.743 22.3014 319.341 22.4348 320.234 21.7824C321.183 21.1262 322.21 20.5478 322.729 19.1279L324.609 13.9636C325.128 12.5363 324.453 12.1396 323.96 11.5464C323.545 10.8939 321.791 11.1794 320.067 11.1794ZM392.049 37.0973C392.305 34.4243 391.415 32.2889 390.217 30.6873C389.049 29.0301 386.892 27.8586 384.182 27.1431C381.498 26.372 377.687 26.005 373.175 26.005H357.07C352.625 26.005 348.784 26.372 345.537 27.1431C342.308 27.8549 339.509 29.0339 337.125 30.6948C334.759 32.2963 333.265 34.428 331.527 37.101C329.84 39.7703 328.854 43.029 327.448 46.8846L318.859 70.4928C318.114 72.543 318.05 74.2039 320.101 74.2039H325.943C327.993 74.2039 329.236 72.543 329.981 70.4928L338.411 47.3295C339.141 45.3127 340.398 43.6815 341.143 42.4358C341.981 41.1309 343.197 40.1225 344.283 39.4107C345.396 38.6433 346.853 37.9907 348.332 37.6941C349.855 37.3976 351.832 37.1344 353.911 37.1344H368.329C370.457 37.1344 372.114 37.3976 373.375 37.6941C374.687 37.9907 375.569 38.5877 376.059 39.3551C376.63 40.0669 376.874 41.1086 376.697 42.4099C376.596 43.6555 376.218 45.3164 375.488 47.3332L367.058 70.4965C366.312 72.5467 367.265 74.2076 369.304 74.2076H375.147C377.197 74.2076 381.138 72.5467 381.883 70.4965L390.473 46.8883C391.882 43.029 391.849 39.7666 392.049 37.0973ZM54.1596 144.013C52.9992 142.522 53.9892 139.864 56.247 138.396L87.3773 118.035C90.8288 115.8 90.8955 111.277 87.444 111.277H80.6967C79.7995 111.277 78.7281 111.826 77.8383 112.423L42.793 135.234C39.6233 137.332 35.6046 135.745 36.765 132.557L42.9969 115.437C43.7384 113.39 44.5429 111.277 42.4927 111.277H36.4758C34.4257 111.277 32.6164 113.39 31.8749 115.437L12.4893 168.703C11.7442 170.754 12.8378 170.594 14.8843 170.594H20.9014C22.9516 170.594 22.8625 170.75 23.6077 168.703L30.062 150.96C31.2224 147.776 36.4424 146.074 38.081 148.172L56.955 170.583C57.411 171.176 58.9125 170.594 59.8133 170.594H67.0612C70.4868 170.594 73.2969 167.261 71.5433 165.007L54.1596 144.013ZM118.793 107.57H114.433C112.769 107.57 110.848 108.196 109.896 108.849C109.028 109.442 107.719 110.747 107.2 112.174L105.321 117.338C104.802 118.758 105.084 120.282 105.495 120.938C105.973 121.591 107.371 122.403 109.035 122.403H113.395C115.119 122.403 116.732 121.591 117.625 120.938C118.582 120.282 119.635 118.758 120.154 117.338L122.033 112.174C122.552 110.747 122.526 109.442 122.026 108.849C121.611 108.196 120.517 107.57 118.793 107.57ZM112.969 126.106H106.859C104.817 126.106 101.776 127.089 101.031 129.139L86.6321 168.703C85.887 170.754 88.623 170.594 90.6657 170.594H96.7754C98.8256 170.594 100.716 170.75 101.461 168.703L115.861 129.139C116.606 127.089 115.019 126.106 112.969 126.106ZM215.736 128.368C214.887 126.944 213.812 125.013 211.851 124.356C209.915 123.648 207.676 122.399 204.469 122.399H192.458C187.716 122.399 183.567 124.004 180.679 125.428C179.289 126.103 177.854 127.4 176.694 128.442C175.545 129.465 173.283 129.721 172.909 128.675C172.586 127.611 171.882 126.859 170.874 126.206C169.943 125.495 168.957 124.123 167.315 123.767C165.72 123.411 164.011 122.395 161.579 122.395H149.927C146.72 122.395 143.569 123.645 141.111 124.353C138.679 125.009 136.366 126.492 134.479 127.915C132.599 129.339 131.116 131.374 129.722 133.565C128.354 135.701 127.287 138.474 126.208 141.443L116.287 168.7C115.542 170.75 116.78 170.59 118.83 170.59H124.317C126.36 170.59 126.664 170.746 127.409 168.7L136.614 143.401C137.715 140.376 139.339 139.156 140.8 138.088C142.331 136.961 144.796 137.228 147.462 137.228H155.918C157.931 137.228 159.837 136.546 161.038 136.843C162.254 137.08 163.255 137.11 163.726 137.766C164.282 138.359 164.041 138.952 163.908 139.961C163.859 140.91 163.107 141.918 162.569 143.405L153.364 168.703C152.619 170.754 155.399 170.594 157.449 170.594H161.694C163.737 170.594 163.744 170.75 164.489 168.703L173.695 143.405C174.236 141.922 175.626 140.702 176.268 139.757C176.931 138.752 178.129 137.951 179.052 137.358C180.057 136.702 181.135 137.087 182.466 136.85C183.879 136.553 185.462 137.236 187.423 137.236H196.046C198.601 137.236 199.809 136.972 200.521 138.096C201.322 139.163 200.747 140.383 199.646 143.408L190.441 168.707C189.696 170.757 192.858 170.598 194.908 170.598H200.484C202.534 170.598 204.525 170.754 205.27 168.707L215.191 141.451C216.27 138.481 216.704 135.934 216.889 133.799C217.089 131.6 216.577 129.791 215.736 128.368Z" fill="#F0F0F0"/>
<path d="M322.252 136.303C322.24 136.285 322.222 136.27 322.211 136.248C322.2 136.229 322.188 136.211 322.177 136.192C322.166 136.177 322.159 136.166 322.152 136.151C322.122 136.103 322.088 136.059 322.062 136.011C322.051 135.996 322.044 135.981 322.033 135.962C322.018 135.944 322.007 135.925 321.996 135.907C321.981 135.884 321.97 135.866 321.959 135.847C321.948 135.825 321.933 135.81 321.922 135.788C321.911 135.769 321.896 135.751 321.888 135.729C321.877 135.718 321.87 135.707 321.859 135.692C321.833 135.643 321.799 135.599 321.77 135.551C321.77 135.54 321.758 135.532 321.751 135.521C321.725 135.473 321.692 135.428 321.666 135.38C321.655 135.365 321.644 135.351 321.632 135.332C321.621 135.314 321.61 135.295 321.599 135.276C321.588 135.262 321.581 135.251 321.573 135.236C321.544 135.187 321.51 135.143 321.484 135.095C321.481 135.084 321.473 135.076 321.466 135.065C321.44 135.017 321.402 134.972 321.377 134.924C321.369 134.906 321.354 134.895 321.347 134.876C321.336 134.858 321.321 134.839 321.314 134.817C321.303 134.806 321.295 134.794 321.284 134.78C321.258 134.731 321.225 134.687 321.195 134.639C321.195 134.628 321.184 134.62 321.177 134.609C321.151 134.561 321.117 134.516 321.091 134.468C321.087 134.457 321.076 134.45 321.069 134.439C321.047 134.398 321.017 134.361 320.995 134.316C320.965 134.272 320.935 134.231 320.91 134.186C320.906 134.175 320.898 134.168 320.891 134.157C320.865 134.109 320.828 134.064 320.802 134.016C320.798 134.005 320.791 133.997 320.783 133.986C320.758 133.946 320.732 133.908 320.706 133.868C320.691 133.842 320.68 133.819 320.665 133.793C320.639 133.76 320.617 133.727 320.594 133.693C320.568 133.649 320.535 133.608 320.513 133.564C320.509 133.553 320.498 133.545 320.491 133.534C320.468 133.493 320.439 133.456 320.416 133.412C320.402 133.389 320.387 133.367 320.372 133.345C320.35 133.308 320.324 133.274 320.305 133.245C320.275 133.197 320.246 133.156 320.22 133.111C320.216 133.1 320.209 133.093 320.201 133.082C320.176 133.041 320.15 133.004 320.124 132.963C320.109 132.937 320.098 132.915 320.083 132.889C320.057 132.856 320.035 132.822 320.012 132.789C320.001 132.767 319.986 132.744 319.972 132.722C319.949 132.685 319.923 132.652 319.901 132.622C319.879 132.581 319.853 132.544 319.831 132.507C319.816 132.485 319.801 132.463 319.786 132.44C319.764 132.403 319.738 132.37 319.72 132.34C319.705 132.314 319.69 132.292 319.679 132.266C319.653 132.233 319.627 132.199 319.608 132.166C319.593 132.144 319.579 132.121 319.567 132.099C319.556 132.077 319.538 132.062 319.527 132.04C319.516 132.021 319.504 132.003 319.493 131.981C319.467 131.947 319.445 131.914 319.423 131.881C319.412 131.858 319.397 131.836 319.382 131.814C319.36 131.777 319.334 131.743 319.312 131.714C319.301 131.688 319.286 131.666 319.271 131.64C319.26 131.621 319.245 131.606 319.234 131.584C319.223 131.565 319.212 131.547 319.197 131.528C319.175 131.491 319.149 131.458 319.13 131.428C319.115 131.402 319.1 131.38 319.089 131.354C319.063 131.321 319.037 131.287 319.019 131.254C319.004 131.232 318.989 131.209 318.978 131.187C318.967 131.165 318.948 131.15 318.937 131.128C318.926 131.109 318.915 131.091 318.904 131.069C318.889 131.05 318.878 131.032 318.867 131.009C318.856 130.991 318.837 130.976 318.826 130.954C318.815 130.935 318.804 130.917 318.793 130.898C318.77 130.861 318.744 130.828 318.722 130.798C318.711 130.772 318.696 130.75 318.681 130.724C318.67 130.705 318.655 130.69 318.644 130.668C318.633 130.65 318.622 130.631 318.607 130.613C315.315 124.9 309.187 121.359 301.005 121.359C284.652 121.359 266.197 135.495 259.876 152.871C256.706 161.584 257.177 169.476 260.495 175.189C260.506 175.212 260.521 175.227 260.532 175.249C260.543 175.267 260.558 175.286 260.566 175.308C260.577 175.319 260.584 175.33 260.595 175.345C260.621 175.393 260.654 175.438 260.684 175.486C260.692 175.505 260.703 175.516 260.714 175.534C260.725 175.553 260.736 175.571 260.747 175.594C260.762 175.612 260.773 175.631 260.784 175.653C260.795 175.671 260.814 175.686 260.825 175.708C260.836 175.727 260.847 175.746 260.858 175.764C260.869 175.779 260.877 175.79 260.884 175.805C260.914 175.853 260.947 175.898 260.973 175.946C260.977 175.957 260.984 175.964 260.992 175.975C261.021 176.024 261.055 176.068 261.081 176.116C261.088 176.135 261.099 176.146 261.11 176.164C261.122 176.183 261.136 176.202 261.144 176.224C261.155 176.235 261.162 176.246 261.174 176.261C261.199 176.309 261.233 176.354 261.262 176.402C261.266 176.413 261.274 176.42 261.281 176.431C261.307 176.48 261.34 176.524 261.37 176.572C261.377 176.587 261.392 176.602 261.4 176.62C261.411 176.639 261.422 176.658 261.433 176.676C261.444 176.691 261.451 176.702 261.459 176.717C261.489 176.765 261.522 176.81 261.548 176.858C261.552 176.869 261.559 176.876 261.566 176.887C261.596 176.936 261.63 176.98 261.656 177.028C261.659 177.039 261.666 177.047 261.674 177.058C261.696 177.099 261.726 177.136 261.752 177.177C261.778 177.225 261.811 177.266 261.837 177.31C261.841 177.321 261.848 177.329 261.856 177.34C261.881 177.388 261.915 177.432 261.945 177.481C261.945 177.492 261.956 177.499 261.963 177.51C261.989 177.551 262.015 177.588 262.037 177.633C262.052 177.655 262.067 177.677 262.082 177.699C262.104 177.736 262.13 177.77 262.152 177.799C262.178 177.848 262.208 177.888 262.234 177.933C262.237 177.944 262.245 177.951 262.252 177.963C262.274 178.003 262.304 178.04 262.33 178.081C262.345 178.107 262.356 178.129 262.371 178.155C262.397 178.189 262.419 178.222 262.441 178.255C262.467 178.3 262.501 178.341 262.527 178.385C262.527 178.396 262.538 178.404 262.545 178.415C262.571 178.456 262.597 178.493 262.619 178.537C262.634 178.559 262.649 178.582 262.664 178.604C262.686 178.641 262.712 178.674 262.734 178.704C262.745 178.73 262.76 178.752 262.771 178.778C262.797 178.812 262.823 178.845 262.842 178.878C262.864 178.915 262.894 178.952 262.916 178.986C262.931 179.012 262.942 179.034 262.957 179.06C262.983 179.093 263.005 179.127 263.027 179.16C263.038 179.182 263.053 179.204 263.068 179.227C263.09 179.264 263.116 179.297 263.138 179.327C263.149 179.353 263.164 179.375 263.179 179.401C263.19 179.42 263.205 179.434 263.216 179.457C263.227 179.475 263.242 179.494 263.253 179.512C263.275 179.549 263.301 179.583 263.324 179.612C263.335 179.638 263.35 179.66 263.361 179.686C263.387 179.72 263.413 179.753 263.431 179.787C263.446 179.809 263.461 179.831 263.476 179.853C263.483 179.875 263.502 179.89 263.513 179.913C263.524 179.931 263.535 179.95 263.546 179.972C263.572 180.005 263.594 180.039 263.617 180.072C263.628 180.094 263.643 180.116 263.657 180.139C263.68 180.176 263.706 180.209 263.728 180.239C263.739 180.265 263.754 180.287 263.768 180.313C263.78 180.332 263.794 180.346 263.806 180.369C263.817 180.387 263.832 180.406 263.843 180.424C263.858 180.446 263.869 180.465 263.88 180.484C263.891 180.506 263.906 180.521 263.917 180.543C263.928 180.561 263.939 180.58 263.95 180.602C263.976 180.636 264.002 180.669 264.021 180.702C264.036 180.724 264.05 180.747 264.065 180.769C264.073 180.791 264.091 180.806 264.102 180.828C264.113 180.847 264.124 180.865 264.136 180.888C267.431 186.597 273.56 190.137 281.742 190.137C298.095 190.137 316.546 176.001 322.871 158.625C326.044 149.913 325.566 142.02 322.252 136.303Z" fill="url(#paint1_linear_2883_378)"/>
<path d="M311.828 152.91C306.983 166.22 293.099 177.007 280.813 177.007C268.527 177.007 262.499 166.22 267.34 152.91C272.182 139.601 286.066 128.812 298.352 128.812C310.638 128.812 316.67 139.601 311.828 152.91Z" fill="#F0F0F0"/>
<path d="M404.685 133.318C404.674 133.303 404.663 133.288 404.651 133.27C404.64 133.251 404.633 133.236 404.622 133.222C404.614 133.207 404.603 133.199 404.596 133.188C404.57 133.147 404.54 133.107 404.518 133.062C404.511 133.051 404.503 133.036 404.492 133.021C404.481 133.007 404.47 132.992 404.462 132.973C404.451 132.951 404.436 132.94 404.429 132.921C404.418 132.903 404.407 132.888 404.396 132.869C404.384 132.851 404.373 132.836 404.366 132.818C404.355 132.81 404.351 132.803 404.34 132.788C404.314 132.751 404.288 132.706 404.262 132.662C404.262 132.654 404.251 132.647 404.244 132.636C404.218 132.595 404.195 132.551 404.17 132.51C404.158 132.495 404.147 132.484 404.14 132.469C404.129 132.454 404.121 132.436 404.11 132.421C404.103 132.406 404.095 132.399 404.088 132.387C404.066 132.343 404.032 132.302 404.01 132.261C404.003 132.254 403.999 132.247 403.991 132.235C403.965 132.195 403.936 132.154 403.914 132.109C403.906 132.095 403.895 132.083 403.888 132.069C403.877 132.054 403.869 132.035 403.858 132.017C403.851 132.006 403.843 132.002 403.832 131.987C403.806 131.95 403.78 131.906 403.754 131.861C403.754 131.854 403.743 131.846 403.736 131.835C403.71 131.794 403.687 131.75 403.662 131.709C403.654 131.702 403.647 131.694 403.639 131.683C403.621 131.65 403.595 131.613 403.573 131.576C403.55 131.539 403.524 131.498 403.498 131.461C403.491 131.453 403.487 131.446 403.48 131.435C403.454 131.394 403.421 131.353 403.402 131.309C403.398 131.301 403.391 131.294 403.387 131.283C403.369 131.246 403.339 131.212 403.317 131.179C403.306 131.157 403.295 131.138 403.28 131.116C403.258 131.086 403.239 131.057 403.221 131.027C403.198 130.99 403.165 130.949 403.146 130.912C403.143 130.905 403.132 130.897 403.124 130.886C403.106 130.853 403.083 130.816 403.061 130.778C403.05 130.76 403.035 130.741 403.02 130.723C402.998 130.693 402.98 130.66 402.961 130.634C402.935 130.593 402.905 130.556 402.883 130.515C402.879 130.508 402.872 130.5 402.868 130.489C402.85 130.452 402.82 130.419 402.798 130.386C402.787 130.363 402.776 130.345 402.761 130.322C402.738 130.293 402.72 130.263 402.701 130.234C402.69 130.215 402.679 130.196 402.664 130.174C402.642 130.145 402.624 130.115 402.605 130.085C402.583 130.048 402.564 130.015 402.542 129.981C402.531 129.963 402.516 129.944 402.501 129.926C402.479 129.896 402.46 129.863 402.442 129.837C402.431 129.815 402.416 129.796 402.408 129.774C402.382 129.744 402.364 129.714 402.345 129.685C402.334 129.663 402.32 129.648 402.308 129.626C402.301 129.607 402.282 129.596 402.271 129.574C402.264 129.559 402.257 129.54 402.245 129.522C402.223 129.488 402.201 129.462 402.182 129.433C402.171 129.414 402.16 129.396 402.145 129.373C402.123 129.344 402.101 129.314 402.086 129.284C402.075 129.262 402.064 129.24 402.049 129.218C402.038 129.203 402.027 129.192 402.016 129.17C402.004 129.155 401.993 129.14 401.982 129.121C401.96 129.092 401.941 129.058 401.923 129.032C401.912 129.01 401.897 128.992 401.89 128.969C401.864 128.94 401.845 128.91 401.826 128.88C401.815 128.858 401.8 128.843 401.789 128.821C401.782 128.802 401.764 128.791 401.752 128.769C401.745 128.754 401.738 128.736 401.726 128.717C401.715 128.699 401.704 128.684 401.693 128.665C401.682 128.647 401.667 128.636 401.656 128.617C401.649 128.602 401.637 128.587 401.626 128.569C401.608 128.536 401.582 128.51 401.567 128.48C401.556 128.458 401.545 128.439 401.53 128.413C401.519 128.398 401.508 128.387 401.497 128.365C401.485 128.35 401.474 128.335 401.463 128.317C397.934 123.712 393.174 120.172 385.97 120.172C371.578 120.172 355.337 132.614 349.772 147.903C346.98 155.569 347.855 162.28 350.317 167.544C350.324 167.563 350.339 167.577 350.35 167.596C350.358 167.611 350.373 167.629 350.376 167.648C350.387 167.659 350.395 167.666 350.406 167.681C350.432 167.718 350.458 167.763 350.484 167.807C350.487 167.822 350.499 167.833 350.51 167.848C350.517 167.863 350.528 167.878 350.536 167.9C350.551 167.915 350.558 167.933 350.569 167.952C350.576 167.97 350.595 167.981 350.606 168C350.617 168.015 350.625 168.033 350.636 168.048C350.647 168.059 350.651 168.07 350.658 168.082C350.684 168.122 350.717 168.163 350.736 168.208C350.74 168.215 350.747 168.222 350.754 168.234C350.78 168.274 350.806 168.315 350.832 168.356C350.836 168.371 350.847 168.382 350.855 168.397C350.866 168.411 350.881 168.43 350.884 168.449C350.895 168.456 350.903 168.463 350.914 168.478C350.94 168.515 350.966 168.56 350.992 168.604C350.992 168.612 350.999 168.619 351.006 168.63C351.032 168.671 351.062 168.712 351.084 168.753C351.092 168.767 351.103 168.779 351.11 168.793C351.121 168.808 351.129 168.827 351.14 168.842C351.151 168.853 351.155 168.864 351.162 168.875C351.188 168.916 351.222 168.957 351.24 169.001C351.244 169.008 351.251 169.016 351.259 169.027C351.284 169.068 351.311 169.108 351.337 169.153C351.337 169.16 351.344 169.168 351.351 169.179C351.37 169.212 351.396 169.249 351.418 169.283C351.44 169.323 351.47 169.361 351.496 169.401C351.496 169.409 351.503 169.416 351.511 169.427C351.537 169.468 351.563 169.509 351.589 169.553C351.589 169.561 351.596 169.568 351.603 169.579C351.626 169.613 351.644 169.65 351.67 169.687C351.685 169.705 351.696 169.728 351.707 169.746C351.729 169.779 351.752 169.805 351.77 169.835C351.796 169.876 351.819 169.913 351.848 169.954C351.848 169.961 351.855 169.969 351.863 169.98C351.881 170.013 351.907 170.05 351.93 170.084C351.944 170.106 351.952 170.124 351.967 170.147C351.989 170.176 352.011 170.206 352.03 170.236C352.052 170.273 352.082 170.313 352.107 170.35C352.107 170.358 352.115 170.365 352.122 170.376C352.145 170.41 352.167 170.447 352.189 170.484C352.2 170.502 352.215 170.521 352.226 170.54C352.249 170.573 352.274 170.599 352.289 170.628C352.3 170.651 352.308 170.673 352.323 170.695C352.341 170.725 352.363 170.755 352.382 170.784C352.401 170.818 352.43 170.847 352.449 170.881C352.464 170.903 352.471 170.921 352.486 170.944C352.508 170.973 352.527 171.003 352.545 171.033C352.556 171.051 352.571 171.07 352.582 171.092C352.604 171.125 352.63 171.151 352.645 171.181C352.656 171.203 352.671 171.222 352.682 171.244C352.69 171.259 352.704 171.274 352.716 171.292C352.723 171.307 352.738 171.322 352.745 171.34C352.764 171.374 352.79 171.403 352.808 171.429C352.819 171.452 352.827 171.47 352.842 171.492C352.86 171.522 352.883 171.552 352.901 171.581C352.912 171.604 352.931 171.618 352.942 171.641C352.949 171.659 352.964 171.67 352.975 171.692C352.982 171.707 352.994 171.722 353.005 171.744C353.023 171.774 353.045 171.804 353.064 171.833C353.075 171.852 353.09 171.87 353.101 171.893C353.123 171.926 353.149 171.952 353.164 171.982C353.175 172.004 353.19 172.022 353.201 172.045C353.209 172.06 353.223 172.074 353.235 172.093C353.242 172.108 353.257 172.123 353.264 172.141C353.275 172.163 353.287 172.178 353.298 172.193C353.309 172.212 353.32 172.226 353.331 172.245C353.338 172.26 353.349 172.275 353.361 172.297C353.379 172.326 353.401 172.356 353.42 172.386C353.431 172.408 353.45 172.423 353.461 172.445C353.468 172.464 353.483 172.475 353.494 172.497C353.502 172.512 353.513 172.53 353.524 172.549C356.467 177.55 361.817 180.69 369.02 180.69C383.412 180.69 399.65 168.248 405.219 152.959C408.018 145.296 407.754 138.252 404.685 133.318Z" fill="url(#paint2_linear_2883_378)"/>
<path d="M395.506 147.932C391.246 159.647 379.027 169.142 368.209 169.142C357.398 169.142 352.089 159.647 356.357 147.932C360.616 136.221 372.836 126.723 383.65 126.723C394.464 126.723 399.769 136.221 395.506 147.932Z" fill="#F0F0F0"/>
<path d="M486.95 116.086C486.943 116.071 486.932 116.06 486.921 116.042C486.913 116.027 486.902 116.016 486.895 116.001C486.887 115.99 486.88 115.979 486.873 115.967C486.85 115.93 486.828 115.897 486.806 115.864C486.798 115.853 486.795 115.841 486.784 115.827C486.772 115.812 486.761 115.797 486.754 115.782C486.743 115.767 486.732 115.752 486.724 115.738C486.717 115.723 486.709 115.712 486.698 115.693C486.691 115.678 486.683 115.663 486.672 115.649C486.665 115.641 486.657 115.63 486.65 115.619C486.628 115.582 486.606 115.549 486.58 115.515C486.58 115.504 486.568 115.5 486.565 115.493C486.546 115.456 486.524 115.415 486.498 115.385C486.487 115.374 486.48 115.363 486.472 115.348C486.465 115.334 486.457 115.322 486.446 115.308C486.439 115.296 486.435 115.285 486.428 115.274C486.405 115.237 486.376 115.207 486.357 115.17C486.354 115.159 486.346 115.156 486.342 115.148C486.324 115.111 486.294 115.074 486.272 115.041C486.265 115.026 486.257 115.018 486.25 115.004C486.242 114.989 486.227 114.974 486.224 114.959C486.216 114.952 486.209 114.944 486.202 114.929C486.176 114.896 486.157 114.859 486.131 114.826C486.131 114.814 486.124 114.814 486.116 114.803C486.09 114.77 486.072 114.729 486.05 114.696C486.046 114.688 486.038 114.681 486.035 114.674C486.016 114.64 485.994 114.611 485.975 114.581C485.957 114.548 485.927 114.518 485.909 114.485C485.905 114.473 485.901 114.473 485.894 114.462C485.868 114.429 485.846 114.388 485.823 114.355C485.82 114.347 485.816 114.34 485.812 114.333C485.794 114.299 485.768 114.27 485.753 114.244C485.738 114.221 485.731 114.206 485.72 114.188C485.701 114.162 485.683 114.136 485.664 114.11C485.645 114.077 485.619 114.043 485.601 114.014C485.597 114.006 485.59 113.999 485.583 113.991C485.568 113.958 485.549 113.928 485.53 113.899C485.519 113.88 485.504 113.865 485.493 113.847C485.479 113.821 485.456 113.795 485.442 113.769C485.419 113.732 485.397 113.699 485.375 113.669C485.375 113.662 485.367 113.658 485.36 113.647C485.338 113.617 485.319 113.587 485.301 113.558C485.289 113.539 485.286 113.521 485.271 113.498C485.256 113.476 485.234 113.45 485.219 113.421C485.212 113.406 485.201 113.387 485.189 113.369C485.175 113.343 485.152 113.317 485.134 113.291C485.115 113.261 485.093 113.235 485.078 113.206C485.071 113.187 485.06 113.172 485.048 113.154C485.03 113.124 485.015 113.102 484.997 113.076C484.982 113.057 484.978 113.039 484.967 113.02C484.948 112.99 484.926 112.968 484.911 112.942C484.904 112.927 484.886 112.909 484.878 112.894C484.871 112.876 484.856 112.864 484.848 112.85C484.841 112.835 484.833 112.82 484.826 112.801C484.804 112.779 484.789 112.753 484.77 112.724C484.759 112.709 484.752 112.694 484.737 112.672C484.719 112.649 484.7 112.623 484.685 112.594C484.678 112.575 484.663 112.557 484.656 112.538C484.648 112.523 484.633 112.512 484.626 112.497C484.618 112.483 484.607 112.471 484.596 112.453C484.578 112.431 484.559 112.401 484.548 112.375C484.537 112.357 484.526 112.338 484.515 112.319C484.5 112.294 484.481 112.268 484.463 112.242C484.452 112.227 484.44 112.208 484.433 112.193C484.426 112.175 484.411 112.167 484.4 112.149C484.392 112.134 484.385 112.119 484.374 112.101C484.366 112.09 484.359 112.075 484.348 112.056C484.341 112.041 484.322 112.03 484.314 112.015C484.307 112.001 484.3 111.986 484.292 111.971C484.277 111.945 484.251 111.923 484.237 111.893C484.225 111.878 484.218 111.856 484.207 111.838C484.196 111.823 484.188 111.815 484.177 111.797C484.17 111.782 484.159 111.767 484.151 111.752C481.775 107.341 476.989 104.719 470.772 104.719C458.337 104.719 444.309 115.467 439.504 128.676C437.094 135.297 437.591 141.225 439.975 145.641C439.982 145.656 439.994 145.667 440.005 145.685C440.012 145.7 440.019 145.711 440.027 145.73C440.034 145.737 440.042 145.748 440.049 145.759C440.071 145.793 440.094 145.83 440.12 145.863C440.123 145.878 440.134 145.882 440.145 145.9C440.153 145.915 440.16 145.93 440.168 145.945C440.179 145.96 440.19 145.975 440.197 145.989C440.205 146.004 440.22 146.015 440.227 146.034C440.235 146.049 440.242 146.06 440.253 146.075C440.26 146.086 440.264 146.097 440.271 146.108C440.294 146.141 440.32 146.178 440.346 146.212C440.346 146.223 440.353 146.227 440.357 146.234C440.379 146.271 440.405 146.308 440.427 146.342C440.435 146.356 440.442 146.364 440.45 146.379C440.457 146.393 440.472 146.405 440.475 146.423C440.486 146.431 440.49 146.442 440.498 146.453C440.516 146.486 440.55 146.52 440.568 146.557C440.572 146.568 440.576 146.568 440.583 146.579C440.609 146.612 440.635 146.649 440.653 146.686C440.657 146.697 440.672 146.709 440.676 146.723C440.683 146.738 440.694 146.749 440.702 146.764C440.709 146.775 440.716 146.786 440.72 146.798C440.739 146.835 440.772 146.864 440.791 146.901C440.794 146.912 440.798 146.916 440.805 146.924C440.831 146.957 440.854 146.998 440.876 147.031C440.88 147.039 440.883 147.046 440.887 147.053C440.905 147.083 440.931 147.116 440.946 147.142C440.968 147.179 440.998 147.209 441.017 147.242C441.02 147.254 441.024 147.257 441.028 147.265C441.05 147.302 441.076 147.339 441.102 147.372C441.102 147.38 441.109 147.387 441.117 147.394C441.139 147.42 441.154 147.457 441.172 147.487C441.184 147.506 441.195 147.52 441.206 147.539C441.221 147.565 441.243 147.591 441.258 147.617C441.28 147.654 441.302 147.687 441.324 147.717C441.324 147.724 441.332 147.728 441.339 147.739C441.358 147.765 441.38 147.798 441.399 147.828C441.41 147.847 441.417 147.865 441.428 147.884C441.447 147.91 441.465 147.936 441.48 147.962C441.499 147.995 441.525 148.028 441.547 148.058C441.547 148.065 441.558 148.073 441.562 148.08C441.58 148.114 441.606 148.14 441.621 148.173C441.628 148.191 441.643 148.206 441.654 148.225C441.673 148.251 441.688 148.277 441.706 148.303C441.717 148.321 441.725 148.34 441.736 148.358C441.754 148.384 441.773 148.41 441.788 148.436C441.803 148.466 441.829 148.495 441.843 148.518C441.858 148.54 441.866 148.555 441.877 148.573C441.895 148.599 441.91 148.625 441.929 148.651C441.94 148.666 441.951 148.681 441.962 148.699C441.981 148.725 441.999 148.751 442.014 148.777C442.021 148.796 442.036 148.814 442.044 148.833C442.051 148.848 442.066 148.859 442.073 148.874C442.081 148.888 442.096 148.903 442.103 148.918C442.118 148.944 442.14 148.966 442.155 148.996C442.162 149.015 442.173 149.033 442.184 149.052C442.199 149.078 442.218 149.104 442.236 149.129C442.248 149.144 442.262 149.159 442.27 149.178C442.281 149.192 442.288 149.204 442.299 149.222C442.307 149.237 442.314 149.252 442.325 149.27C442.34 149.293 442.362 149.319 442.377 149.348C442.385 149.363 442.399 149.382 442.407 149.396C442.425 149.426 442.448 149.448 442.463 149.474C442.474 149.489 442.485 149.508 442.496 149.53C442.503 149.545 442.511 149.552 442.522 149.571C442.529 149.585 442.537 149.6 442.548 149.615C442.559 149.63 442.57 149.645 442.577 149.66C442.585 149.678 442.6 149.689 442.607 149.704C442.615 149.719 442.622 149.734 442.629 149.749C442.648 149.775 442.666 149.8 442.685 149.826C442.696 149.841 442.711 149.856 442.718 149.875C442.73 149.889 442.741 149.904 442.748 149.919C442.755 149.934 442.763 149.949 442.77 149.967C444.958 154.472 449.94 156.996 456.157 156.996C468.588 156.996 482.613 146.249 487.421 133.04C489.831 126.43 489.334 120.502 486.95 116.086Z" fill="url(#paint3_linear_2883_378)"/>
<path d="M479.022 128.709C475.337 138.826 464.786 147.026 455.443 147.026C446.101 147.026 441.522 138.822 445.2 128.709C448.885 118.591 459.436 110.391 468.775 110.391C478.114 110.391 482.707 118.591 479.022 128.709Z" fill="#F0F0F0"/>
<path d="M469.646 60.7372C469.642 60.7261 469.627 60.7149 469.62 60.7001C469.613 60.689 469.609 60.6779 469.598 60.6668C469.59 60.6594 469.587 60.6482 469.583 60.6408C469.568 60.6075 469.546 60.5815 469.524 60.5518C469.516 60.5444 469.513 60.5333 469.505 60.5222C469.494 60.5111 469.49 60.4999 469.479 60.4851C469.472 60.474 469.464 60.4629 469.457 60.448C469.45 60.4332 469.442 60.4258 469.435 60.411C469.427 60.3999 469.416 60.385 469.412 60.3739C469.405 60.3702 469.398 60.3591 469.394 60.3517C469.379 60.3183 469.353 60.2923 469.335 60.2627C469.335 60.2553 469.327 60.2515 469.324 60.2441C469.305 60.2145 469.287 60.1811 469.264 60.1515C469.257 60.144 469.253 60.1366 469.242 60.1218C469.234 60.1107 469.231 60.0958 469.22 60.0884C469.216 60.081 469.212 60.0699 469.205 60.0625C469.183 60.0328 469.168 60.0031 469.145 59.9735C469.145 59.9661 469.138 59.9624 469.134 59.955C469.116 59.9253 469.09 59.8956 469.075 59.8623C469.071 59.8511 469.06 59.8438 469.057 59.8326C469.049 59.8215 469.038 59.8067 469.034 59.7956C469.027 59.7919 469.023 59.7807 469.016 59.7733C468.994 59.7436 468.979 59.714 468.957 59.6843C468.957 59.6769 468.949 59.6732 468.945 59.6658C468.927 59.6361 468.908 59.6027 468.886 59.5731C468.886 59.5694 468.879 59.562 468.875 59.5546C468.86 59.5286 468.841 59.5026 468.827 59.4767C468.808 59.447 468.79 59.4211 468.767 59.3952C468.767 59.3878 468.76 59.384 468.756 59.3766C468.738 59.347 468.716 59.3136 468.697 59.284C468.697 59.2803 468.693 59.2765 468.686 59.2654C468.667 59.2395 468.653 59.2135 468.638 59.1876C468.627 59.169 468.619 59.1542 468.612 59.143C468.597 59.1208 468.578 59.0986 468.563 59.0764C468.545 59.0504 468.526 59.0207 468.508 58.9948C468.508 58.9911 468.5 58.9836 468.497 58.9762C468.482 58.9503 468.463 58.9243 468.449 58.8984C468.441 58.8836 468.426 58.8724 468.419 58.8576C468.404 58.8354 468.389 58.8131 468.378 58.7908C468.36 58.7612 468.341 58.7316 468.323 58.7056C468.319 58.7019 468.315 58.6982 468.308 58.687C468.289 58.6611 468.278 58.6352 468.259 58.6092C468.248 58.5907 468.245 58.5758 468.234 58.561C468.222 58.5425 468.196 58.5239 468.185 58.498C468.182 58.4869 468.171 58.4721 468.163 58.4535C468.152 58.4313 468.126 58.4127 468.115 58.3905C468.1 58.3682 468.085 58.3423 468.07 58.3163C468.063 58.3015 468.052 58.2867 468.044 58.2756C468.03 58.2533 468.015 58.2311 468 58.2088C467.989 58.194 467.981 58.1792 467.974 58.1643C467.963 58.1421 467.941 58.1235 467.929 58.0976C467.922 58.0865 467.907 58.0716 467.904 58.0568C467.893 58.042 467.885 58.0346 467.878 58.0198C467.87 58.0049 467.863 57.9938 467.855 57.979C467.844 57.9604 467.826 57.9382 467.811 57.916C467.803 57.9048 467.792 57.89 467.785 57.8714C467.774 57.8492 467.748 57.8307 467.737 57.8084C467.729 57.7936 467.718 57.7788 467.711 57.7602C467.707 57.7491 467.696 57.7417 467.688 57.7268C467.685 57.7157 467.674 57.7009 467.666 57.6898C467.651 57.6675 467.633 57.6453 467.626 57.623C467.611 57.6082 467.603 57.5934 467.596 57.5786C467.581 57.5563 467.566 57.5341 467.551 57.5118C467.544 57.5007 467.533 57.4859 467.525 57.471C467.518 57.4562 467.507 57.4488 467.5 57.434C467.492 57.4192 467.485 57.408 467.477 57.3932C467.47 57.3858 467.462 57.371 467.455 57.3561C467.448 57.345 467.433 57.3339 467.429 57.3228C467.418 57.3116 467.414 57.3005 467.407 57.2857C467.392 57.2635 467.373 57.2412 467.359 57.2227C467.355 57.2079 467.344 57.193 467.336 57.1745C467.329 57.1634 467.318 57.156 467.31 57.1411C467.307 57.13 467.296 57.1151 467.288 57.104C465.06 53.519 461.256 51.1797 456.018 51.1797C445.545 51.1797 433.73 60.233 429.681 71.355C427.65 76.9308 427.627 82.1952 430.074 85.643C430.085 85.6578 430.093 85.6652 430.1 85.6801C430.107 85.6912 430.111 85.7023 430.122 85.7171C430.13 85.7245 430.133 85.732 430.137 85.7431C430.152 85.7727 430.178 85.8024 430.196 85.8321C430.204 85.8432 430.211 85.8506 430.219 85.8617C430.226 85.8728 430.234 85.884 430.241 85.8988C430.248 85.9137 430.256 85.921 430.263 85.9359C430.271 85.9507 430.282 85.9581 430.289 85.9729C430.297 85.984 430.304 85.9952 430.311 86.0063C430.315 86.0137 430.323 86.0249 430.33 86.0323C430.348 86.0582 430.367 86.0916 430.389 86.1213C430.389 86.1287 430.393 86.1323 430.397 86.1398C430.419 86.1694 430.441 86.2028 430.456 86.2287C430.463 86.2399 430.471 86.2473 430.478 86.2584C430.486 86.2696 430.493 86.2807 430.5 86.2955C430.508 86.2992 430.512 86.3103 430.515 86.3177C430.53 86.3474 430.552 86.377 430.575 86.4067C430.582 86.4141 430.586 86.4178 430.589 86.4253C430.608 86.4549 430.63 86.4846 430.649 86.5142C430.652 86.5254 430.664 86.5328 430.667 86.5439C430.671 86.555 430.682 86.5661 430.689 86.5773C430.693 86.5847 430.701 86.5958 430.704 86.6032C430.719 86.6365 430.749 86.6588 430.764 86.6921C430.767 86.6996 430.771 86.7033 430.775 86.7107C430.797 86.7404 430.816 86.7737 430.834 86.8034C430.838 86.8071 430.841 86.8145 430.845 86.8219C430.86 86.8479 430.882 86.8738 430.897 86.8998C430.916 86.9294 430.938 86.9591 430.953 86.9851C430.956 86.9925 430.96 86.9961 430.964 87.0036C430.982 87.0332 431.005 87.0666 431.027 87.0963C431.027 87.1 431.034 87.1074 431.038 87.1148C431.053 87.1407 431.071 87.1667 431.086 87.1927C431.094 87.2075 431.105 87.2186 431.116 87.2371C431.131 87.2557 431.149 87.2779 431.16 87.3002C431.179 87.3298 431.194 87.3595 431.212 87.3854C431.216 87.3891 431.22 87.3965 431.223 87.404C431.238 87.4262 431.26 87.4521 431.275 87.4818C431.286 87.4966 431.294 87.5152 431.301 87.5263C431.316 87.5486 431.331 87.5708 431.346 87.593C431.361 87.619 431.383 87.6486 431.401 87.6746C431.401 87.6783 431.412 87.6857 431.416 87.6931C431.431 87.7191 431.446 87.745 431.461 87.771C431.468 87.7858 431.483 87.7969 431.494 87.8118C431.509 87.8303 431.524 87.8525 431.535 87.8748C431.542 87.8896 431.553 87.9044 431.561 87.923C431.572 87.9452 431.594 87.9638 431.605 87.986C431.62 88.012 431.642 88.0342 431.653 88.0564C431.665 88.075 431.672 88.0861 431.679 88.1009C431.694 88.1232 431.709 88.1455 431.724 88.1677C431.731 88.1788 431.742 88.1936 431.75 88.2084C431.765 88.2307 431.783 88.2529 431.794 88.2752C431.802 88.29 431.813 88.3049 431.82 88.3197C431.828 88.3308 431.839 88.3419 431.842 88.353C431.853 88.3641 431.861 88.3753 431.868 88.3901C431.88 88.4124 431.898 88.4346 431.913 88.4568C431.92 88.4717 431.931 88.4865 431.935 88.5013C431.954 88.5236 431.972 88.5421 431.983 88.568C431.991 88.5792 431.998 88.594 432.009 88.6088C432.017 88.6199 432.028 88.6311 432.035 88.6459C432.043 88.6608 432.05 88.6682 432.054 88.6867C432.072 88.7053 432.087 88.7275 432.102 88.7497C432.109 88.7609 432.121 88.7757 432.128 88.7905C432.143 88.8128 432.158 88.835 432.173 88.8572C432.176 88.8721 432.187 88.8869 432.198 88.9017C432.206 88.9129 432.213 88.924 432.221 88.9351C432.228 88.9462 432.235 88.9573 432.246 88.9722C432.254 88.9833 432.265 88.9981 432.269 89.0092C432.276 89.0241 432.287 89.0352 432.291 89.0463C432.302 89.0575 432.31 89.0686 432.313 89.0834C432.332 89.1056 432.347 89.1242 432.361 89.1501C432.369 89.1613 432.376 89.1761 432.387 89.1909C432.391 89.2058 432.406 89.2131 432.41 89.228C432.421 89.2391 432.425 89.2539 432.432 89.2688C434.015 93.18 438.467 95.1894 443.706 95.1894C454.175 95.1894 465.991 86.1361 470.039 75.0141C472.074 69.4494 471.299 64.6299 469.646 60.7372Z" fill="url(#paint4_linear_2883_378)"/>
<path d="M462.974 71.3674C459.867 79.8868 450.981 86.7972 443.114 86.7972C435.243 86.7972 431.388 79.8868 434.487 71.3674C437.59 62.8442 446.476 55.9375 454.343 55.9375C462.21 55.9375 466.073 62.8479 462.974 71.3674Z" fill="#F0F0F0"/>
<path d="M468.722 10.3259C468.718 10.3148 468.707 10.3074 468.703 10.2963C468.696 10.2852 468.692 10.2778 468.685 10.2666C468.677 10.2592 468.674 10.2518 468.67 10.2444C468.655 10.2184 468.64 10.1962 468.622 10.1703C468.618 10.1628 468.614 10.1554 468.607 10.1443C468.599 10.1369 468.596 10.1258 468.588 10.1146C468.581 10.1035 468.573 10.0961 468.57 10.0849C468.562 10.0738 468.555 10.0664 468.551 10.0553C468.544 10.0442 468.536 10.0331 468.533 10.0219C468.525 10.0182 468.521 10.0108 468.518 10.0034C468.503 9.9775 468.484 9.95524 468.47 9.92929C468.47 9.92187 468.462 9.91818 468.458 9.91447C468.444 9.88852 468.429 9.86252 468.414 9.83657C468.406 9.82916 468.403 9.82176 468.395 9.81434C468.388 9.80322 468.384 9.79211 468.377 9.7847C468.373 9.77728 468.369 9.76988 468.366 9.76247C468.347 9.73652 468.332 9.71426 468.317 9.6883C468.314 9.68089 468.31 9.67719 468.306 9.67348C468.292 9.64753 468.273 9.6216 468.258 9.59564C468.254 9.58823 468.247 9.58077 468.243 9.57336C468.236 9.56223 468.229 9.55116 468.225 9.54004C468.221 9.53633 468.217 9.5289 468.21 9.52148C468.195 9.49553 468.18 9.47327 468.162 9.44732C468.162 9.4399 468.154 9.43621 468.151 9.4325C468.14 9.40655 468.121 9.38061 468.106 9.35466C468.102 9.35095 468.099 9.34725 468.095 9.33984C468.084 9.31759 468.065 9.29904 468.054 9.27309C468.039 9.25084 468.025 9.22858 468.01 9.20633C468.006 9.19892 468.002 9.19522 467.999 9.19151C467.988 9.16556 467.965 9.13963 467.95 9.11367C467.95 9.10997 467.947 9.10627 467.943 9.09885C467.928 9.07661 467.913 9.05808 467.902 9.03583C467.895 9.02101 467.888 9.00985 467.88 8.99873C467.865 8.98019 467.854 8.96165 467.843 8.94312C467.828 8.92087 467.813 8.89493 467.798 8.87269C467.798 8.86898 467.791 8.86528 467.787 8.85787C467.776 8.83562 467.761 8.81707 467.75 8.79112C467.743 8.77999 467.732 8.76886 467.724 8.75774C467.713 8.7392 467.702 8.72067 467.691 8.70213C467.676 8.67989 467.661 8.65395 467.647 8.6317C467.643 8.628 467.639 8.6243 467.635 8.61688C467.621 8.59464 467.609 8.57611 467.595 8.55387C467.587 8.53904 467.58 8.52791 467.572 8.51308C467.561 8.49825 467.546 8.47974 467.535 8.4612C467.532 8.45008 467.524 8.43892 467.517 8.4241C467.506 8.40556 467.491 8.39076 467.48 8.37222C467.468 8.34998 467.454 8.33145 467.443 8.3092C467.435 8.29808 467.428 8.28695 467.42 8.27583C467.405 8.25729 467.394 8.23876 467.383 8.22022C467.376 8.2091 467.369 8.19794 467.365 8.18311C467.35 8.16457 467.335 8.14975 467.328 8.1275C467.32 8.11638 467.309 8.10531 467.305 8.09418C467.298 8.08306 467.291 8.07561 467.283 8.06448C467.279 8.05336 467.272 8.04223 467.268 8.03111C467.254 8.01628 467.242 7.99777 467.231 7.97923C467.224 7.96811 467.216 7.95701 467.209 7.94218C467.198 7.92365 467.183 7.90879 467.172 7.89025C467.165 7.87542 467.157 7.86429 467.15 7.84947C467.146 7.84205 467.139 7.83462 467.131 7.8235C467.127 7.81238 467.12 7.80127 467.113 7.79386C467.101 7.77532 467.087 7.75679 467.079 7.73825C467.068 7.72713 467.061 7.71232 467.057 7.7012C467.042 7.68266 467.031 7.66413 467.02 7.64559C467.013 7.63447 467.005 7.62334 466.998 7.61221C466.994 7.60109 466.983 7.59369 466.975 7.58257C466.972 7.57145 466.964 7.56032 466.961 7.5492C466.953 7.54178 466.946 7.53062 466.942 7.5195C466.935 7.50837 466.923 7.50098 466.92 7.48985C466.912 7.47873 466.909 7.47133 466.901 7.46021C466.89 7.44168 466.875 7.42311 466.864 7.40828C466.861 7.39345 466.853 7.38232 466.846 7.3675C466.838 7.36008 466.831 7.35271 466.823 7.34159C466.82 7.33046 466.812 7.3193 466.805 7.31189C465.092 4.33862 461.904 2.49609 457.644 2.49609C449.132 2.49609 439.53 9.85144 436.242 18.8936C434.592 23.4276 434.84 27.5353 436.564 30.5086C436.572 30.5197 436.579 30.5271 436.587 30.5382C436.59 30.5494 436.598 30.5568 436.601 30.5679C436.609 30.5753 436.613 30.5827 436.616 30.5902C436.631 30.6124 436.65 30.6384 436.665 30.6643C436.668 30.6754 436.676 30.6791 436.683 30.6902C436.687 30.6976 436.694 30.7088 436.698 30.7199C436.705 30.7311 436.713 30.7385 436.716 30.7496C436.724 30.7607 436.735 30.7681 436.739 30.7792C436.746 30.7903 436.75 30.7978 436.757 30.8089C436.761 30.8163 436.765 30.8237 436.772 30.8311C436.787 30.8534 436.802 30.8794 436.82 30.9053C436.82 30.9127 436.824 30.9164 436.828 30.9201C436.842 30.9461 436.861 30.972 436.876 30.9942C436.88 31.0054 436.887 31.0128 436.891 31.0202C436.898 31.0313 436.905 31.0387 436.909 31.0536C436.917 31.0573 436.92 31.0647 436.924 31.0721C436.939 31.0944 436.954 31.1203 436.972 31.1462C436.976 31.1537 436.98 31.1574 436.983 31.1611C436.994 31.1871 437.013 31.213 437.032 31.2352C437.035 31.2463 437.043 31.2538 437.046 31.2612C437.05 31.2723 437.057 31.2797 437.065 31.2908C437.069 31.2982 437.072 31.3056 437.076 31.3131C437.091 31.339 437.109 31.3613 437.124 31.3872C437.128 31.3946 437.131 31.3983 437.135 31.402C437.15 31.428 437.169 31.454 437.183 31.4799C437.183 31.4836 437.187 31.4873 437.191 31.4948C437.206 31.5133 437.22 31.5355 437.232 31.5578C437.246 31.5837 437.265 31.606 437.28 31.6282C437.28 31.6356 437.284 31.6393 437.287 31.643C437.302 31.669 437.321 31.6949 437.339 31.7209C437.339 31.7246 437.343 31.7283 437.347 31.7357C437.361 31.7543 437.373 31.7765 437.387 31.7988C437.395 31.8136 437.402 31.8247 437.41 31.8358C437.421 31.8544 437.436 31.8729 437.447 31.8877C437.458 31.9137 437.473 31.9359 437.491 31.9619C437.491 31.9656 437.495 31.9693 437.499 31.9767C437.51 31.9952 437.524 32.0175 437.539 32.0397C437.547 32.0546 437.554 32.0657 437.562 32.0768C437.577 32.0953 437.587 32.1139 437.599 32.1324C437.61 32.1547 437.628 32.1769 437.643 32.2028C437.643 32.2065 437.651 32.2102 437.654 32.2177C437.665 32.2399 437.68 32.2585 437.691 32.2844C437.699 32.2955 437.706 32.3067 437.717 32.3178C437.729 32.3363 437.74 32.3548 437.751 32.3697C437.758 32.3845 437.765 32.3956 437.773 32.4104C437.784 32.429 437.799 32.4438 437.806 32.4624C437.821 32.4846 437.836 32.5031 437.847 32.5217C437.854 32.5365 437.862 32.5476 437.869 32.5588C437.88 32.5773 437.892 32.5958 437.903 32.6144C437.91 32.6255 437.917 32.6366 437.925 32.6477C437.936 32.6699 437.951 32.6848 437.962 32.7033C437.969 32.7181 437.977 32.7293 437.984 32.7404C437.988 32.7515 437.999 32.7589 438.003 32.7701C438.01 32.7812 438.018 32.7886 438.021 32.7997C438.032 32.8182 438.047 32.8368 438.058 32.8553C438.066 32.8664 438.073 32.8776 438.077 32.8924C438.092 32.911 438.107 32.9258 438.114 32.948C438.121 32.9591 438.129 32.9703 438.136 32.9814C438.144 32.9925 438.151 32.9999 438.158 33.011C438.162 33.0222 438.17 33.0296 438.173 33.0444C438.188 33.0592 438.199 33.0778 438.21 33.0963C438.218 33.1074 438.225 33.1185 438.233 33.1297C438.244 33.1519 438.259 33.1667 438.27 33.1853C438.273 33.2001 438.281 33.2113 438.292 33.2224C438.296 33.2335 438.303 33.2409 438.31 33.252C438.314 33.2631 438.322 33.2705 438.329 33.2817C438.336 33.2928 438.344 33.3039 438.348 33.3113C438.355 33.3261 438.362 33.3336 438.366 33.3447C438.374 33.3521 438.381 33.3632 438.385 33.3743C438.399 33.3929 438.411 33.4077 438.422 33.43C438.429 33.4411 438.437 33.4522 438.444 33.4633C438.448 33.4744 438.459 33.4819 438.463 33.493C438.47 33.5041 438.477 33.5152 438.481 33.5263C440.198 36.4959 443.386 38.3384 447.646 38.3384C456.154 38.3384 465.756 30.9831 469.044 21.941C470.694 17.4069 470.449 13.2955 468.722 10.3259Z" fill="url(#paint5_linear_2883_378)"/>
<path d="M463.296 18.9637C460.772 25.889 453.55 31.5056 447.155 31.5056C440.759 31.5056 437.627 25.889 440.144 18.9637C442.661 12.0385 449.891 6.42188 456.286 6.42188C462.681 6.42188 465.817 12.0348 463.296 18.9637Z" fill="#F0F0F0"/>
</g>
<defs>
<linearGradient id="paint0_linear_2883_378" x1="207.359" y1="0" x2="207.359" y2="200.136" gradientUnits="userSpaceOnUse">
<stop offset="0.254166" stop-color="#E93CAC"/>
<stop offset="0.504166" stop-color="#1E1EE8"/>
<stop offset="1" stop-color="#59CBE8"/>
</linearGradient>
<linearGradient id="paint1_linear_2883_378" x1="291.373" y1="121.359" x2="291.373" y2="190.137" gradientUnits="userSpaceOnUse">
<stop offset="0.170833" stop-color="#E93CAC"/>
<stop offset="0.504166" stop-color="#1E1EE8"/>
<stop offset="1" stop-color="#59CBE8"/>
</linearGradient>
<linearGradient id="paint2_linear_2883_378" x1="377.601" y1="120.172" x2="377.601" y2="180.69" gradientUnits="userSpaceOnUse">
<stop offset="0.170833" stop-color="#E93CAC"/>
<stop offset="0.504166" stop-color="#1E1EE8"/>
<stop offset="1" stop-color="#59CBE8"/>
</linearGradient>
<linearGradient id="paint3_linear_2883_378" x1="463.463" y1="104.719" x2="463.463" y2="156.996" gradientUnits="userSpaceOnUse">
<stop offset="0.170833" stop-color="#E93CAC"/>
<stop offset="0.504166" stop-color="#1E1EE8"/>
<stop offset="1" stop-color="#59CBE8"/>
</linearGradient>
<linearGradient id="paint4_linear_2883_378" x1="449.727" y1="51.1797" x2="449.727" y2="95.1894" gradientUnits="userSpaceOnUse">
<stop offset="0.170833" stop-color="#E93CAC"/>
<stop offset="0.504166" stop-color="#1E1EE8"/>
<stop offset="1" stop-color="#59CBE8"/>
</linearGradient>
<linearGradient id="paint5_linear_2883_378" x1="452.644" y1="2.49609" x2="452.644" y2="38.3384" gradientUnits="userSpaceOnUse">
<stop offset="0.170833" stop-color="#E93CAC"/>
<stop offset="0.504166" stop-color="#1E1EE8"/>
<stop offset="1" stop-color="#59CBE8"/>
</linearGradient>
<clipPath id="clip0_2883_378">
<rect width="489" height="201" fill="white"/>
</clipPath>
</defs>
</svg>
