<svg width="489" height="201" viewBox="0 0 489 201" fill="none" xmlns="http://www.w3.org/2000/svg">
<path d="M411.826 59.3135C412.43 57.4635 412.909 55.7915 413.183 54.3345C413.335 53.5968 413.417 52.9368 413.472 52.3029L414.569 51.402C414.592 51.2092 414.566 51.0313 414.577 50.8459L414.629 50.7903C415.048 46.4046 413.991 42.1115 411.648 38.8898C411.422 38.5784 411.129 38.2855 410.877 37.9815C410.436 36.988 409.921 36.0463 409.294 35.1862C409.068 34.8748 408.775 34.5819 408.523 34.2779C408.085 33.2843 407.566 32.3427 406.944 31.4863C406.677 31.1193 406.343 30.7819 406.039 30.426C405.605 29.4435 405.086 28.5056 404.467 27.6529C404.241 27.3452 403.948 27.0597 403.7 26.7594C403.262 25.7622 402.739 24.8169 402.113 23.9531C401.568 23.2042 400.941 22.4849 400.248 21.7991C400.204 21.7583 400.167 21.7212 400.122 21.6804C400.085 21.6434 400.048 21.6063 400.011 21.5729C399.97 21.5284 399.926 21.4876 399.881 21.4469C399.84 21.4098 399.803 21.3727 399.763 21.3356C399.722 21.2949 399.681 21.2541 399.636 21.2133C399.596 21.1762 399.559 21.1354 399.522 21.1021C399.477 21.0613 399.44 21.0206 399.395 20.9798C399.358 20.9427 399.318 20.9056 399.284 20.8722C399.255 20.8463 399.236 20.8129 399.206 20.7907C397.156 18.7961 394.357 17.2984 390.906 16.3901C388.092 15.5819 384.481 15.1148 380.214 14.9628C379.825 14.948 379.48 14.8924 379.076 14.8924H378.909H378.738H378.571H378.401H378.234H378.063H377.897H377.726H377.559H377.389H377.222H362.967H362.8H362.63H362.463H362.293H362.126H361.955H361.788H361.618H361.451H361.281H361.114C355.627 14.8924 350.893 15.3817 346.866 16.3382C345.84 16.5644 344.846 16.8572 343.852 17.1501C343.7 16.9573 343.56 16.7571 343.4 16.5681C343.378 16.5458 343.344 16.531 343.326 16.505C342.788 15.2038 342.002 13.9989 341.046 12.8681C340.497 11.489 339.663 10.2174 338.658 9.01996C338.647 9.00884 338.629 9.00139 338.621 8.99026C338.073 7.67787 337.264 6.46561 336.297 5.32005C335.967 4.93449 335.526 4.62306 335.077 4.31906C334.81 3.90755 334.592 3.47008 334.247 3.08823C332.634 1.03808 329.994 0 326.391 0C325.927 0 325.419 0.0148655 324.889 0.0371094L324.115 0.0593411H321.605H321.438H321.267H321.101H320.93H320.763H320.593H320.426H320.255H320.088H319.918H319.751L319.076 0.0371094C318.583 0.0148655 318.116 0 317.675 0C314.016 0 310.52 1.13076 307.231 3.39223C305.926 4.28199 302.386 6.72879 299.924 11.2109C299.587 10.7364 299.224 10.2841 298.79 9.88745C298.263 8.34891 297.407 7.02539 296.199 5.99475C295.146 3.07339 292.869 0.919449 289.258 0.300326C288.647 0.159448 288.009 0.0593411 287.308 0.0593411H287.142H286.971H286.804H286.634H286.467H286.296H286.129H285.959H285.792H285.621H285.462H281.202H281.035H280.865H280.698H280.527H280.361H280.19H280.023H279.853H279.686H279.516H279.349C271.066 0.0593411 260.045 7.99301 257.105 16.0713L257.042 16.2381L256.979 16.4049L256.916 16.5717L256.853 16.7386L256.79 16.9054L256.73 17.0723L256.667 17.2391L256.604 17.4059L256.541 17.5727L256.478 17.7395L256.415 17.9064L256.152 18.6367C254.547 19.8379 253.086 21.2911 251.844 22.9557C249.953 25.4841 249.119 27.7827 248.545 29.3472L248.481 29.514L248.419 29.6809L248.359 29.8477L248.296 30.0145L248.233 30.1813L248.17 30.3481L248.107 30.515L248.044 30.6818L247.981 30.8486L247.918 31.0155L247.855 31.1823L247.058 33.377L246.995 33.5439L246.932 33.7107L246.869 33.8775L246.806 34.0444L246.743 34.2112L246.68 34.378L246.617 34.5448L246.554 34.7117L246.491 34.8785L246.431 35.0453L246.368 35.2121C246.327 35.3196 246.342 35.4124 246.335 35.5125C246.257 35.7757 246.179 36.0166 246.105 36.2984C245.393 35.8535 244.626 35.5087 243.829 35.2159C243.573 34.5893 243.239 34.0258 242.828 33.5142C242.483 32.8024 242.046 32.187 241.523 31.6606C241.256 30.9784 240.911 30.363 240.477 29.8143C240.144 29.1284 239.729 28.5316 239.232 28.0237C238.946 27.2525 238.557 26.5704 238.053 25.9698C237.73 25.3396 237.337 24.7871 236.874 24.3052C236.563 23.4859 236.144 22.7592 235.591 22.1327C235.161 21.3542 234.631 20.6832 233.978 20.1493C233.964 20.116 233.949 20.09 233.934 20.0566C232.951 16.8127 230.549 14.8478 226.912 14.8478H226.746H226.575H226.408H226.238H226.071H225.9H225.733H225.563H225.396H225.225H225.059H212.291H212.124H211.953H211.786H211.616H211.449H211.279H211.112H210.941H210.774H210.604H210.437C206.863 14.8478 203.775 15.1481 201.017 15.7598C197.076 16.6274 193.42 18.2326 190.503 20.2828C190.425 20.3347 190.354 20.3903 190.276 20.4422C188.69 17.354 185.754 14.8478 181.483 14.8478H181.316H181.146H180.979H180.808H180.641H180.471H180.304H180.133H179.966H179.796H179.629H175.722H175.555H175.384H175.218H175.047H174.88H174.71H174.543H174.372H174.205H174.035H173.868C173.668 14.8478 173.449 14.896 173.245 14.9034C173.008 14.922 172.763 14.9405 172.522 14.9702C165.241 15.5337 156.377 20.5831 152.744 28.0756C152.566 28.4055 152.406 28.7466 152.254 29.0839C152.176 29.2767 152.05 29.451 151.984 29.6475L151.921 29.8143L151.858 29.9811L151.794 30.1479L151.732 30.3148L151.668 30.4816L151.606 30.6485L151.542 30.8153L151.48 30.9821L151.416 31.1489L151.353 31.3158L151.294 31.4826L150.115 34.7191C149.978 34.5115 149.815 34.3224 149.659 34.1259C149.325 33.4363 148.918 32.8209 148.428 32.2686C148.136 31.6049 147.761 30.9969 147.305 30.426C146.986 29.7698 146.608 29.1729 146.145 28.6391C145.826 27.8939 145.407 27.2118 144.877 26.5852C144.569 25.9772 144.209 25.4211 143.779 24.9206C143.438 24.131 142.99 23.4043 142.419 22.7481C141.985 21.9436 141.436 21.2356 140.776 20.635C139.672 17.228 137.065 14.8367 132.698 14.8367H132.531H132.361H132.194H132.024H131.857H131.686H131.519H131.349H131.182H131.011H130.844H126.763H126.596H126.425H126.258H126.088H125.921H125.751H125.584H125.413H125.247H125.076H124.909C123.63 14.8367 122.273 15.0295 120.883 15.352C120.805 15.2149 120.683 15.1074 120.594 14.9776C120.223 14.1101 119.711 13.3538 119.003 12.7606C118.792 12.1748 118.507 11.641 118.147 11.1553C117.713 10.2137 117.127 9.38327 116.282 8.77898C115.53 5.71673 113.298 3.71473 108.997 3.71473H108.83H108.66H108.493H108.323H108.156H107.985H107.818H107.648H107.481H107.31H107.144H102.891H102.725H102.554H102.387H102.32H102.154H101.983H101.816H101.646H101.479H101.308H101.142C91.61 3.71473 84.8775 10.4769 82.4418 17.1761L82.3786 17.3429L82.3157 17.5097L82.2526 17.6765L82.1897 17.8433L82.1265 18.0102L82.0636 18.177L82.0044 18.3439L81.9412 18.5107L81.8783 18.6775L81.8152 18.8443L81.7523 19.0112L69.796 51.8543C69.5365 51.8802 69.2696 51.8951 69.0138 51.8951H59.8939H59.7269H59.5566H59.3896H59.2192H59.0522H58.8818H58.7148H58.5444H58.3774H58.207H58.0403C49.9361 51.8951 41.5797 58.0752 38.5916 66.2758L38.5286 66.4426L38.4655 66.6095L38.4062 66.7763L38.3431 66.9431L38.2802 67.1099L38.2171 67.2768L38.1542 67.4436L38.091 67.6104L38.0281 67.7773L37.965 67.9441L37.9021 68.1109L37.0642 70.4132L37.0011 70.58L36.9381 70.7468L36.875 70.9137L36.8121 71.0805L36.749 71.2473L36.6861 71.4141L36.6268 71.581L36.5637 71.7478L36.5005 71.9146L36.4376 72.0815L36.3745 72.2483C34.7507 76.7045 35.7776 80.0337 38.2578 82.221C38.2875 82.2469 38.3061 82.2766 38.3284 82.3026C38.5731 83.1478 38.9475 83.9115 39.448 84.5974C39.8113 85.4278 40.297 86.1433 40.905 86.7624C41.1534 87.3778 41.4796 87.9414 41.8837 88.4604C42.2396 89.2315 42.6992 89.9026 43.2664 90.4772C43.5371 91.1371 43.893 91.7414 44.3379 92.2901C44.5195 92.6534 44.6603 93.0464 44.8902 93.3689C45.1238 95.9715 46.2028 98.2626 47.808 100.061H47.6596H47.4928H47.3222H47.1555H46.9848H46.8181H46.6475H46.4807H42.3138H42.1468H41.9764H41.8094H41.6391H41.4721H41.3017H41.1347H40.9643H40.7975H40.6269H40.4601C32.4931 100.061 23.8068 106.775 20.689 115.342L20.6258 115.509L20.5629 115.676L20.4998 115.843L20.4369 116.01L20.3738 116.176L20.3109 116.343L20.2477 116.51L20.1885 116.677L20.1253 116.844L20.0624 117.01L19.9993 117.177L1.28483 168.594L1.2217 168.761L1.15879 168.928L1.09566 169.095L1.03275 169.261L0.969624 169.428L0.906719 169.595L0.843587 169.762L0.780682 169.929L0.717551 170.096L0.658267 170.262L0.595135 170.429C-0.583793 173.673 0.020593 176.532 2.12635 178.548C2.30801 178.767 2.46 179.008 2.66761 179.208C2.82331 179.753 3.02717 180.28 3.31634 180.765C3.68707 181.915 4.29885 182.923 5.24422 183.687C5.3851 184.017 5.54826 184.339 5.74474 184.643C6.1266 185.722 6.70861 186.675 7.60949 187.405C7.7652 187.772 7.95795 188.117 8.18039 188.454C8.4399 189.133 8.80333 189.741 9.26675 190.289C9.5967 195.339 13.1964 200.129 20.2181 200.129C20.2366 200.129 27.692 200.129 27.7106 200.129C33.3642 200.129 36.6675 196.566 39.1106 194.227C41.0866 192.332 41.9689 190.149 42.5027 188.343C42.7104 187.794 42.8365 187.286 42.9515 186.808C42.97 186.727 42.9997 186.641 43.0182 186.56C43.0405 186.478 43.0663 186.4 43.0886 186.319C43.1108 186.241 43.1331 186.171 43.1553 186.093C43.1961 185.963 43.2332 185.841 43.2703 185.715C43.2999 185.611 43.337 185.503 43.3667 185.403C43.4037 185.299 43.437 185.188 43.4667 185.088C43.5149 184.94 43.5556 184.803 43.6038 184.665C43.6483 184.55 43.6854 184.443 43.7262 184.335C43.7818 184.18 43.8375 184.028 43.8894 183.887L43.9523 183.72L44.0154 183.553L44.0783 183.386L44.1378 183.22L44.2007 183.053L44.2564 182.904L56.0567 196.184C57.5693 198.149 61.032 199.617 64.0979 199.617C65.1768 199.617 65.9219 200.136 66.6374 200.136H73.1698C77.4777 200.136 82.0006 198.446 85.771 195.591C87.1167 198.167 90.1196 200.136 95.929 200.136H103.696C105.624 200.136 108.108 199.606 110.929 198.549C112.642 197.908 114.403 196.64 115.882 195.569C117.287 197.837 119.737 200.132 124.168 200.132C124.186 200.132 131.137 200.132 131.16 200.132C138.756 200.132 144.176 193.452 147.023 185.737C147.394 186.278 147.898 186.749 148.488 187.186C148.799 188.48 149.444 189.685 150.593 190.645C151.101 194.849 153.574 200.136 162.709 200.136C162.709 200.136 168.496 200.136 168.515 200.136C174.268 200.136 180.623 195.209 184.122 185.666C184.493 186.2 184.971 186.682 185.553 187.116C185.854 188.365 186.48 189.533 187.57 190.486C188.034 194.734 190.569 200.136 200.149 200.136H207.404C209.31 200.136 210.834 199.228 213.603 198.219C219.16 196.206 223.016 190.883 224.951 185.574L225.014 185.407L225.077 185.24L225.136 185.073L225.2 184.906L225.263 184.74L225.326 184.573L225.389 184.406L225.452 184.239L225.515 184.072L225.578 183.905L225.641 183.739L225.704 183.572L225.767 183.405L225.826 183.238L225.889 183.071L225.952 182.904L226.015 182.738L226.078 182.571L226.141 182.404L226.204 182.237L226.267 182.07L226.33 181.903L234.905 158.347C236.195 154.807 238.019 151.422 238.323 147.885C238.327 147.833 238.331 147.781 238.335 147.729C238.342 147.651 238.372 147.574 238.379 147.496C238.716 143.737 239.043 140.081 237.185 136.945C236.663 136.07 235.962 134.883 235.028 133.712C234.95 133.56 234.924 133.393 234.831 133.245C234.312 132.37 233.608 131.18 232.674 130.012C232.596 129.86 232.57 129.693 232.481 129.545C231.932 128.626 231.202 127.369 230.201 126.145C230.123 126.001 230.097 125.841 230.008 125.7C229.489 124.833 228.792 123.661 227.873 122.508C227.787 122.342 227.754 122.16 227.657 121.997C227.057 120.996 226.275 119.598 225.11 118.275C225.066 118.223 225.029 118.178 224.981 118.126C224.944 118.082 224.907 118.045 224.87 118C224.829 117.952 224.792 117.908 224.751 117.859C224.714 117.815 224.681 117.774 224.643 117.73C224.595 117.682 224.558 117.633 224.514 117.581C224.477 117.541 224.447 117.504 224.414 117.463C224.365 117.411 224.332 117.363 224.28 117.311C224.243 117.27 224.217 117.233 224.184 117.192C224.135 117.14 224.099 117.092 224.05 117.04C224.013 116.999 223.983 116.962 223.95 116.922C222.779 115.628 221.229 114.401 219.082 113.685L218.145 113.311C217.607 113.092 216.991 112.843 216.313 112.595C214.708 111.854 212.795 111.186 210.326 111.186H210.159H209.988H209.822H209.651H209.484H209.314H209.147H208.976H208.809H208.639H208.472H198.31H198.143H197.973H197.806H197.636H197.469H197.298H197.131H196.961H196.794H196.624H196.457C190.881 111.186 185.031 112.643 179.173 115.435C179.151 115.424 179.121 115.413 179.099 115.402C179.051 115.376 178.999 115.35 178.951 115.324C178.899 115.294 178.847 115.268 178.791 115.242C178.743 115.212 178.691 115.19 178.643 115.164C178.572 115.123 178.491 115.086 178.42 115.046C178.335 114.99 178.22 114.942 178.131 114.89C178.05 114.838 177.953 114.79 177.868 114.738C177.831 114.716 177.794 114.697 177.761 114.675C176.693 113.926 175.317 113.188 173.534 112.803C173.297 112.74 173.056 112.647 172.804 112.558C172.43 112.428 172.007 112.28 171.543 112.135C170.431 111.631 169.097 111.194 167.432 111.194H167.265H167.095H166.928H166.757H166.591H166.42H166.253H166.083H165.916H165.745H165.578H155.776H155.61H155.439H155.272H155.102H154.935H154.764H154.597H154.427H154.26H154.089H153.923C149.444 111.194 145.392 112.469 142.723 113.314L141.755 113.618C141.444 113.7 141.132 113.83 140.817 113.926C140.658 113.481 140.454 113.07 140.194 112.706C140.183 112.691 140.176 112.68 140.165 112.665C140.154 112.651 140.15 112.636 140.139 112.621C140.128 112.606 140.113 112.591 140.102 112.573C140.094 112.562 140.09 112.547 140.083 112.536C140.072 112.525 140.065 112.51 140.053 112.495C140.042 112.48 140.042 112.462 140.031 112.45C140.02 112.432 140.005 112.417 139.991 112.399C139.987 112.391 139.983 112.38 139.976 112.373C139.972 112.365 139.965 112.354 139.961 112.347C139.942 112.313 139.92 112.276 139.905 112.243C139.642 111.794 139.364 111.357 139.067 110.942C138.926 110.749 138.686 110.634 138.522 110.46C138.352 109.93 138.14 109.429 137.833 109.003C137.825 108.992 137.814 108.98 137.811 108.969C137.796 108.954 137.792 108.932 137.781 108.917C137.77 108.903 137.755 108.884 137.744 108.869C137.736 108.858 137.729 108.843 137.722 108.832C137.711 108.814 137.696 108.799 137.685 108.78L137.681 108.777C137.677 108.769 137.673 108.758 137.67 108.751C137.666 108.743 137.659 108.739 137.655 108.732C137.347 108.187 137.014 107.657 136.65 107.156C136.517 106.967 136.276 106.86 136.116 106.693C135.942 106.155 135.727 105.651 135.416 105.221C135.408 105.21 135.401 105.203 135.393 105.192C135.382 105.177 135.375 105.154 135.364 105.136C135.349 105.121 135.338 105.103 135.323 105.084C135.315 105.077 135.316 105.058 135.308 105.051C135.297 105.04 135.497 105.028 135.494 105.014C135.482 105.002 135.675 104.988 135.679 104.973L136.109 103.786H135.89C135.838 103.786 135.508 104.265 135.479 104.213C135.475 104.205 135.312 104.487 135.308 104.48C135.297 104.465 135.212 104.598 135.201 104.584C135.175 104.535 135.112 104.561 135.086 104.517C134.919 104.242 134.7 104.053 134.515 103.79H144.628C150.071 103.79 154.964 102.76 159.309 101.796C164.514 100.58 169.471 97.9585 173.849 94.9927C174.083 94.8333 174.283 94.7258 174.498 94.6034C174.991 95.8491 175.714 96.8946 176.615 97.7287C177.861 101.603 181.231 103.786 185.22 103.786H222.983C227.109 103.786 230.805 102.934 234.112 102.318C238.327 101.455 242.383 99.3228 245.516 97.2949C246.261 96.8278 246.828 96.7055 247.466 96.2235C247.495 96.2532 247.521 96.2865 247.547 96.3199C249.167 100.517 253.342 103.79 258.488 103.79H264.597C272.586 103.79 279.601 96.053 282.733 87.9192C282.911 88.1713 283.119 88.4048 283.33 88.6384C283.597 89.1426 283.905 89.6097 284.265 90.0323C284.624 90.9406 285.128 91.7599 285.796 92.4791C285.855 92.5792 285.9 92.6868 285.966 92.7831C286.456 98.8261 291.327 103.79 297.681 103.79H305.096C309.363 103.79 313.879 101.977 317.642 99.0782C319.151 102.192 322.409 103.79 326.224 103.79H332.067C338.929 103.79 349.421 98.307 352.965 88.5716L356.561 78.699C356.094 79.9818 356.969 81.1088 357.999 82.0282C358.303 83.0403 358.418 83.9449 359.082 84.7457C359.379 85.3463 359.542 85.8949 359.968 86.3806C360.294 87.1888 360.643 87.9265 361.217 88.5864C361.503 89.1351 361.785 89.643 362.189 90.0953C362.53 90.9554 362.989 91.734 363.612 92.4235C363.69 92.5644 363.742 92.7127 363.831 92.8462C364.332 98.8594 369.151 103.786 375.431 103.786H381.274C389.245 103.786 398.357 96.2792 401.587 87.4075L401.649 87.2407L401.713 87.0738L401.775 86.907L401.839 86.7402L401.902 86.5734L401.961 86.4065L402.024 86.2397L402.087 86.0729L402.15 85.9061L402.213 85.7392L402.276 85.5724L402.339 85.4056L402.402 85.2387L402.465 85.0719L402.528 84.9051L402.591 84.7383L402.65 84.5714L402.713 84.4046L402.777 84.2377L402.839 84.0709L402.903 83.9041L402.965 83.7373L410.21 63.829L410.273 63.6622L410.336 63.4953L410.399 63.3285L410.462 63.1616L410.525 62.9948L410.588 62.828L410.651 62.6612L410.714 62.4943L410.777 62.3275L410.836 62.1607L410.899 61.9938L410.962 61.827L411.025 61.6602L411.088 61.4933L411.151 61.3265L411.214 61.1597L411.277 60.9929L411.34 60.8261L411.403 60.6592L411.466 60.4924L411.526 60.3255L411.589 60.1587C411.704 59.8732 411.733 59.61 411.826 59.3135ZM103.043 89.9211C103.329 90.4624 103.562 91.0333 103.918 91.5227C104.193 91.9008 104.541 92.2493 104.856 92.6126C105.253 93.5246 105.705 94.4181 106.272 95.2226C107.144 96.383 108.245 97.4618 109.513 98.4442C108.07 99.0596 106.665 99.7603 105.401 100.624C103.848 101.688 102.424 102.952 101.138 104.317C99.414 102 96.8448 100.153 93.3377 100.153H93.1707H93.0003H92.8333H92.6629H92.4959H92.3255H92.1585H91.9881H91.8214H91.6508H91.484H87.6875C91.1724 98.7408 94.5091 96.8241 97.5009 94.7888C99.7809 93.2058 101.553 91.582 103.043 89.9211ZM56.1606 103.864H68.2019C70.4708 103.864 72.6323 103.631 74.7232 103.323C74.3821 103.531 74.0448 103.723 73.7 103.957L60.3388 112.654C59.8531 111.194 59.0781 109.963 57.9622 109.077C57.4877 107.609 56.7351 106.356 55.6341 105.451C55.4339 104.824 55.1819 104.239 54.8742 103.697C55.3006 103.753 55.712 103.864 56.1606 103.864Z" fill="url(#paint0_linear_1418_897)"/>
<path d="M48.228 70.4947L49.7368 66.3425C50.4819 64.2961 51.9686 63.0838 54.015 63.0838H64.9851C67.1799 63.0838 69.2336 62.6834 70.735 62.3275C72.2847 61.9679 73.7973 61.1819 74.8465 60.4071C75.9809 59.5767 77.1822 58.5386 77.9311 57.293C78.7393 56.0473 79.985 54.5347 80.6338 52.7552L93.5648 17.2243C94.31 15.1778 95.0441 14.8849 97.0943 14.8849H103.197C105.247 14.8849 105.432 15.1778 104.683 17.2243L91.522 53.3781C90.1206 57.2337 89.2346 60.4961 87.4958 63.1654C85.8275 65.779 84.4856 67.9108 82.1018 69.5753C79.744 71.1769 76.9115 72.3632 73.6008 73.1343C70.3829 73.8462 66.5088 74.2058 62.0044 74.2058H49.9631C47.9203 74.2058 47.4828 72.5449 48.228 70.4947ZM164.671 63.1654C166.41 60.4961 167.982 57.2337 169.383 53.3781L178.01 29.6809C178.755 27.6307 177.695 26.0069 175.652 26.0069H169.895C167.845 26.0069 163.926 27.6307 163.177 29.6809L154.68 53.0221C153.924 55.0982 153.968 56.7888 153.134 58.0938C152.385 59.3394 151.881 60.3182 150.795 61.0263C149.764 61.7381 148.663 62.3349 147.128 62.6315C145.616 62.8688 143.973 63.0801 141.838 63.0801H127.958C125.937 63.0801 124.298 62.8688 122.956 62.6315C121.703 62.3349 120.803 61.7862 120.239 61.0744C119.664 60.3663 119.683 59.3653 119.712 58.1197C119.831 56.811 120.558 55.102 121.314 53.0259L129.811 29.6845C130.556 27.6344 128.933 26.0106 126.89 26.0106H120.958C118.908 26.0106 115.727 27.6344 114.982 29.6845L106.355 53.3817C104.954 57.2373 104.587 60.4998 104.327 63.1691C104.142 65.7827 104.879 67.9144 106.051 69.579C107.248 71.1806 109.31 72.367 111.99 73.1381C114.7 73.8499 118.396 74.2095 122.841 74.2095H138.505C143.017 74.2095 146.883 73.8536 150.101 73.1381C153.412 72.367 156.241 71.1769 158.606 69.579C160.982 67.9144 163.01 65.7827 164.671 63.1654ZM179.096 74.2058H216.859C220.233 74.2058 223.039 73.9945 225.271 73.5829C227.577 73.1084 229.509 72.3632 231.062 71.3585C232.678 70.3501 233.539 69.0415 234.536 67.4399C235.559 65.7827 236.052 63.7622 236.916 61.3896L237.824 58.8982C238.751 56.3476 239.77 54.2085 239.978 52.492C240.212 50.7125 240.178 49.2851 239.441 48.2211C238.725 47.0904 237.668 46.0561 235.885 45.5816C234.117 45.044 231.892 44.5472 228.808 44.5472H202.653C201.466 44.5472 200.247 44.5472 199.883 44.069C199.52 43.5944 199.153 42.9123 199.65 41.5443L200.462 39.3199C200.914 38.0742 201.644 37.7628 202.352 37.292C203.124 36.8137 204.314 37.1288 205.618 37.1288H217.037C219.087 37.1288 220.804 34.3669 221.545 32.3204L222.509 29.6809C223.254 27.6307 223.136 26.0069 221.085 26.0069H206.467C203.861 26.0069 201.626 26.1959 199.75 26.6149C197.878 27.0264 196.272 27.7012 194.916 28.6502C193.588 29.54 192.984 30.7226 191.976 32.2055C191.015 33.6885 190.741 35.4642 189.988 37.5366L188.661 41.1847C187.883 43.3201 186.771 45.1885 186.485 46.7901C186.278 48.3324 186.17 49.6411 186.73 50.7088C187.286 51.7765 187.846 53.4559 189.306 53.9897C190.834 54.5236 192.495 55.6654 195.227 55.6654H222.272C223.873 55.6654 225.812 55.0278 226.291 55.5023C226.847 55.9176 227.707 56.1363 227.058 57.9158L226.476 59.5211C225.872 61.182 224.652 61.9568 223.729 62.55C222.802 63.1394 221.004 63.0838 219.221 63.0838H183.152C181.109 63.0838 179.831 65.4528 179.082 67.4955L177.992 70.4947C177.239 72.5449 177.054 74.2058 179.096 74.2058ZM291.232 26.0106H283.431C281.381 26.0106 280.058 24.3163 280.803 22.2699L283.057 16.0713C283.802 14.0211 283.461 11.1813 281.415 11.1813H275.305C273.255 11.1813 268.977 14.0248 268.232 16.0713L265.855 22.5961C265.173 24.4646 264.639 25.9772 262.771 25.9772C260.902 25.9772 260.368 27.4898 259.686 29.3583L258.229 33.3622C257.547 35.227 256.983 36.7433 258.852 36.7433C260.72 36.7433 260.157 38.2559 259.475 40.1207L248.423 70.491C247.678 72.5412 250.318 74.202 252.364 74.202H258.474C260.524 74.202 262.504 72.5412 263.249 70.491L274.182 40.4469C274.927 38.3967 277.333 37.1251 279.379 37.1251H287.18C289.23 37.1251 290.965 35.075 291.714 33.0322L292.933 29.6809C293.682 27.6344 293.282 26.0106 291.232 26.0106ZM318.873 29.7179C319.619 27.6715 318.566 26.0106 316.516 26.0106H309.101C307.051 26.0106 304.789 27.6715 304.044 29.7179L289.204 70.4984C288.459 72.5449 289.511 74.2058 291.562 74.2058H298.976C301.026 74.2058 303.288 72.5449 304.033 70.4984L318.873 29.7179ZM320.067 11.1813H315.707C314.05 11.1813 312.771 10.8958 311.826 11.5483C310.958 12.1415 310.295 12.5382 309.776 13.9655L307.896 19.1298C307.377 20.5497 307.685 21.1318 308.1 21.7843C308.571 22.4367 310.002 22.3033 311.659 22.3033H316.019C317.743 22.3033 319.341 22.4367 320.234 21.7843C321.183 21.1281 322.21 20.5497 322.729 19.1298L324.609 13.9655C325.128 12.5382 324.453 12.1415 323.96 11.5483C323.545 10.8958 321.791 11.1813 320.067 11.1813ZM392.049 37.0992C392.305 34.4262 391.415 32.2908 390.217 30.6892C389.049 29.032 386.892 27.8605 384.182 27.145C381.498 26.3739 377.687 26.0069 373.175 26.0069H357.07C352.625 26.0069 348.784 26.3739 345.537 27.145C342.308 27.8568 339.509 29.0358 337.125 30.6967C334.759 32.2982 333.265 34.4299 331.527 37.1029C329.84 39.7722 328.854 43.0309 327.448 46.8865L318.859 70.4947C318.114 72.5449 318.05 74.2058 320.101 74.2058H325.943C327.993 74.2058 329.236 72.5449 329.981 70.4947L338.411 47.3314C339.141 45.3146 340.398 43.6834 341.143 42.4377C341.981 41.1328 343.197 40.1244 344.283 39.4126C345.396 38.6452 346.853 37.9926 348.332 37.696C349.855 37.3995 351.832 37.1363 353.911 37.1363H368.329C370.457 37.1363 372.114 37.3995 373.375 37.696C374.687 37.9926 375.569 38.5896 376.059 39.357C376.63 40.0688 376.874 41.1105 376.697 42.4118C376.596 43.6574 376.218 45.3183 375.488 47.3351L367.058 70.4984C366.312 72.5486 367.265 74.2095 369.304 74.2095H375.147C377.197 74.2095 381.138 72.5486 381.883 70.4984L390.473 46.8902C391.882 43.0309 391.849 39.7685 392.049 37.0992ZM54.1596 144.015C52.9992 142.524 53.9892 139.866 56.247 138.398L87.3773 118.037C90.8288 115.802 90.8955 111.279 87.444 111.279H80.6967C79.7995 111.279 78.7281 111.828 77.8383 112.425L42.793 135.236C39.6233 137.334 35.6046 135.747 36.765 132.559L42.9969 115.439C43.7384 113.392 44.5429 111.279 42.4927 111.279H36.4758C34.4257 111.279 32.6164 113.392 31.8749 115.439L12.4893 168.705C11.7442 170.756 12.8378 170.596 14.8843 170.596H20.9014C22.9516 170.596 22.8625 170.752 23.6077 168.705L30.062 150.962C31.2224 147.778 36.4424 146.076 38.081 148.174L56.955 170.585C57.411 171.178 58.9125 170.596 59.8133 170.596H67.0612C70.4868 170.596 73.2969 167.263 71.5433 165.009L54.1596 144.015ZM118.793 107.572H114.433C112.769 107.572 110.848 108.198 109.896 108.851C109.028 109.444 107.719 110.749 107.2 112.176L105.321 117.34C104.802 118.76 105.084 120.284 105.495 120.94C105.973 121.593 107.371 122.405 109.035 122.405H113.395C115.119 122.405 116.732 121.593 117.625 120.94C118.582 120.284 119.635 118.76 120.154 117.34L122.033 112.176C122.552 110.749 122.526 109.444 122.026 108.851C121.611 108.198 120.517 107.572 118.793 107.572ZM112.969 126.108H106.859C104.817 126.108 101.776 127.091 101.031 129.141L86.6321 168.705C85.887 170.756 88.623 170.596 90.6657 170.596H96.7754C98.8256 170.596 100.716 170.752 101.461 168.705L115.861 129.141C116.606 127.091 115.019 126.108 112.969 126.108ZM215.736 128.37C214.887 126.946 213.812 125.015 211.851 124.358C209.915 123.65 207.676 122.401 204.469 122.401H192.458C187.716 122.401 183.567 124.006 180.679 125.43C179.289 126.105 177.854 127.402 176.694 128.444C175.545 129.467 173.283 129.723 172.909 128.677C172.586 127.613 171.882 126.861 170.874 126.208C169.943 125.497 168.957 124.125 167.315 123.769C165.72 123.413 164.011 122.397 161.579 122.397H149.927C146.72 122.397 143.569 123.647 141.111 124.355C138.679 125.011 136.366 126.494 134.479 127.917C132.599 129.341 131.116 131.376 129.722 133.567C128.354 135.703 127.287 138.476 126.208 141.445L116.287 168.702C115.542 170.752 116.78 170.592 118.83 170.592H124.317C126.36 170.592 126.664 170.748 127.409 168.702L136.614 143.403C137.715 140.378 139.339 139.158 140.8 138.09C142.331 136.963 144.796 137.23 147.462 137.23H155.918C157.931 137.23 159.837 136.548 161.038 136.845C162.254 137.082 163.255 137.112 163.726 137.768C164.282 138.361 164.041 138.954 163.908 139.963C163.859 140.912 163.107 141.92 162.569 143.407L153.364 168.705C152.619 170.756 155.399 170.596 157.449 170.596H161.694C163.737 170.596 163.744 170.752 164.489 168.705L173.695 143.407C174.236 141.924 175.626 140.704 176.268 139.759C176.931 138.754 178.129 137.953 179.052 137.36C180.057 136.704 181.135 137.089 182.466 136.852C183.879 136.555 185.462 137.238 187.423 137.238H196.046C198.601 137.238 199.809 136.974 200.521 138.098C201.322 139.165 200.747 140.385 199.646 143.41L190.441 168.709C189.696 170.759 192.858 170.6 194.908 170.6H200.484C202.534 170.6 204.525 170.756 205.27 168.709L215.191 141.453C216.27 138.483 216.704 135.936 216.889 133.801C217.089 131.602 216.577 129.793 215.736 128.37Z" fill="#EAEDF3"/>
<path d="M322.252 136.303C322.24 136.285 322.222 136.27 322.211 136.248C322.2 136.229 322.188 136.211 322.177 136.192C322.166 136.177 322.159 136.166 322.152 136.151C322.122 136.103 322.088 136.059 322.062 136.011C322.051 135.996 322.044 135.981 322.033 135.962C322.018 135.944 322.007 135.925 321.996 135.907C321.981 135.884 321.97 135.866 321.959 135.847C321.948 135.825 321.933 135.81 321.922 135.788C321.911 135.769 321.896 135.751 321.888 135.729C321.877 135.718 321.87 135.707 321.859 135.692C321.833 135.643 321.799 135.599 321.77 135.551C321.77 135.54 321.758 135.532 321.751 135.521C321.725 135.473 321.692 135.428 321.666 135.38C321.655 135.365 321.644 135.351 321.632 135.332C321.621 135.314 321.61 135.295 321.599 135.276C321.588 135.262 321.581 135.251 321.573 135.236C321.544 135.187 321.51 135.143 321.484 135.095C321.481 135.084 321.473 135.076 321.466 135.065C321.44 135.017 321.402 134.972 321.377 134.924C321.369 134.906 321.354 134.895 321.347 134.876C321.336 134.858 321.321 134.839 321.314 134.817C321.303 134.806 321.295 134.794 321.284 134.78C321.258 134.731 321.225 134.687 321.195 134.639C321.195 134.628 321.184 134.62 321.177 134.609C321.151 134.561 321.117 134.516 321.091 134.468C321.087 134.457 321.076 134.45 321.069 134.439C321.047 134.398 321.017 134.361 320.995 134.316C320.965 134.272 320.935 134.231 320.91 134.186C320.906 134.175 320.898 134.168 320.891 134.157C320.865 134.109 320.828 134.064 320.802 134.016C320.798 134.005 320.791 133.997 320.783 133.986C320.758 133.946 320.732 133.908 320.706 133.868C320.691 133.842 320.68 133.819 320.665 133.793C320.639 133.76 320.617 133.727 320.594 133.693C320.568 133.649 320.535 133.608 320.513 133.564C320.509 133.553 320.498 133.545 320.491 133.534C320.468 133.493 320.439 133.456 320.416 133.412C320.402 133.389 320.387 133.367 320.372 133.345C320.35 133.308 320.324 133.274 320.305 133.245C320.275 133.197 320.246 133.156 320.22 133.111C320.216 133.1 320.209 133.093 320.201 133.082C320.176 133.041 320.15 133.004 320.124 132.963C320.109 132.937 320.098 132.915 320.083 132.889C320.057 132.856 320.035 132.822 320.012 132.789C320.001 132.767 319.986 132.744 319.972 132.722C319.949 132.685 319.923 132.652 319.901 132.622C319.879 132.581 319.853 132.544 319.831 132.507C319.816 132.485 319.801 132.463 319.786 132.44C319.764 132.403 319.738 132.37 319.72 132.34C319.705 132.314 319.69 132.292 319.679 132.266C319.653 132.233 319.627 132.199 319.608 132.166C319.593 132.144 319.579 132.121 319.567 132.099C319.556 132.077 319.538 132.062 319.527 132.04C319.516 132.021 319.504 132.003 319.493 131.981C319.467 131.947 319.445 131.914 319.423 131.881C319.412 131.858 319.397 131.836 319.382 131.814C319.36 131.777 319.334 131.743 319.312 131.714C319.301 131.688 319.286 131.666 319.271 131.64C319.26 131.621 319.245 131.606 319.234 131.584C319.223 131.565 319.212 131.547 319.197 131.528C319.175 131.491 319.149 131.458 319.13 131.428C319.115 131.402 319.1 131.38 319.089 131.354C319.063 131.321 319.037 131.287 319.019 131.254C319.004 131.232 318.989 131.209 318.978 131.187C318.967 131.165 318.948 131.15 318.937 131.128C318.926 131.109 318.915 131.091 318.904 131.069C318.889 131.05 318.878 131.032 318.867 131.009C318.856 130.991 318.837 130.976 318.826 130.954C318.815 130.935 318.804 130.917 318.793 130.898C318.77 130.861 318.744 130.828 318.722 130.798C318.711 130.772 318.696 130.75 318.681 130.724C318.67 130.705 318.655 130.69 318.644 130.668C318.633 130.65 318.622 130.631 318.607 130.613C315.315 124.9 309.187 121.359 301.005 121.359C284.652 121.359 266.197 135.495 259.876 152.871C256.706 161.584 257.177 169.476 260.495 175.189C260.506 175.212 260.521 175.227 260.532 175.249C260.543 175.267 260.558 175.286 260.566 175.308C260.577 175.319 260.584 175.33 260.595 175.345C260.621 175.393 260.654 175.438 260.684 175.486C260.692 175.505 260.703 175.516 260.714 175.534C260.725 175.553 260.736 175.571 260.747 175.594C260.762 175.612 260.773 175.631 260.784 175.653C260.795 175.671 260.814 175.686 260.825 175.708C260.836 175.727 260.847 175.746 260.858 175.764C260.869 175.779 260.877 175.79 260.884 175.805C260.914 175.853 260.947 175.898 260.973 175.946C260.977 175.957 260.984 175.964 260.992 175.975C261.021 176.024 261.055 176.068 261.081 176.116C261.088 176.135 261.099 176.146 261.11 176.164C261.122 176.183 261.136 176.202 261.144 176.224C261.155 176.235 261.162 176.246 261.174 176.261C261.199 176.309 261.233 176.354 261.262 176.402C261.266 176.413 261.274 176.42 261.281 176.431C261.307 176.48 261.34 176.524 261.37 176.572C261.377 176.587 261.392 176.602 261.4 176.62C261.411 176.639 261.422 176.658 261.433 176.676C261.444 176.691 261.451 176.702 261.459 176.717C261.489 176.765 261.522 176.81 261.548 176.858C261.552 176.869 261.559 176.876 261.566 176.887C261.596 176.936 261.63 176.98 261.656 177.028C261.659 177.039 261.666 177.047 261.674 177.058C261.696 177.099 261.726 177.136 261.752 177.177C261.778 177.225 261.811 177.266 261.837 177.31C261.841 177.321 261.848 177.329 261.856 177.34C261.881 177.388 261.915 177.432 261.945 177.481C261.945 177.492 261.956 177.499 261.963 177.51C261.989 177.551 262.015 177.588 262.037 177.633C262.052 177.655 262.067 177.677 262.082 177.699C262.104 177.736 262.13 177.77 262.152 177.799C262.178 177.848 262.208 177.888 262.234 177.933C262.237 177.944 262.245 177.951 262.252 177.963C262.274 178.003 262.304 178.04 262.33 178.081C262.345 178.107 262.356 178.129 262.371 178.155C262.397 178.189 262.419 178.222 262.441 178.255C262.467 178.3 262.501 178.341 262.527 178.385C262.527 178.396 262.538 178.404 262.545 178.415C262.571 178.456 262.597 178.493 262.619 178.537C262.634 178.559 262.649 178.582 262.664 178.604C262.686 178.641 262.712 178.674 262.734 178.704C262.745 178.73 262.76 178.752 262.771 178.778C262.797 178.812 262.823 178.845 262.842 178.878C262.864 178.915 262.894 178.952 262.916 178.986C262.931 179.012 262.942 179.034 262.957 179.06C262.983 179.093 263.005 179.127 263.027 179.16C263.038 179.182 263.053 179.204 263.068 179.227C263.09 179.264 263.116 179.297 263.138 179.327C263.149 179.353 263.164 179.375 263.179 179.401C263.19 179.42 263.205 179.434 263.216 179.457C263.227 179.475 263.242 179.494 263.253 179.512C263.275 179.549 263.301 179.583 263.324 179.612C263.335 179.638 263.35 179.66 263.361 179.686C263.387 179.72 263.413 179.753 263.431 179.787C263.446 179.809 263.461 179.831 263.476 179.853C263.483 179.875 263.502 179.89 263.513 179.913C263.524 179.931 263.535 179.95 263.546 179.972C263.572 180.005 263.594 180.039 263.617 180.072C263.628 180.094 263.643 180.116 263.657 180.139C263.68 180.176 263.706 180.209 263.728 180.239C263.739 180.265 263.754 180.287 263.768 180.313C263.78 180.332 263.794 180.346 263.806 180.369C263.817 180.387 263.832 180.406 263.843 180.424C263.858 180.446 263.869 180.465 263.88 180.484C263.891 180.506 263.906 180.521 263.917 180.543C263.928 180.561 263.939 180.58 263.95 180.602C263.976 180.636 264.002 180.669 264.021 180.702C264.036 180.724 264.05 180.747 264.065 180.769C264.073 180.791 264.091 180.806 264.102 180.828C264.113 180.847 264.124 180.865 264.136 180.888C267.431 186.597 273.56 190.137 281.742 190.137C298.095 190.137 316.546 176.001 322.871 158.625C326.044 149.913 325.566 142.02 322.252 136.303Z" fill="url(#paint1_linear_1418_897)"/>
<path d="M311.828 152.908C306.983 166.218 293.099 177.006 280.813 177.006C268.527 177.006 262.499 166.218 267.34 152.908C272.182 139.599 286.066 128.811 298.352 128.811C310.638 128.811 316.67 139.599 311.828 152.908Z" fill="#EAEDF3"/>
<path d="M404.685 133.319C404.674 133.304 404.663 133.289 404.651 133.271C404.64 133.252 404.633 133.237 404.622 133.223C404.614 133.208 404.603 133.2 404.596 133.189C404.57 133.148 404.54 133.108 404.518 133.063C404.511 133.052 404.503 133.037 404.492 133.022C404.481 133.008 404.47 132.993 404.462 132.974C404.451 132.952 404.436 132.941 404.429 132.922C404.418 132.904 404.407 132.889 404.396 132.87C404.384 132.852 404.373 132.837 404.366 132.819C404.355 132.811 404.351 132.804 404.34 132.789C404.314 132.752 404.288 132.707 404.262 132.663C404.262 132.655 404.251 132.648 404.244 132.637C404.218 132.596 404.195 132.552 404.17 132.511C404.158 132.496 404.147 132.485 404.14 132.47C404.129 132.455 404.121 132.437 404.11 132.422C404.103 132.407 404.095 132.4 404.088 132.388C404.066 132.344 404.032 132.303 404.01 132.262C404.003 132.255 403.999 132.248 403.991 132.236C403.965 132.196 403.936 132.155 403.914 132.11C403.906 132.096 403.895 132.084 403.888 132.07C403.877 132.055 403.869 132.036 403.858 132.018C403.851 132.007 403.843 132.003 403.832 131.988C403.806 131.951 403.78 131.907 403.754 131.862C403.754 131.855 403.743 131.847 403.736 131.836C403.71 131.795 403.687 131.751 403.662 131.71C403.654 131.703 403.647 131.695 403.639 131.684C403.621 131.651 403.595 131.614 403.573 131.577C403.55 131.54 403.524 131.499 403.498 131.462C403.491 131.454 403.487 131.447 403.48 131.436C403.454 131.395 403.421 131.354 403.402 131.31C403.398 131.302 403.391 131.295 403.387 131.284C403.369 131.247 403.339 131.213 403.317 131.18C403.306 131.158 403.295 131.139 403.28 131.117C403.258 131.087 403.239 131.058 403.221 131.028C403.198 130.991 403.165 130.95 403.146 130.913C403.143 130.906 403.132 130.898 403.124 130.887C403.106 130.854 403.083 130.817 403.061 130.779C403.05 130.761 403.035 130.742 403.02 130.724C402.998 130.694 402.98 130.661 402.961 130.635C402.935 130.594 402.905 130.557 402.883 130.516C402.879 130.509 402.872 130.501 402.868 130.49C402.85 130.453 402.82 130.42 402.798 130.387C402.787 130.364 402.776 130.346 402.761 130.323C402.738 130.294 402.72 130.264 402.701 130.235C402.69 130.216 402.679 130.197 402.664 130.175C402.642 130.146 402.624 130.116 402.605 130.086C402.583 130.049 402.564 130.016 402.542 129.982C402.531 129.964 402.516 129.945 402.501 129.927C402.479 129.897 402.46 129.864 402.442 129.838C402.431 129.816 402.416 129.797 402.408 129.775C402.382 129.745 402.364 129.715 402.345 129.686C402.334 129.664 402.32 129.649 402.308 129.627C402.301 129.608 402.282 129.597 402.271 129.575C402.264 129.56 402.257 129.541 402.245 129.523C402.223 129.489 402.201 129.463 402.182 129.434C402.171 129.415 402.16 129.397 402.145 129.374C402.123 129.345 402.101 129.315 402.086 129.285C402.075 129.263 402.064 129.241 402.049 129.219C402.038 129.204 402.027 129.193 402.016 129.171C402.004 129.156 401.993 129.141 401.982 129.122C401.96 129.093 401.941 129.059 401.923 129.033C401.912 129.011 401.897 128.993 401.89 128.97C401.864 128.941 401.845 128.911 401.826 128.881C401.815 128.859 401.8 128.844 401.789 128.822C401.782 128.803 401.764 128.792 401.752 128.77C401.745 128.755 401.738 128.737 401.726 128.718C401.715 128.7 401.704 128.685 401.693 128.666C401.682 128.648 401.667 128.637 401.656 128.618C401.649 128.603 401.637 128.588 401.626 128.57C401.608 128.537 401.582 128.511 401.567 128.481C401.556 128.459 401.545 128.44 401.53 128.414C401.519 128.399 401.508 128.388 401.497 128.366C401.485 128.351 401.474 128.336 401.463 128.318C397.934 123.713 393.174 120.173 385.97 120.173C371.578 120.173 355.337 132.615 349.772 147.904C346.98 155.57 347.855 162.281 350.317 167.545C350.324 167.564 350.339 167.578 350.35 167.597C350.358 167.612 350.373 167.63 350.376 167.649C350.387 167.66 350.395 167.667 350.406 167.682C350.432 167.719 350.458 167.764 350.484 167.808C350.487 167.823 350.499 167.834 350.51 167.849C350.517 167.864 350.528 167.879 350.536 167.901C350.551 167.916 350.558 167.934 350.569 167.953C350.576 167.971 350.595 167.982 350.606 168.001C350.617 168.016 350.625 168.034 350.636 168.049C350.647 168.06 350.651 168.071 350.658 168.083C350.684 168.123 350.717 168.164 350.736 168.209C350.74 168.216 350.747 168.223 350.754 168.235C350.78 168.275 350.806 168.316 350.832 168.357C350.836 168.372 350.847 168.383 350.855 168.398C350.866 168.412 350.881 168.431 350.884 168.45C350.895 168.457 350.903 168.464 350.914 168.479C350.94 168.516 350.966 168.561 350.992 168.605C350.992 168.613 350.999 168.62 351.006 168.631C351.032 168.672 351.062 168.713 351.084 168.754C351.092 168.768 351.103 168.78 351.11 168.794C351.121 168.809 351.129 168.828 351.14 168.843C351.151 168.854 351.155 168.865 351.162 168.876C351.188 168.917 351.222 168.958 351.24 169.002C351.244 169.009 351.251 169.017 351.259 169.028C351.284 169.069 351.311 169.109 351.337 169.154C351.337 169.161 351.344 169.169 351.351 169.18C351.37 169.213 351.396 169.25 351.418 169.284C351.44 169.324 351.47 169.362 351.496 169.402C351.496 169.41 351.503 169.417 351.511 169.428C351.537 169.469 351.563 169.51 351.589 169.554C351.589 169.562 351.596 169.569 351.603 169.58C351.626 169.614 351.644 169.651 351.67 169.688C351.685 169.706 351.696 169.729 351.707 169.747C351.729 169.78 351.752 169.806 351.77 169.836C351.796 169.877 351.819 169.914 351.848 169.955C351.848 169.962 351.855 169.97 351.863 169.981C351.881 170.014 351.907 170.051 351.93 170.085C351.944 170.107 351.952 170.125 351.967 170.148C351.989 170.177 352.011 170.207 352.03 170.237C352.052 170.274 352.082 170.314 352.107 170.351C352.107 170.359 352.115 170.366 352.122 170.377C352.145 170.411 352.167 170.448 352.189 170.485C352.2 170.503 352.215 170.522 352.226 170.541C352.249 170.574 352.274 170.6 352.289 170.629C352.3 170.652 352.308 170.674 352.323 170.696C352.341 170.726 352.363 170.756 352.382 170.785C352.401 170.819 352.43 170.848 352.449 170.882C352.464 170.904 352.471 170.922 352.486 170.945C352.508 170.974 352.527 171.004 352.545 171.034C352.556 171.052 352.571 171.071 352.582 171.093C352.604 171.126 352.63 171.152 352.645 171.182C352.656 171.204 352.671 171.223 352.682 171.245C352.69 171.26 352.704 171.275 352.716 171.293C352.723 171.308 352.738 171.323 352.745 171.341C352.764 171.375 352.79 171.404 352.808 171.43C352.819 171.453 352.827 171.471 352.842 171.493C352.86 171.523 352.883 171.553 352.901 171.582C352.912 171.605 352.931 171.619 352.942 171.642C352.949 171.66 352.964 171.671 352.975 171.693C352.982 171.708 352.994 171.723 353.005 171.745C353.023 171.775 353.045 171.805 353.064 171.834C353.075 171.853 353.09 171.871 353.101 171.894C353.123 171.927 353.149 171.953 353.164 171.983C353.175 172.005 353.19 172.023 353.201 172.046C353.209 172.061 353.223 172.075 353.235 172.094C353.242 172.109 353.257 172.124 353.264 172.142C353.275 172.164 353.287 172.179 353.298 172.194C353.309 172.213 353.32 172.227 353.331 172.246C353.338 172.261 353.349 172.276 353.361 172.298C353.379 172.327 353.401 172.357 353.42 172.387C353.431 172.409 353.45 172.424 353.461 172.446C353.468 172.465 353.483 172.476 353.494 172.498C353.502 172.513 353.513 172.531 353.524 172.55C356.467 177.551 361.817 180.691 369.02 180.691C383.412 180.691 399.65 168.249 405.219 152.96C408.018 145.297 407.754 138.253 404.685 133.319Z" fill="url(#paint2_linear_1418_897)"/>
<path d="M395.506 147.933C391.246 159.648 379.027 169.143 368.209 169.143C357.398 169.143 352.089 159.648 356.357 147.933C360.616 136.222 372.836 126.724 383.65 126.724C394.464 126.724 399.769 136.222 395.506 147.933Z" fill="#EAEDF3"/>
<path d="M486.95 116.087C486.943 116.072 486.932 116.061 486.921 116.043C486.913 116.028 486.902 116.017 486.895 116.002C486.887 115.991 486.88 115.98 486.873 115.968C486.85 115.931 486.828 115.898 486.806 115.865C486.798 115.854 486.795 115.842 486.784 115.828C486.772 115.813 486.761 115.798 486.754 115.783C486.743 115.768 486.732 115.753 486.724 115.739C486.717 115.724 486.709 115.713 486.698 115.694C486.691 115.679 486.683 115.664 486.672 115.65C486.665 115.642 486.657 115.631 486.65 115.62C486.628 115.583 486.606 115.55 486.58 115.516C486.58 115.505 486.568 115.501 486.565 115.494C486.546 115.457 486.524 115.416 486.498 115.386C486.487 115.375 486.48 115.364 486.472 115.349C486.465 115.335 486.457 115.323 486.446 115.309C486.439 115.297 486.435 115.286 486.428 115.275C486.405 115.238 486.376 115.208 486.357 115.171C486.354 115.16 486.346 115.157 486.342 115.149C486.324 115.112 486.294 115.075 486.272 115.042C486.265 115.027 486.257 115.019 486.25 115.005C486.242 114.99 486.227 114.975 486.224 114.96C486.216 114.953 486.209 114.945 486.202 114.93C486.176 114.897 486.157 114.86 486.131 114.827C486.131 114.815 486.124 114.815 486.116 114.804C486.09 114.771 486.072 114.73 486.05 114.697C486.046 114.689 486.038 114.682 486.035 114.675C486.016 114.641 485.994 114.612 485.975 114.582C485.957 114.549 485.927 114.519 485.909 114.486C485.905 114.474 485.901 114.474 485.894 114.463C485.868 114.43 485.846 114.389 485.823 114.356C485.82 114.348 485.816 114.341 485.812 114.334C485.794 114.3 485.768 114.271 485.753 114.245C485.738 114.222 485.731 114.207 485.72 114.189C485.701 114.163 485.683 114.137 485.664 114.111C485.645 114.078 485.619 114.044 485.601 114.015C485.597 114.007 485.59 114 485.583 113.992C485.568 113.959 485.549 113.929 485.53 113.9C485.519 113.881 485.504 113.866 485.493 113.848C485.479 113.822 485.456 113.796 485.442 113.77C485.419 113.733 485.397 113.7 485.375 113.67C485.375 113.663 485.367 113.659 485.36 113.648C485.338 113.618 485.319 113.588 485.301 113.559C485.289 113.54 485.286 113.522 485.271 113.499C485.256 113.477 485.234 113.451 485.219 113.422C485.212 113.407 485.201 113.388 485.189 113.37C485.175 113.344 485.152 113.318 485.134 113.292C485.115 113.262 485.093 113.236 485.078 113.207C485.071 113.188 485.06 113.173 485.048 113.155C485.03 113.125 485.015 113.103 484.997 113.077C484.982 113.058 484.978 113.04 484.967 113.021C484.948 112.991 484.926 112.969 484.911 112.943C484.904 112.928 484.886 112.91 484.878 112.895C484.871 112.877 484.856 112.865 484.848 112.851C484.841 112.836 484.833 112.821 484.826 112.802C484.804 112.78 484.789 112.754 484.77 112.725C484.759 112.71 484.752 112.695 484.737 112.673C484.719 112.65 484.7 112.624 484.685 112.595C484.678 112.576 484.663 112.558 484.656 112.539C484.648 112.524 484.633 112.513 484.626 112.498C484.618 112.484 484.607 112.472 484.596 112.454C484.578 112.432 484.559 112.402 484.548 112.376C484.537 112.358 484.526 112.339 484.515 112.32C484.5 112.295 484.481 112.269 484.463 112.243C484.452 112.228 484.44 112.209 484.433 112.194C484.426 112.176 484.411 112.168 484.4 112.15C484.392 112.135 484.385 112.12 484.374 112.102C484.366 112.091 484.359 112.076 484.348 112.057C484.341 112.042 484.322 112.031 484.314 112.016C484.307 112.002 484.3 111.987 484.292 111.972C484.277 111.946 484.251 111.924 484.237 111.894C484.225 111.879 484.218 111.857 484.207 111.839C484.196 111.824 484.188 111.816 484.177 111.798C484.17 111.783 484.159 111.768 484.151 111.753C481.775 107.342 476.989 104.72 470.772 104.72C458.337 104.72 444.309 115.468 439.504 128.677C437.094 135.298 437.591 141.226 439.975 145.642C439.982 145.657 439.994 145.668 440.005 145.686C440.012 145.701 440.019 145.712 440.027 145.731C440.034 145.738 440.042 145.749 440.049 145.76C440.071 145.794 440.094 145.831 440.12 145.864C440.123 145.879 440.134 145.883 440.145 145.901C440.153 145.916 440.16 145.931 440.168 145.946C440.179 145.961 440.19 145.976 440.197 145.99C440.205 146.005 440.22 146.016 440.227 146.035C440.235 146.05 440.242 146.061 440.253 146.076C440.26 146.087 440.264 146.098 440.271 146.109C440.294 146.142 440.32 146.179 440.346 146.213C440.346 146.224 440.353 146.228 440.357 146.235C440.379 146.272 440.405 146.309 440.427 146.343C440.435 146.357 440.442 146.365 440.45 146.38C440.457 146.394 440.472 146.406 440.475 146.424C440.486 146.432 440.49 146.443 440.498 146.454C440.516 146.487 440.55 146.521 440.568 146.558C440.572 146.569 440.576 146.569 440.583 146.58C440.609 146.613 440.635 146.65 440.653 146.687C440.657 146.698 440.672 146.71 440.676 146.724C440.683 146.739 440.694 146.75 440.702 146.765C440.709 146.776 440.716 146.787 440.72 146.799C440.739 146.836 440.772 146.865 440.791 146.902C440.794 146.913 440.798 146.917 440.805 146.925C440.831 146.958 440.854 146.999 440.876 147.032C440.88 147.04 440.883 147.047 440.887 147.054C440.905 147.084 440.931 147.117 440.946 147.143C440.968 147.18 440.998 147.21 441.017 147.243C441.02 147.255 441.024 147.258 441.028 147.266C441.05 147.303 441.076 147.34 441.102 147.373C441.102 147.381 441.109 147.388 441.117 147.395C441.139 147.421 441.154 147.458 441.172 147.488C441.184 147.507 441.195 147.521 441.206 147.54C441.221 147.566 441.243 147.592 441.258 147.618C441.28 147.655 441.302 147.688 441.324 147.718C441.324 147.725 441.332 147.729 441.339 147.74C441.358 147.766 441.38 147.799 441.399 147.829C441.41 147.848 441.417 147.866 441.428 147.885C441.447 147.911 441.465 147.937 441.48 147.963C441.499 147.996 441.525 148.029 441.547 148.059C441.547 148.066 441.558 148.074 441.562 148.081C441.58 148.115 441.606 148.141 441.621 148.174C441.628 148.192 441.643 148.207 441.654 148.226C441.673 148.252 441.688 148.278 441.706 148.304C441.717 148.322 441.725 148.341 441.736 148.359C441.754 148.385 441.773 148.411 441.788 148.437C441.803 148.467 441.829 148.496 441.843 148.519C441.858 148.541 441.866 148.556 441.877 148.574C441.895 148.6 441.91 148.626 441.929 148.652C441.94 148.667 441.951 148.682 441.962 148.7C441.981 148.726 441.999 148.752 442.014 148.778C442.021 148.797 442.036 148.815 442.044 148.834C442.051 148.849 442.066 148.86 442.073 148.875C442.081 148.889 442.096 148.904 442.103 148.919C442.118 148.945 442.14 148.967 442.155 148.997C442.162 149.016 442.173 149.034 442.184 149.053C442.199 149.079 442.218 149.105 442.236 149.13C442.248 149.145 442.262 149.16 442.27 149.179C442.281 149.193 442.288 149.205 442.299 149.223C442.307 149.238 442.314 149.253 442.325 149.271C442.34 149.294 442.362 149.32 442.377 149.349C442.385 149.364 442.399 149.383 442.407 149.397C442.425 149.427 442.448 149.449 442.463 149.475C442.474 149.49 442.485 149.509 442.496 149.531C442.503 149.546 442.511 149.553 442.522 149.572C442.529 149.586 442.537 149.601 442.548 149.616C442.559 149.631 442.57 149.646 442.577 149.661C442.585 149.679 442.6 149.69 442.607 149.705C442.615 149.72 442.622 149.735 442.629 149.75C442.648 149.776 442.666 149.801 442.685 149.827C442.696 149.842 442.711 149.857 442.718 149.876C442.73 149.89 442.741 149.905 442.748 149.92C442.755 149.935 442.763 149.95 442.77 149.968C444.958 154.473 449.94 156.997 456.157 156.997C468.588 156.997 482.613 146.25 487.421 133.041C489.831 126.431 489.334 120.503 486.95 116.087Z" fill="url(#paint3_linear_1418_897)"/>
<path d="M479.022 128.707C475.337 138.824 464.786 147.024 455.443 147.024C446.101 147.024 441.522 138.82 445.2 128.707C448.885 118.589 459.436 110.389 468.775 110.389C478.114 110.389 482.707 118.589 479.022 128.707Z" fill="#EAEDF3"/>
<path d="M469.646 60.7369C469.642 60.7258 469.627 60.7146 469.62 60.6998C469.613 60.6887 469.609 60.6776 469.598 60.6665C469.59 60.6591 469.587 60.6479 469.583 60.6405C469.568 60.6072 469.546 60.5812 469.524 60.5515C469.516 60.5441 469.513 60.533 469.505 60.5219C469.494 60.5108 469.49 60.4996 469.479 60.4848C469.472 60.4737 469.464 60.4626 469.457 60.4477C469.45 60.4329 469.442 60.4255 469.435 60.4107C469.427 60.3996 469.416 60.3847 469.412 60.3736C469.405 60.3699 469.398 60.3588 469.394 60.3514C469.379 60.318 469.353 60.292 469.335 60.2624C469.335 60.255 469.327 60.2512 469.324 60.2438C469.305 60.2142 469.287 60.1808 469.264 60.1512C469.257 60.1437 469.253 60.1363 469.242 60.1215C469.234 60.1104 469.231 60.0955 469.22 60.0881C469.216 60.0807 469.212 60.0696 469.205 60.0622C469.183 60.0325 469.168 60.0028 469.145 59.9732C469.145 59.9658 469.138 59.9621 469.134 59.9547C469.116 59.925 469.09 59.8953 469.075 59.862C469.071 59.8508 469.06 59.8435 469.057 59.8323C469.049 59.8212 469.038 59.8064 469.034 59.7953C469.027 59.7916 469.023 59.7804 469.016 59.773C468.994 59.7433 468.979 59.7137 468.957 59.684C468.957 59.6766 468.949 59.6729 468.945 59.6655C468.927 59.6358 468.908 59.6024 468.886 59.5728C468.886 59.5691 468.879 59.5617 468.875 59.5543C468.86 59.5283 468.841 59.5023 468.827 59.4764C468.808 59.4467 468.79 59.4208 468.767 59.3949C468.767 59.3875 468.76 59.3837 468.756 59.3763C468.738 59.3467 468.716 59.3133 468.697 59.2837C468.697 59.28 468.693 59.2762 468.686 59.2651C468.667 59.2392 468.653 59.2132 468.638 59.1873C468.627 59.1687 468.619 59.1539 468.612 59.1427C468.597 59.1205 468.578 59.0983 468.563 59.0761C468.545 59.0501 468.526 59.0204 468.508 58.9945C468.508 58.9908 468.5 58.9833 468.497 58.9759C468.482 58.95 468.463 58.924 468.449 58.8981C468.441 58.8833 468.426 58.8721 468.419 58.8573C468.404 58.8351 468.389 58.8128 468.378 58.7905C468.36 58.7609 468.341 58.7313 468.323 58.7053C468.319 58.7016 468.315 58.6979 468.308 58.6867C468.289 58.6608 468.278 58.6349 468.259 58.6089C468.248 58.5904 468.245 58.5755 468.234 58.5607C468.222 58.5422 468.196 58.5236 468.185 58.4977C468.182 58.4866 468.171 58.4718 468.163 58.4532C468.152 58.431 468.126 58.4124 468.115 58.3902C468.1 58.3679 468.085 58.342 468.07 58.316C468.063 58.3012 468.052 58.2864 468.044 58.2753C468.03 58.253 468.015 58.2308 468 58.2085C467.989 58.1937 467.981 58.1789 467.974 58.164C467.963 58.1418 467.941 58.1232 467.929 58.0973C467.922 58.0862 467.907 58.0713 467.904 58.0565C467.893 58.0417 467.885 58.0343 467.878 58.0195C467.87 58.0046 467.863 57.9935 467.855 57.9787C467.844 57.9601 467.826 57.9379 467.811 57.9157C467.803 57.9045 467.792 57.8897 467.785 57.8711C467.774 57.8489 467.748 57.8304 467.737 57.8081C467.729 57.7933 467.718 57.7785 467.711 57.7599C467.707 57.7488 467.696 57.7414 467.688 57.7265C467.685 57.7154 467.674 57.7006 467.666 57.6895C467.651 57.6672 467.633 57.645 467.626 57.6227C467.611 57.6079 467.603 57.5931 467.596 57.5783C467.581 57.556 467.566 57.5338 467.551 57.5115C467.544 57.5004 467.533 57.4856 467.525 57.4707C467.518 57.4559 467.507 57.4485 467.5 57.4337C467.492 57.4189 467.485 57.4077 467.477 57.3929C467.47 57.3855 467.462 57.3707 467.455 57.3558C467.448 57.3447 467.433 57.3336 467.429 57.3225C467.418 57.3113 467.414 57.3002 467.407 57.2854C467.392 57.2632 467.373 57.2409 467.359 57.2224C467.355 57.2076 467.344 57.1927 467.336 57.1742C467.329 57.1631 467.318 57.1557 467.31 57.1408C467.307 57.1297 467.296 57.1148 467.288 57.1037C465.06 53.5187 461.256 51.1794 456.018 51.1794C445.545 51.1794 433.73 60.2327 429.681 71.3547C427.65 76.9305 427.627 82.1949 430.074 85.6427C430.085 85.6575 430.093 85.6649 430.1 85.6798C430.107 85.6909 430.111 85.702 430.122 85.7168C430.13 85.7242 430.133 85.7317 430.137 85.7428C430.152 85.7724 430.178 85.8021 430.196 85.8318C430.204 85.8429 430.211 85.8503 430.219 85.8614C430.226 85.8725 430.234 85.8837 430.241 85.8985C430.248 85.9134 430.256 85.9207 430.263 85.9356C430.271 85.9504 430.282 85.9578 430.289 85.9726C430.297 85.9837 430.304 85.9949 430.311 86.006C430.315 86.0134 430.323 86.0246 430.33 86.032C430.348 86.0579 430.367 86.0913 430.389 86.121C430.389 86.1284 430.393 86.132 430.397 86.1395C430.419 86.1691 430.441 86.2025 430.456 86.2284C430.463 86.2396 430.471 86.247 430.478 86.2581C430.486 86.2693 430.493 86.2804 430.5 86.2952C430.508 86.2989 430.512 86.31 430.515 86.3174C430.53 86.3471 430.552 86.3767 430.575 86.4064C430.582 86.4138 430.586 86.4175 430.589 86.425C430.608 86.4546 430.63 86.4843 430.649 86.5139C430.652 86.5251 430.664 86.5325 430.667 86.5436C430.671 86.5547 430.682 86.5658 430.689 86.577C430.693 86.5844 430.701 86.5955 430.704 86.6029C430.719 86.6362 430.749 86.6585 430.764 86.6918C430.767 86.6993 430.771 86.703 430.775 86.7104C430.797 86.7401 430.816 86.7734 430.834 86.8031C430.838 86.8068 430.841 86.8142 430.845 86.8216C430.86 86.8476 430.882 86.8735 430.897 86.8995C430.916 86.9291 430.938 86.9588 430.953 86.9848C430.956 86.9922 430.96 86.9958 430.964 87.0033C430.982 87.0329 431.005 87.0663 431.027 87.096C431.027 87.0997 431.034 87.1071 431.038 87.1145C431.053 87.1404 431.071 87.1664 431.086 87.1924C431.094 87.2072 431.105 87.2183 431.116 87.2368C431.131 87.2554 431.149 87.2776 431.16 87.2999C431.179 87.3295 431.194 87.3592 431.212 87.3851C431.216 87.3888 431.22 87.3962 431.223 87.4037C431.238 87.4259 431.26 87.4518 431.275 87.4815C431.286 87.4963 431.294 87.5149 431.301 87.526C431.316 87.5483 431.331 87.5705 431.346 87.5927C431.361 87.6187 431.383 87.6483 431.401 87.6743C431.401 87.678 431.412 87.6854 431.416 87.6928C431.431 87.7188 431.446 87.7447 431.461 87.7707C431.468 87.7855 431.483 87.7966 431.494 87.8115C431.509 87.83 431.524 87.8522 431.535 87.8745C431.542 87.8893 431.553 87.9041 431.561 87.9227C431.572 87.9449 431.594 87.9635 431.605 87.9857C431.62 88.0117 431.642 88.0339 431.653 88.0561C431.665 88.0747 431.672 88.0858 431.679 88.1006C431.694 88.1229 431.709 88.1452 431.724 88.1674C431.731 88.1785 431.742 88.1933 431.75 88.2081C431.765 88.2304 431.783 88.2526 431.794 88.2749C431.802 88.2897 431.813 88.3046 431.82 88.3194C431.828 88.3305 431.839 88.3416 431.842 88.3527C431.853 88.3638 431.861 88.375 431.868 88.3898C431.88 88.4121 431.898 88.4343 431.913 88.4565C431.92 88.4714 431.931 88.4862 431.935 88.501C431.954 88.5233 431.972 88.5418 431.983 88.5677C431.991 88.5789 431.998 88.5937 432.009 88.6085C432.017 88.6196 432.028 88.6308 432.035 88.6456C432.043 88.6605 432.05 88.6679 432.054 88.6864C432.072 88.705 432.087 88.7272 432.102 88.7494C432.109 88.7606 432.121 88.7754 432.128 88.7902C432.143 88.8125 432.158 88.8347 432.173 88.8569C432.176 88.8718 432.187 88.8866 432.198 88.9014C432.206 88.9126 432.213 88.9237 432.221 88.9348C432.228 88.9459 432.235 88.957 432.246 88.9719C432.254 88.983 432.265 88.9978 432.269 89.0089C432.276 89.0238 432.287 89.0349 432.291 89.046C432.302 89.0572 432.31 89.0683 432.313 89.0831C432.332 89.1053 432.347 89.1239 432.361 89.1498C432.369 89.161 432.376 89.1758 432.387 89.1906C432.391 89.2055 432.406 89.2128 432.41 89.2277C432.421 89.2388 432.425 89.2536 432.432 89.2685C434.015 93.1797 438.467 95.1891 443.706 95.1891C454.175 95.1891 465.991 86.1358 470.039 75.0138C472.074 69.4491 471.299 64.6296 469.646 60.7369Z" fill="url(#paint4_linear_1418_897)"/>
<path d="M462.974 71.3659C459.867 79.8853 450.981 86.7957 443.114 86.7957C435.243 86.7957 431.388 79.8853 434.487 71.3659C437.59 62.8427 446.476 55.936 454.343 55.936C462.21 55.936 466.073 62.8464 462.974 71.3659Z" fill="#EAEDF3"/>
<path d="M468.722 10.3247C468.718 10.3136 468.707 10.3062 468.703 10.2951C468.696 10.284 468.692 10.2766 468.685 10.2654C468.677 10.258 468.674 10.2506 468.67 10.2432C468.655 10.2172 468.64 10.195 468.622 10.1691C468.618 10.1616 468.614 10.1542 468.607 10.1431C468.599 10.1357 468.596 10.1246 468.588 10.1134C468.581 10.1023 468.573 10.0949 468.57 10.0837C468.562 10.0726 468.555 10.0652 468.551 10.0541C468.544 10.043 468.536 10.0319 468.533 10.0207C468.525 10.017 468.521 10.0096 468.518 10.0022C468.503 9.97628 468.484 9.95402 468.47 9.92807C468.47 9.92065 468.462 9.91696 468.458 9.91325C468.444 9.8873 468.429 9.8613 468.414 9.83535C468.406 9.82794 468.403 9.82054 468.395 9.81312C468.388 9.802 468.384 9.79089 468.377 9.78348C468.373 9.77606 468.369 9.76866 468.366 9.76125C468.347 9.7353 468.332 9.71304 468.317 9.68708C468.314 9.67967 468.31 9.67597 468.306 9.67226C468.292 9.64631 468.273 9.62038 468.258 9.59442C468.254 9.58701 468.247 9.57955 468.243 9.57214C468.236 9.56101 468.229 9.54994 468.225 9.53882C468.221 9.53511 468.217 9.52768 468.21 9.52026C468.195 9.49431 468.18 9.47205 468.162 9.4461C468.162 9.43868 468.154 9.43499 468.151 9.43128C468.14 9.40533 468.121 9.37939 468.106 9.35344C468.102 9.34973 468.099 9.34603 468.095 9.33862C468.084 9.31637 468.065 9.29782 468.054 9.27187C468.039 9.24962 468.025 9.22736 468.01 9.20511C468.006 9.1977 468.002 9.194 467.999 9.19029C467.988 9.16434 467.965 9.13841 467.95 9.11245C467.95 9.10875 467.947 9.10505 467.943 9.09763C467.928 9.07539 467.913 9.05686 467.902 9.03461C467.895 9.01979 467.888 9.00863 467.88 8.99751C467.865 8.97897 467.854 8.96043 467.843 8.9419C467.828 8.91965 467.813 8.89371 467.798 8.87147C467.798 8.86776 467.791 8.86406 467.787 8.85665C467.776 8.8344 467.761 8.81585 467.75 8.7899C467.743 8.77877 467.732 8.76764 467.724 8.75652C467.713 8.73798 467.702 8.71945 467.691 8.70091C467.676 8.67867 467.661 8.65273 467.647 8.63048C467.643 8.62678 467.639 8.62308 467.635 8.61566C467.621 8.59342 467.609 8.57489 467.595 8.55265C467.587 8.53782 467.58 8.52669 467.572 8.51186C467.561 8.49703 467.546 8.47852 467.535 8.45998C467.532 8.44886 467.524 8.4377 467.517 8.42288C467.506 8.40434 467.491 8.38954 467.48 8.371C467.468 8.34876 467.454 8.33023 467.443 8.30798C467.435 8.29686 467.428 8.28573 467.42 8.27461C467.405 8.25607 467.394 8.23754 467.383 8.219C467.376 8.20788 467.369 8.19672 467.365 8.18189C467.35 8.16335 467.335 8.14853 467.328 8.12628C467.32 8.11516 467.309 8.10409 467.305 8.09296C467.298 8.08184 467.291 8.07439 467.283 8.06326C467.279 8.05214 467.272 8.04101 467.268 8.02989C467.254 8.01506 467.242 7.99655 467.231 7.97801C467.224 7.96689 467.216 7.95579 467.209 7.94096C467.198 7.92243 467.183 7.90757 467.172 7.88903C467.165 7.8742 467.157 7.86307 467.15 7.84825C467.146 7.84083 467.139 7.8334 467.131 7.82228C467.127 7.81116 467.12 7.80005 467.113 7.79264C467.101 7.7741 467.087 7.75557 467.079 7.73703C467.068 7.72591 467.061 7.7111 467.057 7.69998C467.042 7.68144 467.031 7.66291 467.02 7.64437C467.013 7.63325 467.005 7.62212 466.998 7.61099C466.994 7.59987 466.983 7.59247 466.975 7.58135C466.972 7.57023 466.964 7.5591 466.961 7.54798C466.953 7.54056 466.946 7.5294 466.942 7.51828C466.935 7.50715 466.923 7.49976 466.92 7.48863C466.912 7.47751 466.909 7.47011 466.901 7.45899C466.89 7.44046 466.875 7.42189 466.864 7.40706C466.861 7.39223 466.853 7.3811 466.846 7.36628C466.838 7.35886 466.831 7.35149 466.823 7.34037C466.82 7.32924 466.812 7.31808 466.805 7.31067C465.092 4.3374 461.904 2.49487 457.644 2.49487C449.132 2.49487 439.53 9.85021 436.242 18.8924C434.592 23.4264 434.84 27.5341 436.564 30.5074C436.572 30.5185 436.579 30.5259 436.587 30.537C436.59 30.5482 436.598 30.5556 436.601 30.5667C436.609 30.5741 436.613 30.5815 436.616 30.589C436.631 30.6112 436.65 30.6372 436.665 30.6631C436.668 30.6742 436.676 30.6779 436.683 30.689C436.687 30.6964 436.694 30.7076 436.698 30.7187C436.705 30.7299 436.713 30.7373 436.716 30.7484C436.724 30.7595 436.735 30.7669 436.739 30.778C436.746 30.7891 436.75 30.7966 436.757 30.8077C436.761 30.8151 436.765 30.8225 436.772 30.8299C436.787 30.8522 436.802 30.8782 436.82 30.9041C436.82 30.9115 436.824 30.9152 436.828 30.9189C436.842 30.9449 436.861 30.9708 436.876 30.993C436.88 31.0042 436.887 31.0116 436.891 31.019C436.898 31.0301 436.905 31.0375 436.909 31.0524C436.917 31.0561 436.92 31.0635 436.924 31.0709C436.939 31.0932 436.954 31.1191 436.972 31.145C436.976 31.1525 436.98 31.1562 436.983 31.1599C436.994 31.1859 437.013 31.2118 437.032 31.234C437.035 31.2451 437.043 31.2526 437.046 31.26C437.05 31.2711 437.057 31.2785 437.065 31.2896C437.069 31.297 437.072 31.3044 437.076 31.3119C437.091 31.3378 437.109 31.3601 437.124 31.386C437.128 31.3934 437.131 31.3971 437.135 31.4008C437.15 31.4268 437.169 31.4528 437.183 31.4787C437.183 31.4824 437.187 31.4861 437.191 31.4936C437.206 31.5121 437.22 31.5343 437.232 31.5566C437.246 31.5825 437.265 31.6048 437.28 31.627C437.28 31.6344 437.284 31.6381 437.287 31.6418C437.302 31.6678 437.321 31.6937 437.339 31.7197C437.339 31.7234 437.343 31.7271 437.347 31.7345C437.361 31.7531 437.373 31.7753 437.387 31.7976C437.395 31.8124 437.402 31.8235 437.41 31.8346C437.421 31.8532 437.436 31.8717 437.447 31.8865C437.458 31.9125 437.473 31.9347 437.491 31.9607C437.491 31.9644 437.495 31.9681 437.499 31.9755C437.51 31.994 437.524 32.0163 437.539 32.0385C437.547 32.0534 437.554 32.0645 437.562 32.0756C437.577 32.0941 437.587 32.1127 437.599 32.1312C437.61 32.1535 437.628 32.1757 437.643 32.2016C437.643 32.2053 437.651 32.209 437.654 32.2165C437.665 32.2387 437.68 32.2573 437.691 32.2832C437.699 32.2943 437.706 32.3055 437.717 32.3166C437.729 32.3351 437.74 32.3536 437.751 32.3685C437.758 32.3833 437.765 32.3944 437.773 32.4092C437.784 32.4278 437.799 32.4426 437.806 32.4612C437.821 32.4834 437.836 32.5019 437.847 32.5205C437.854 32.5353 437.862 32.5464 437.869 32.5576C437.88 32.5761 437.892 32.5946 437.903 32.6132C437.91 32.6243 437.917 32.6354 437.925 32.6465C437.936 32.6687 437.951 32.6836 437.962 32.7021C437.969 32.7169 437.977 32.7281 437.984 32.7392C437.988 32.7503 437.999 32.7577 438.003 32.7689C438.01 32.78 438.018 32.7874 438.021 32.7985C438.032 32.817 438.047 32.8356 438.058 32.8541C438.066 32.8652 438.073 32.8764 438.077 32.8912C438.092 32.9098 438.107 32.9246 438.114 32.9468C438.121 32.9579 438.129 32.9691 438.136 32.9802C438.144 32.9913 438.151 32.9987 438.158 33.0098C438.162 33.021 438.17 33.0284 438.173 33.0432C438.188 33.058 438.199 33.0766 438.21 33.0951C438.218 33.1062 438.225 33.1173 438.233 33.1285C438.244 33.1507 438.259 33.1655 438.27 33.1841C438.273 33.1989 438.281 33.2101 438.292 33.2212C438.296 33.2323 438.303 33.2397 438.31 33.2508C438.314 33.2619 438.322 33.2693 438.329 33.2805C438.336 33.2916 438.344 33.3027 438.348 33.3101C438.355 33.3249 438.362 33.3324 438.366 33.3435C438.374 33.3509 438.381 33.362 438.385 33.3731C438.399 33.3917 438.411 33.4065 438.422 33.4288C438.429 33.4399 438.437 33.451 438.444 33.4621C438.448 33.4732 438.459 33.4807 438.463 33.4918C438.47 33.5029 438.477 33.514 438.481 33.5251C440.198 36.4947 443.386 38.3372 447.646 38.3372C456.154 38.3372 465.756 30.9819 469.044 21.9398C470.694 17.4057 470.449 13.2943 468.722 10.3247Z" fill="url(#paint5_linear_1418_897)"/>
<path d="M463.296 18.9627C460.772 25.888 453.55 31.5046 447.155 31.5046C440.759 31.5046 437.627 25.888 440.144 18.9627C442.661 12.0375 449.891 6.4209 456.286 6.4209C462.681 6.4209 465.817 12.0338 463.296 18.9627Z" fill="#EAEDF3"/>
<defs>
<linearGradient id="paint0_linear_1418_897" x1="207.359" y1="0" x2="207.359" y2="200.136" gradientUnits="userSpaceOnUse">
<stop offset="0.254166" stop-color="#E93CAC"/>
<stop offset="0.504166" stop-color="#1E22AA"/>
<stop offset="1" stop-color="#59CBE8"/>
</linearGradient>
<linearGradient id="paint1_linear_1418_897" x1="291.373" y1="121.359" x2="291.373" y2="190.137" gradientUnits="userSpaceOnUse">
<stop offset="0.170833" stop-color="#E93CAC"/>
<stop offset="0.504166" stop-color="#1E22AA"/>
<stop offset="1" stop-color="#59CBE8"/>
</linearGradient>
<linearGradient id="paint2_linear_1418_897" x1="377.601" y1="120.173" x2="377.601" y2="180.691" gradientUnits="userSpaceOnUse">
<stop offset="0.170833" stop-color="#E93CAC"/>
<stop offset="0.504166" stop-color="#1E22AA"/>
<stop offset="1" stop-color="#59CBE8"/>
</linearGradient>
<linearGradient id="paint3_linear_1418_897" x1="463.463" y1="104.72" x2="463.463" y2="156.997" gradientUnits="userSpaceOnUse">
<stop offset="0.170833" stop-color="#E93CAC"/>
<stop offset="0.504166" stop-color="#1E22AA"/>
<stop offset="1" stop-color="#59CBE8"/>
</linearGradient>
<linearGradient id="paint4_linear_1418_897" x1="449.727" y1="51.1794" x2="449.727" y2="95.1891" gradientUnits="userSpaceOnUse">
<stop offset="0.170833" stop-color="#E93CAC"/>
<stop offset="0.504166" stop-color="#1E22AA"/>
<stop offset="1" stop-color="#59CBE8"/>
</linearGradient>
<linearGradient id="paint5_linear_1418_897" x1="452.644" y1="2.49487" x2="452.644" y2="38.3372" gradientUnits="userSpaceOnUse">
<stop offset="0.170833" stop-color="#E93CAC"/>
<stop offset="0.504166" stop-color="#1E22AA"/>
<stop offset="1" stop-color="#59CBE8"/>
</linearGradient>
</defs>
</svg>
