<svg width="36" height="36" viewBox="0 0 36 36" fill="none" xmlns="http://www.w3.org/2000/svg">
<g clip-path="url(#clip0_1433_890)">
<path d="M33.7692 7.82213C33.7633 7.81243 33.7537 7.80467 33.7479 7.79303C33.742 7.78332 33.7361 7.77362 33.7303 7.76392C33.7245 7.75616 33.7207 7.75033 33.7168 7.74257C33.7013 7.71735 33.6837 7.69407 33.6702 7.66884C33.6643 7.66108 33.6605 7.65332 33.6546 7.64362C33.6469 7.63391 33.6412 7.62421 33.6353 7.61451C33.6276 7.60287 33.6217 7.59315 33.6159 7.58345C33.6101 7.57181 33.6023 7.56403 33.5965 7.55239C33.5907 7.54269 33.5828 7.533 33.579 7.52136C33.5731 7.51554 33.5693 7.50973 33.5634 7.50196C33.5499 7.47674 33.5324 7.45343 33.5169 7.42821C33.5169 7.42239 33.5111 7.41851 33.5072 7.41269C33.4936 7.38747 33.4761 7.36419 33.4625 7.33896C33.4567 7.3312 33.4509 7.32344 33.4451 7.31374C33.4393 7.30403 33.4334 7.29433 33.4276 7.28463C33.4218 7.27687 33.418 7.27104 33.4141 7.26328C33.3986 7.23806 33.3811 7.21475 33.3675 7.18952C33.3656 7.1837 33.3617 7.17983 33.3578 7.17401C33.3443 7.14878 33.3248 7.12551 33.3112 7.10028C33.3073 7.09058 33.2995 7.08476 33.2957 7.07505C33.2898 7.06535 33.2821 7.05564 33.2782 7.04399C33.2724 7.03817 33.2685 7.03236 33.2627 7.0246C33.2491 6.99937 33.2317 6.97607 33.2162 6.95084C33.2162 6.94502 33.2104 6.94115 33.2065 6.93533C33.1929 6.9101 33.1754 6.88682 33.1618 6.8616C33.1599 6.85578 33.1541 6.85188 33.1502 6.84605C33.1386 6.82471 33.123 6.80532 33.1114 6.78204C33.0958 6.75875 33.0803 6.7374 33.0667 6.71411C33.0648 6.70829 33.0609 6.70442 33.057 6.6986C33.0434 6.67337 33.024 6.65007 33.0105 6.62484C33.0085 6.61902 33.0046 6.61515 33.0007 6.60933C32.9872 6.58798 32.9736 6.56858 32.96 6.54723C32.9522 6.53365 32.9464 6.522 32.9387 6.50842C32.9251 6.49095 32.9134 6.4735 32.9017 6.45604C32.8881 6.43275 32.8707 6.4114 32.8591 6.38811C32.8571 6.38229 32.8514 6.37842 32.8475 6.3726C32.8358 6.35125 32.8203 6.33184 32.8086 6.30855C32.8009 6.29691 32.7931 6.28526 32.7853 6.27361C32.7737 6.25421 32.7601 6.23676 32.7504 6.22123C32.7348 6.19601 32.7194 6.17467 32.7058 6.15138C32.7039 6.14556 32.7 6.14166 32.6961 6.13584C32.6825 6.11449 32.669 6.09509 32.6554 6.07375C32.6476 6.06016 32.6417 6.04851 32.6339 6.03493C32.6204 6.01747 32.6087 6.00001 32.5971 5.98255C32.5913 5.97091 32.5835 5.95925 32.5758 5.94761C32.5641 5.92821 32.5506 5.91076 32.539 5.89523C32.5273 5.87389 32.5136 5.85447 32.502 5.83507C32.4942 5.82342 32.4865 5.81177 32.4788 5.80013C32.4671 5.78072 32.4535 5.76327 32.4438 5.74775C32.4361 5.73416 32.4283 5.72251 32.4225 5.70893C32.4089 5.69146 32.3953 5.67401 32.3856 5.65655C32.3778 5.64491 32.3701 5.63325 32.3643 5.62161C32.3584 5.60997 32.3488 5.60222 32.3429 5.59058C32.3371 5.58088 32.3312 5.57116 32.3254 5.55952C32.3118 5.54205 32.3002 5.5246 32.2886 5.50714C32.2828 5.4955 32.275 5.48384 32.2673 5.4722C32.2556 5.4528 32.2421 5.43532 32.2304 5.41979C32.2246 5.40621 32.2167 5.39459 32.209 5.381C32.2032 5.3713 32.1954 5.36354 32.1896 5.3519C32.1837 5.34219 32.178 5.33249 32.1703 5.32279C32.1586 5.30339 32.145 5.28591 32.1353 5.27038C32.1276 5.2568 32.1197 5.24515 32.1139 5.23156C32.1003 5.2141 32.0867 5.19665 32.077 5.17918C32.0693 5.16754 32.0615 5.15589 32.0557 5.14424C32.0499 5.1326 32.0402 5.12486 32.0344 5.11321C32.0286 5.10351 32.0227 5.0938 32.0169 5.08215C32.0091 5.07245 32.0033 5.06277 31.9975 5.05112C31.9916 5.04142 31.982 5.03366 31.9761 5.02202C31.9703 5.01231 31.9645 5.00261 31.9587 4.99291C31.9471 4.97351 31.9334 4.95603 31.9218 4.9405C31.9159 4.92692 31.9082 4.91527 31.9005 4.90168C31.8946 4.89198 31.8868 4.88422 31.881 4.87258C31.8752 4.86287 31.8695 4.85317 31.8617 4.84347C30.1386 1.85317 26.9308 0 22.6482 0C14.0887 0 4.42892 7.39909 1.12038 16.4942C-0.538742 21.0543 -0.292315 25.1856 1.44442 28.1759C1.45025 28.1876 1.45803 28.1954 1.46385 28.207C1.46967 28.2167 1.4775 28.2264 1.48138 28.238C1.4872 28.2439 1.49107 28.2497 1.49689 28.2575C1.51048 28.2827 1.52792 28.306 1.54344 28.3312C1.54732 28.3409 1.55313 28.3467 1.55895 28.3564C1.56478 28.3661 1.57054 28.3758 1.57637 28.3875C1.58413 28.3972 1.58997 28.4069 1.59579 28.4185C1.60161 28.4282 1.6114 28.436 1.61723 28.4476C1.62305 28.4573 1.62882 28.467 1.63464 28.4767C1.64046 28.4845 1.64438 28.4903 1.64826 28.4981C1.66378 28.5233 1.68122 28.5466 1.6948 28.5718C1.69674 28.5776 1.70063 28.5815 1.70452 28.5873C1.72004 28.6126 1.73748 28.6358 1.75106 28.6611C1.75494 28.6708 1.76076 28.6766 1.76658 28.6863C1.7724 28.696 1.78022 28.7057 1.78411 28.7174C1.78993 28.7232 1.7938 28.729 1.79962 28.7367C1.8132 28.762 1.83064 28.7853 1.84617 28.8105C1.84811 28.8163 1.852 28.8202 1.85588 28.826C1.86946 28.8512 1.8869 28.8745 1.90243 28.8997C1.90631 28.9075 1.91406 28.9153 1.91794 28.925C1.92376 28.9347 1.92965 28.9444 1.93547 28.9541C1.94129 28.9618 1.94509 28.9677 1.94897 28.9754C1.9645 29.0007 1.98193 29.0239 1.99552 29.0492C1.99746 29.055 2.00135 29.0589 2.00523 29.0647C2.02075 29.0899 2.03831 29.1132 2.05189 29.1384C2.05383 29.1443 2.05761 29.1481 2.06149 29.1539C2.07313 29.1753 2.08877 29.1947 2.10235 29.216C2.11593 29.2413 2.1333 29.2626 2.14688 29.2859C2.14882 29.2917 2.15271 29.2956 2.15659 29.3014C2.17018 29.3267 2.18773 29.3499 2.20326 29.3752C2.20326 29.381 2.20897 29.3849 2.21285 29.3907C2.22644 29.4121 2.24006 29.4314 2.2517 29.4547C2.25946 29.4664 2.26727 29.478 2.27503 29.4897C2.28667 29.5091 2.30022 29.5265 2.31187 29.542C2.32545 29.5673 2.34092 29.5886 2.3545 29.6119C2.35644 29.6177 2.36033 29.6216 2.36422 29.6274C2.37586 29.6488 2.39138 29.6682 2.40496 29.6895C2.41272 29.7031 2.41863 29.7148 2.4264 29.7283C2.43998 29.7458 2.45159 29.7633 2.46323 29.7807C2.47681 29.804 2.4943 29.8254 2.50788 29.8486C2.50788 29.8545 2.51371 29.8583 2.51759 29.8642C2.53118 29.8855 2.54468 29.9049 2.55632 29.9282C2.56408 29.9399 2.57189 29.9515 2.57965 29.9631C2.5913 29.9826 2.60485 30 2.61649 30.0155C2.62231 30.0291 2.63009 30.0408 2.63591 30.0543C2.6495 30.0718 2.66304 30.0893 2.67275 30.1067C2.68439 30.1261 2.69995 30.1455 2.7116 30.163C2.71936 30.1766 2.72515 30.1882 2.73291 30.2018C2.7465 30.2193 2.75822 30.2367 2.76987 30.2542C2.77569 30.2659 2.78342 30.2775 2.79119 30.2891C2.80283 30.3086 2.81638 30.326 2.82802 30.3415C2.83384 30.3551 2.84158 30.3668 2.84934 30.3803C2.85516 30.39 2.86294 30.3978 2.86876 30.4095C2.87458 30.4192 2.88237 30.4289 2.88819 30.4386C2.89983 30.458 2.91338 30.4754 2.92502 30.491C2.93084 30.5046 2.93862 30.5162 2.94444 30.5298C2.95803 30.5472 2.97158 30.5647 2.98128 30.5822C2.98904 30.5938 2.99685 30.6054 3.00461 30.6171C3.00849 30.6287 3.01821 30.6365 3.02404 30.6481C3.02986 30.6578 3.03562 30.6676 3.04145 30.6792C3.05503 30.6967 3.06676 30.7141 3.0784 30.7316C3.08422 30.7432 3.09196 30.7549 3.09972 30.7665C3.11136 30.7859 3.12491 30.8034 3.13655 30.8189C3.14237 30.8325 3.15011 30.8441 3.15787 30.8577C3.16369 30.8674 3.17147 30.8752 3.17729 30.8868C3.18312 30.8965 3.1909 30.9062 3.19672 30.9159C3.20448 30.9276 3.21032 30.9373 3.21614 30.947C3.22196 30.9586 3.22974 30.9664 3.23557 30.978C3.24139 30.9877 3.24715 30.9974 3.25298 31.0091C3.26656 31.0265 3.28023 31.044 3.28993 31.0615C3.29769 31.0731 3.30538 31.0848 3.31314 31.0964C3.31702 31.108 3.32675 31.1158 3.33257 31.1274C3.33839 31.1371 3.34416 31.1468 3.34998 31.1585C5.07507 34.1468 8.28275 36 12.5654 36C21.1249 36 30.7827 28.6009 34.0932 19.5058C35.7543 14.9457 35.504 10.8144 33.7692 7.82213Z" fill="url(#paint0_linear_1433_890)"/>
<path d="M28.3126 16.5136C25.7764 23.4799 18.5093 29.1268 12.0786 29.1268C5.64777 29.1268 2.49247 23.4799 5.02675 16.5136C7.56103 9.54722 14.8282 3.90039 21.2589 3.90039C27.6897 3.90039 30.8469 9.54722 28.3126 16.5136Z" fill="#EAEDF3"/>
</g>
<defs>
<linearGradient id="paint0_linear_1433_890" x1="17.6069" y1="0" x2="17.6069" y2="36" gradientUnits="userSpaceOnUse">
<stop offset="0.170833" stop-color="#E93CAC"/>
<stop offset="0.504166" stop-color="#1E22AA"/>
<stop offset="1" stop-color="#59CBE8"/>
</linearGradient>
<clipPath id="clip0_1433_890">
<rect width="36" height="36" fill="white"/>
</clipPath>
</defs>
</svg>
