<svg width="65" height="65" viewBox="0 0 65 65" fill="none" xmlns="http://www.w3.org/2000/svg">
<path d="M55.205 55.2044H45.605V40.1704C45.605 36.5854 45.541 31.9704 40.612 31.9704C35.612 31.9704 34.847 35.8764 34.847 39.9094V55.2034H25.2469V24.2874H34.463V28.5124H34.592C35.5143 26.9355 36.847 25.6382 38.4483 24.7587C40.0496 23.8793 41.8594 23.4506 43.685 23.5184C53.415 23.5184 55.209 29.9184 55.209 38.2444L55.205 55.2044ZM14.415 20.0614C13.3131 20.0616 12.236 19.7351 11.3197 19.1231C10.4034 18.5111 9.68929 17.6412 9.26746 16.6233C8.84562 15.6054 8.73506 14.4853 8.94983 13.4045C9.16459 12.3238 9.69502 11.3311 10.474 10.5518C11.253 9.77257 12.2455 9.24181 13.3262 9.02665C14.4068 8.8115 15.5269 8.92163 16.545 9.3431C17.563 9.76457 18.4332 10.4785 19.0455 11.3945C19.6578 12.3105 19.9848 13.3876 19.985 14.4894C19.9851 15.221 19.8411 15.9455 19.5613 16.6214C19.2814 17.2974 18.8712 17.9116 18.354 18.429C17.8368 18.9464 17.2227 19.3569 16.5468 19.637C15.871 19.917 15.1466 20.0613 14.415 20.0614V20.0614ZM19.215 55.2044H9.60498V24.2874H19.215V55.2044ZM59.991 0.00441416H4.78101C3.5279 -0.00972719 2.32037 0.474209 1.42389 1.34988C0.527404 2.22555 0.0152935 3.42132 0 4.67441V60.1134C0.0147701 61.3671 0.52658 62.5637 1.42303 63.4403C2.31949 64.3169 3.52727 64.8018 4.78101 64.7884H59.991C61.2472 64.8042 62.4583 64.3207 63.3583 63.4441C64.2583 62.5676 64.7736 61.3696 64.791 60.1134V4.67041C64.773 3.41483 64.2574 2.21771 63.3574 1.34206C62.4574 0.466407 61.2466 -0.0161471 59.991 0.000412547" fill="#FF6E59"/>
</svg>
