<svg width="140" height="95" viewBox="0 0 140 95" fill="none" xmlns="http://www.w3.org/2000/svg">
<rect width="43.176" height="67.7078" transform="matrix(0.866044 0.499967 -0.866044 0.499967 80.624 19.5903)" fill="white"/>
<path d="M54.0442 46.6622C66.9587 38.9287 72.7431 27.4991 73.4004 23.7607L21.9859 53.4423L59.3783 75.0289L90.9737 56.7888C95.4758 47.4489 70.4707 55.5372 57.6328 60.9216C70.1391 47.4472 60.4514 45.801 54.0442 46.6622Z" fill="#1D2B53" stroke="#1D2B53" stroke-width="1.00153" stroke-linecap="round" stroke-linejoin="round"/>
<path d="M73.9668 23.4336C73.3586 27.1436 67.7504 38.4715 55.0171 46.1004C61.3699 45.2706 71.0105 46.944 58.7512 60.2758C71.4364 54.9795 96.1727 47.0464 91.8131 56.3041" stroke="#1D2B53" stroke-width="0.801223" stroke-linecap="round" stroke-linejoin="round" stroke-dasharray="0.2 2"/>
<path d="M64.0589 48.0498C63.4663 48.392 62.8001 48.6076 62.2216 48.6895C61.6329 48.7729 61.2225 48.7101 60.9994 48.5813C60.7763 48.4525 60.6676 48.2156 60.812 47.8758C60.9539 47.5418 61.3274 47.1572 61.9201 46.8151C62.5127 46.4729 63.1789 46.2573 63.7574 46.1754C64.3461 46.092 64.7565 46.1548 64.9796 46.2836C65.2027 46.4124 65.3114 46.6493 65.167 46.9892C65.0251 47.3231 64.6516 47.7077 64.0589 48.0498Z" fill="#FFB985" stroke="#1D2B53" stroke-width="0.801223"/>
<path d="M74.5404 24.3374C73.9477 24.6796 73.2816 24.8952 72.7031 24.9771C72.1143 25.0605 71.704 24.9977 71.4809 24.8689C71.2578 24.7401 71.149 24.5032 71.2934 24.1634C71.4353 23.8294 71.8089 23.4448 72.4015 23.1027C72.9942 22.7605 73.6603 22.5449 74.2388 22.463C74.8276 22.3796 75.2379 22.4424 75.461 22.5712C75.6841 22.7 75.7929 22.9369 75.6485 23.2768C75.5066 23.6107 75.1331 23.9953 74.5404 24.3374Z" fill="#FFB985" stroke="#1D2B53" stroke-width="0.801223"/>
<path d="M92.6703 53.1192C92.0776 53.4613 91.4115 53.677 90.833 53.7589C90.2442 53.8422 89.8339 53.7795 89.6108 53.6507C89.3877 53.5219 89.2789 53.285 89.4233 52.9451C89.5652 52.6111 89.9387 52.2266 90.5314 51.8844C91.1241 51.5423 91.7902 51.3266 92.3687 51.2447C92.9575 51.1613 93.3678 51.2241 93.5909 51.3529C93.814 51.4817 93.9228 51.7186 93.7784 52.0585C93.6365 52.3925 93.2629 52.777 92.6703 53.1192Z" fill="#FFB985" stroke="#1D2B53" stroke-width="0.801223"/>
<path fill-rule="evenodd" clip-rule="evenodd" d="M123.682 41.1771L80.624 16.3198L16.3206 53.4422L59.3784 78.2995L123.682 41.1771ZM118.016 41.1771L80.624 19.5905L21.9861 53.4422L59.3784 75.0288L118.016 41.1771Z" fill="#FF6E59"/>
</svg>
