<svg width="136" height="36" viewBox="0 0 136 36" fill="none" xmlns="http://www.w3.org/2000/svg">
<rect y="2" width="132" height="34" rx="2" fill="#1D2B53"/>
<rect x="4" width="132" height="34" rx="2" fill="#FF6E59"/>
<rect x="2" y="2" width="132" height="32" rx="2" fill="#FFF1E8"/>
<path d="M21.232 22C21.232 22.96 21.112 23.824 20.872 24.592C20.632 25.36 20.28 26.012 19.816 26.548C19.36 27.076 18.788 27.484 18.1 27.772C17.42 28.052 16.636 28.192 15.748 28.192C14.948 28.192 14.124 28.08 13.276 27.856L13.42 26.344C13.436 26.2 13.488 26.084 13.576 25.996C13.672 25.9 13.812 25.852 13.996 25.852C14.132 25.852 14.316 25.888 14.548 25.96C14.788 26.024 15.1 26.056 15.484 26.056C15.996 26.056 16.448 25.98 16.84 25.828C17.24 25.676 17.576 25.44 17.848 25.12C18.12 24.792 18.324 24.376 18.46 23.872C18.604 23.368 18.676 22.764 18.676 22.06V10.768H21.232V22ZM34.6512 15.808V28H33.2472C32.9272 28 32.7192 27.844 32.6232 27.532L32.4552 26.308C32.1912 26.588 31.9152 26.844 31.6272 27.076C31.3392 27.308 31.0312 27.508 30.7032 27.676C30.3752 27.836 30.0272 27.96 29.6592 28.048C29.2912 28.144 28.8952 28.192 28.4712 28.192C27.7992 28.192 27.2072 28.08 26.6952 27.856C26.1912 27.632 25.7672 27.32 25.4232 26.92C25.0792 26.512 24.8192 26.024 24.6432 25.456C24.4672 24.888 24.3792 24.26 24.3792 23.572V15.808H26.7312V23.572C26.7312 24.444 26.9312 25.124 27.3312 25.612C27.7312 26.092 28.3432 26.332 29.1672 26.332C29.7672 26.332 30.3272 26.192 30.8472 25.912C31.3672 25.624 31.8552 25.232 32.3112 24.736V15.808H34.6512ZM45.1054 17.908C45.0414 18.012 44.9734 18.088 44.9014 18.136C44.8294 18.176 44.7374 18.196 44.6254 18.196C44.4974 18.196 44.3534 18.152 44.1934 18.064C44.0414 17.976 43.8534 17.88 43.6294 17.776C43.4134 17.672 43.1574 17.576 42.8614 17.488C42.5654 17.4 42.2134 17.356 41.8054 17.356C41.4694 17.356 41.1614 17.4 40.8814 17.488C40.6094 17.568 40.3774 17.684 40.1854 17.836C39.9934 17.98 39.8454 18.156 39.7414 18.364C39.6374 18.564 39.5854 18.78 39.5854 19.012C39.5854 19.316 39.6734 19.568 39.8494 19.768C40.0334 19.968 40.2694 20.14 40.5574 20.284C40.8534 20.428 41.1854 20.56 41.5534 20.68C41.9294 20.792 42.3094 20.912 42.6934 21.04C43.0854 21.168 43.4654 21.316 43.8334 21.484C44.2094 21.644 44.5414 21.848 44.8294 22.096C45.1254 22.336 45.3614 22.628 45.5374 22.972C45.7214 23.316 45.8134 23.736 45.8134 24.232C45.8134 24.8 45.7094 25.328 45.5014 25.816C45.3014 26.296 45.0014 26.712 44.6014 27.064C44.2094 27.416 43.7214 27.692 43.1374 27.892C42.5534 28.092 41.8854 28.192 41.1334 28.192C40.2934 28.192 39.5174 28.052 38.8054 27.772C38.0934 27.492 37.4974 27.136 37.0174 26.704L37.5694 25.804C37.6334 25.692 37.7134 25.608 37.8094 25.552C37.9054 25.488 38.0334 25.456 38.1934 25.456C38.3454 25.456 38.5014 25.512 38.6614 25.624C38.8214 25.736 39.0134 25.86 39.2374 25.996C39.4614 26.124 39.7334 26.244 40.0534 26.356C40.3734 26.46 40.7734 26.512 41.2534 26.512C41.6534 26.512 42.0014 26.464 42.2974 26.368C42.5934 26.264 42.8374 26.128 43.0294 25.96C43.2294 25.784 43.3774 25.584 43.4734 25.36C43.5694 25.136 43.6174 24.9 43.6174 24.652C43.6174 24.332 43.5254 24.068 43.3414 23.86C43.1654 23.644 42.9294 23.46 42.6334 23.308C42.3454 23.156 42.0134 23.024 41.6374 22.912C41.2614 22.8 40.8774 22.68 40.4854 22.552C40.0934 22.424 39.7094 22.276 39.3334 22.108C38.9574 21.94 38.6214 21.728 38.3254 21.472C38.0374 21.216 37.8014 20.904 37.6174 20.536C37.4414 20.168 37.3534 19.72 37.3534 19.192C37.3534 18.72 37.4494 18.268 37.6414 17.836C37.8414 17.404 38.1254 17.024 38.4934 16.696C38.8694 16.368 39.3294 16.108 39.8734 15.916C40.4254 15.716 41.0534 15.616 41.7574 15.616C42.5654 15.616 43.2934 15.744 43.9414 16C44.5974 16.256 45.1574 16.608 45.6214 17.056L45.1054 17.908ZM59.9031 28H57.5511V17.704H51.4311V24.844C51.4311 25.324 51.5471 25.684 51.7791 25.924C52.0191 26.156 52.3231 26.272 52.6911 26.272C52.9071 26.272 53.0911 26.244 53.2431 26.188C53.4031 26.132 53.5391 26.072 53.6511 26.008C53.7631 25.936 53.8591 25.872 53.9391 25.816C54.0191 25.76 54.0911 25.732 54.1551 25.732C54.2351 25.732 54.2951 25.752 54.3351 25.792C54.3831 25.824 54.4311 25.88 54.4791 25.96L55.1751 27.088C54.7911 27.44 54.3351 27.712 53.8071 27.904C53.2791 28.096 52.7311 28.192 52.1631 28.192C51.1791 28.192 50.4191 27.916 49.8831 27.364C49.3551 26.812 49.0911 26.024 49.0911 25V17.704H47.6751C47.5391 17.704 47.4231 17.664 47.3271 17.584C47.2391 17.496 47.1951 17.368 47.1951 17.2V16.252L49.1871 15.976L49.7031 12.34C49.7351 12.204 49.7951 12.1 49.8831 12.028C49.9791 11.948 50.0991 11.908 50.2431 11.908H51.4311V16H59.9031V28ZM60.4311 11.968C60.4311 12.184 60.3871 12.392 60.2991 12.592C60.2111 12.784 60.0911 12.956 59.9391 13.108C59.7951 13.252 59.6231 13.368 59.4231 13.456C59.2231 13.536 59.0151 13.576 58.7991 13.576C58.5831 13.576 58.3791 13.536 58.1871 13.456C57.9951 13.368 57.8231 13.252 57.6711 13.108C57.5271 12.956 57.4111 12.784 57.3231 12.592C57.2431 12.392 57.2031 12.184 57.2031 11.968C57.2031 11.744 57.2431 11.532 57.3231 11.332C57.4111 11.132 57.5271 10.96 57.6711 10.816C57.8231 10.664 57.9951 10.548 58.1871 10.468C58.3791 10.38 58.5831 10.336 58.7991 10.336C59.0151 10.336 59.2231 10.38 59.4231 10.468C59.6231 10.548 59.7951 10.664 59.9391 10.816C60.0911 10.96 60.2111 11.132 60.2991 11.332C60.3871 11.532 60.4311 11.744 60.4311 11.968ZM65.4963 17.5C65.7603 17.22 66.0363 16.964 66.3243 16.732C66.6123 16.5 66.9163 16.304 67.2363 16.144C67.5643 15.976 67.9123 15.848 68.2803 15.76C68.6563 15.664 69.0563 15.616 69.4803 15.616C70.1523 15.616 70.7403 15.728 71.2443 15.952C71.7563 16.176 72.1843 16.492 72.5283 16.9C72.8723 17.3 73.1323 17.784 73.3083 18.352C73.4843 18.92 73.5723 19.548 73.5723 20.236V28H71.2203V20.236C71.2203 19.364 71.0203 18.688 70.6203 18.208C70.2203 17.72 69.6083 17.476 68.7843 17.476C68.1843 17.476 67.6203 17.62 67.0923 17.908C66.5723 18.188 66.0883 18.572 65.6403 19.06V28H63.3003V15.808H64.7043C65.0323 15.808 65.2363 15.964 65.3163 16.276L65.4963 17.5ZM85.8363 18.22H86.6763C86.9803 18.22 87.2243 18.184 87.4083 18.112C87.6003 18.032 87.7723 17.9 87.9243 17.716L93.4083 11.344C93.5843 11.128 93.7643 10.98 93.9483 10.9C94.1323 10.812 94.3603 10.768 94.6323 10.768H96.8163L90.4323 18.112C90.2723 18.32 90.1123 18.488 89.9523 18.616C89.8003 18.744 89.6403 18.852 89.4723 18.94C89.9123 19.092 90.2963 19.4 90.6243 19.864L97.2603 28H95.0403C94.8803 28 94.7403 27.988 94.6203 27.964C94.5083 27.94 94.4083 27.908 94.3203 27.868C94.2403 27.82 94.1643 27.764 94.0923 27.7C94.0283 27.636 93.9683 27.56 93.9123 27.472L88.2363 20.752C88.1563 20.648 88.0763 20.56 87.9963 20.488C87.9163 20.416 87.8243 20.36 87.7203 20.32C87.6163 20.272 87.4963 20.24 87.3603 20.224C87.2243 20.2 87.0643 20.188 86.8803 20.188H85.8363V28H83.2803V10.768H85.8363V18.22ZM101.303 15.808V28H98.9629V15.808H101.303ZM101.747 12.04C101.747 12.256 101.703 12.464 101.615 12.664C101.527 12.856 101.407 13.028 101.255 13.18C101.111 13.324 100.939 13.44 100.739 13.528C100.539 13.608 100.331 13.648 100.115 13.648C99.8989 13.648 99.6949 13.608 99.5029 13.528C99.3109 13.44 99.1389 13.324 98.9869 13.18C98.8429 13.028 98.7269 12.856 98.6389 12.664C98.5589 12.464 98.5189 12.256 98.5189 12.04C98.5189 11.816 98.5589 11.608 98.6389 11.416C98.7269 11.216 98.8429 11.044 98.9869 10.9C99.1389 10.748 99.3109 10.632 99.5029 10.552C99.6949 10.464 99.8989 10.42 100.115 10.42C100.331 10.42 100.539 10.464 100.739 10.552C100.939 10.632 101.111 10.748 101.255 10.9C101.407 11.044 101.527 11.216 101.615 11.416C101.703 11.608 101.747 11.816 101.747 12.04ZM104.691 28V15.808H106.095C106.423 15.808 106.627 15.964 106.707 16.276L106.875 17.44C107.323 16.904 107.819 16.468 108.363 16.132C108.915 15.788 109.559 15.616 110.295 15.616C111.103 15.616 111.759 15.84 112.263 16.288C112.767 16.728 113.135 17.328 113.367 18.088C113.543 17.656 113.771 17.284 114.051 16.972C114.331 16.66 114.643 16.404 114.987 16.204C115.331 16.004 115.695 15.856 116.079 15.76C116.471 15.664 116.867 15.616 117.267 15.616C117.915 15.616 118.491 15.72 118.995 15.928C119.507 16.128 119.939 16.424 120.291 16.816C120.643 17.208 120.911 17.692 121.095 18.268C121.279 18.844 121.371 19.5 121.371 20.236V28H119.019V20.236C119.019 19.324 118.819 18.636 118.419 18.172C118.027 17.708 117.451 17.476 116.691 17.476C116.355 17.476 116.035 17.536 115.731 17.656C115.427 17.768 115.159 17.94 114.927 18.172C114.703 18.404 114.523 18.692 114.387 19.036C114.259 19.38 114.195 19.78 114.195 20.236V28H111.843V20.236C111.843 19.292 111.655 18.596 111.279 18.148C110.903 17.7 110.351 17.476 109.623 17.476C109.119 17.476 108.651 17.608 108.219 17.872C107.787 18.136 107.391 18.496 107.031 18.952V28H104.691Z" fill="#1D2B53"/>
</svg>
