<svg width="132" height="54" viewBox="0 0 132 54" fill="none" xmlns="http://www.w3.org/2000/svg">
<path d="M111.085 15.999C111.248 15.5 111.377 15.049 111.451 14.656C111.492 14.457 111.514 14.279 111.529 14.108L111.825 13.865C111.831 13.813 111.824 13.765 111.827 13.715L111.841 13.7C111.954 12.517 111.669 11.359 111.037 10.49C110.976 10.406 110.897 10.327 110.829 10.245C110.71 9.97701 110.571 9.72301 110.402 9.49101C110.341 9.40701 110.262 9.328 110.194 9.246C110.076 8.978 109.936 8.72401 109.768 8.49301C109.696 8.39401 109.606 8.303 109.524 8.207C109.407 7.942 109.267 7.689 109.1 7.459C109.039 7.376 108.96 7.299 108.893 7.218C108.775 6.949 108.634 6.69401 108.465 6.46101C108.318 6.25901 108.149 6.065 107.962 5.88C107.95 5.869 107.94 5.85901 107.928 5.84801C107.918 5.83801 107.908 5.828 107.898 5.819C107.887 5.807 107.875 5.796 107.863 5.785C107.852 5.775 107.842 5.76501 107.831 5.755C107.82 5.744 107.809 5.733 107.797 5.722C107.786 5.712 107.776 5.701 107.766 5.692C107.754 5.681 107.744 5.67001 107.732 5.65901C107.722 5.64901 107.711 5.639 107.702 5.63C107.694 5.623 107.689 5.614 107.681 5.608C107.128 5.07 106.373 4.66601 105.442 4.42101C104.683 4.20301 103.709 4.07701 102.558 4.03601C102.453 4.03201 102.36 4.01701 102.251 4.01701H102.206H102.16H102.115H102.069H102.024H101.978H101.933H101.887H101.842H101.796H101.751H97.9056H97.8605H97.8146H97.7695H97.7236H97.6785H97.6326H97.5875H97.5416H97.4965H97.4506H97.4056C95.9256 4.01701 94.6486 4.14901 93.5626 4.40701C93.2856 4.46801 93.0176 4.54701 92.7496 4.62601C92.7086 4.57401 92.6706 4.52001 92.6276 4.46901C92.6216 4.46301 92.6125 4.45901 92.6076 4.45201C92.4626 4.10101 92.2506 3.77601 91.9926 3.47101C91.8446 3.09901 91.6196 2.75601 91.3486 2.43301C91.3456 2.43001 91.3406 2.428 91.3386 2.425C91.1906 2.071 90.9726 1.74401 90.7116 1.43501C90.6226 1.33101 90.5036 1.24701 90.3826 1.16501C90.3106 1.05401 90.2516 0.936008 90.1586 0.833008C89.7236 0.280008 89.0116 0 88.0396 0C87.9146 0 87.7775 0.00400977 87.6345 0.0100098L87.4255 0.0160065H86.7485H86.7036H86.6575H86.6126H86.5665H86.5216H86.4755H86.4305H86.3845H86.3395H86.2935H86.2485L86.0665 0.0100098C85.9335 0.00400977 85.8075 0 85.6885 0C84.7015 0 83.7585 0.305009 82.8715 0.915009C82.5195 1.15501 81.5646 1.815 80.9006 3.024C80.8096 2.896 80.7115 2.77401 80.5946 2.66701C80.4526 2.25201 80.2216 1.895 79.8956 1.617C79.6116 0.829004 78.9976 0.248009 78.0236 0.0810089C77.8586 0.0430089 77.6866 0.0160065 77.4976 0.0160065H77.4526H77.4066H77.3616H77.3156H77.2706H77.2246H77.1796H77.1336H77.0886H77.0425H76.9996H75.8505H75.8055H75.7595H75.7145H75.6685H75.6235H75.5776H75.5325H75.4866H75.4415H75.3956H75.3505C73.1165 0.0160065 70.1435 2.15601 69.3505 4.33501L69.3336 4.38L69.3165 4.425L69.2996 4.47L69.2825 4.515L69.2656 4.56001L69.2496 4.60501L69.2326 4.65001L69.2156 4.69501L69.1986 4.74001L69.1815 4.785L69.1646 4.83L69.0936 5.02701C68.6606 5.35101 68.2665 5.743 67.9315 6.192C67.4215 6.874 67.1966 7.494 67.0416 7.916L67.0245 7.96101L67.0076 8.00601L66.9916 8.05101L66.9746 8.09601L66.9575 8.14101L66.9406 8.186L66.9235 8.231L66.9066 8.276L66.8895 8.321L66.8726 8.36601L66.8555 8.41101L66.6406 9.00301L66.6235 9.048L66.6066 9.093L66.5895 9.138L66.5726 9.18301L66.5555 9.22801L66.5386 9.27301L66.5216 9.31801L66.5046 9.36301L66.4876 9.408L66.4716 9.453L66.4545 9.498C66.4435 9.527 66.4476 9.55201 66.4456 9.57901C66.4246 9.65001 66.4035 9.715 66.3836 9.791C66.1916 9.671 65.9845 9.57801 65.7695 9.49901C65.7005 9.33001 65.6106 9.17801 65.4996 9.04001C65.4066 8.84801 65.2885 8.68201 65.1475 8.54001C65.0755 8.35601 64.9825 8.19001 64.8655 8.04201C64.7756 7.85701 64.6636 7.69601 64.5295 7.55901C64.4525 7.35101 64.3476 7.16701 64.2116 7.005C64.1246 6.835 64.0186 6.686 63.8936 6.556C63.8096 6.335 63.6966 6.139 63.5476 5.97C63.4316 5.76 63.2886 5.57901 63.1126 5.43501C63.1086 5.42601 63.1045 5.419 63.1005 5.41C62.8355 4.535 62.1875 4.005 61.2066 4.005H61.1616H61.1155H61.0706H61.0245H60.9796H60.9335H60.8886H60.8425H60.7976H60.7515H60.7066H57.2626H57.2175H57.1716H57.1265H57.0806H57.0355H56.9896H56.9445H56.8986H56.8536H56.8076H56.7626C55.7986 4.005 54.9656 4.08601 54.2216 4.25101C53.1586 4.48501 52.1726 4.91801 51.3856 5.47101C51.3646 5.48501 51.3455 5.50001 51.3245 5.51401C50.8965 4.68101 50.1046 4.005 48.9526 4.005H48.9075H48.8616H48.8165H48.7706H48.7255H48.6796H48.6345H48.5886H48.5435H48.4976H48.4526H47.3986H47.3536H47.3076H47.2626H47.2166H47.1716H47.1256H47.0806H47.0346H46.9896H46.9436H46.8986C46.8446 4.005 46.7855 4.018 46.7305 4.02C46.6665 4.025 46.6005 4.03001 46.5355 4.03801C44.5715 4.19001 42.1806 5.55201 41.2006 7.57301C41.1526 7.66201 41.1096 7.754 41.0686 7.845C41.0476 7.897 41.0136 7.94401 40.9956 7.99701L40.9786 8.04201L40.9616 8.08701L40.9445 8.132L40.9276 8.177L40.9105 8.222L40.8936 8.26701L40.8765 8.31201L40.8596 8.35701L40.8425 8.40201L40.8256 8.44701L40.8096 8.492L40.4916 9.36501C40.4546 9.30901 40.4105 9.258 40.3685 9.205C40.2785 9.019 40.1686 8.85301 40.0366 8.70401C39.9576 8.52501 39.8565 8.361 39.7335 8.207C39.6475 8.03 39.5455 7.86901 39.4205 7.72501C39.3345 7.52401 39.2216 7.34001 39.0786 7.17101C38.9956 7.00701 38.8985 6.857 38.7825 6.722C38.6905 6.509 38.5695 6.313 38.4155 6.136C38.2985 5.919 38.1505 5.72801 37.9725 5.56601C37.6745 4.64701 36.9715 4.002 35.7935 4.002H35.7485H35.7026H35.6575H35.6116H35.5665H35.5206H35.4755H35.4296H35.3845H35.3386H35.2935H34.1926H34.1475H34.1016H34.0565H34.0106H33.9656H33.9196H33.8746H33.8286H33.7836H33.7376H33.6926C33.3476 4.002 32.9816 4.05401 32.6066 4.14101C32.5856 4.10401 32.5526 4.07501 32.5286 4.04001C32.4286 3.80601 32.2906 3.602 32.0996 3.442C32.0426 3.284 31.9655 3.14 31.8685 3.009C31.7515 2.755 31.5935 2.53101 31.3655 2.36801C31.1625 1.54201 30.5606 1.002 29.4006 1.002H29.3555H29.3096H29.2645H29.2186H29.1735H29.1276H29.0825H29.0366H28.9916H28.9456H28.9006H27.7535H27.7086H27.6625H27.6176H27.5996H27.5546H27.5086H27.4636H27.4175H27.3726H27.3265H27.2816C24.7106 1.002 22.8946 2.82601 22.2376 4.63301L22.2205 4.67801L22.2036 4.72301L22.1865 4.76801L22.1696 4.813L22.1525 4.858L22.1356 4.903L22.1196 4.94801L22.1025 4.99301L22.0856 5.03801L22.0686 5.08301L22.0516 5.12801L18.8265 13.987C18.7565 13.994 18.6845 13.998 18.6155 13.998H16.1556H16.1105H16.0646H16.0195H15.9736H15.9285H15.8826H15.8375H15.7916H15.7465H15.7006H15.6556C13.4696 13.998 11.2156 15.665 10.4096 17.877L10.3926 17.922L10.3756 17.967L10.3596 18.012L10.3425 18.057L10.3256 18.102L10.3085 18.147L10.2916 18.192L10.2745 18.237L10.2576 18.282L10.2405 18.327L10.2236 18.372L9.99757 18.993L9.98054 19.038L9.96357 19.083L9.94654 19.128L9.92957 19.173L9.91254 19.218L9.89558 19.263L9.87959 19.308L9.86256 19.353L9.84553 19.398L9.82856 19.443L9.81153 19.488C9.37353 20.69 9.65053 21.588 10.3195 22.178C10.3275 22.185 10.3326 22.193 10.3386 22.2C10.4046 22.428 10.5056 22.634 10.6406 22.819C10.7386 23.043 10.8696 23.236 11.0336 23.403C11.1006 23.569 11.1886 23.721 11.2976 23.861C11.3936 24.069 11.5175 24.25 11.6705 24.405C11.7435 24.583 11.8395 24.746 11.9595 24.894C12.0085 24.992 12.0465 25.098 12.1085 25.185C12.1715 25.887 12.4626 26.505 12.8956 26.99H12.8555H12.8106H12.7645H12.7196H12.6735H12.6285H12.5825H12.5375H11.4136H11.3685H11.3226H11.2775H11.2316H11.1865H11.1406H11.0955H11.0496H11.0046H10.9586H10.9136C8.76458 26.99 6.42157 28.801 5.58057 31.112L5.56354 31.157L5.54658 31.202L5.52955 31.247L5.51258 31.292L5.49555 31.337L5.47858 31.382L5.46156 31.427L5.44556 31.472L5.42853 31.517L5.41157 31.562L5.39454 31.607L0.346565 45.476L0.329536 45.521L0.312568 45.566L0.29554 45.611L0.278572 45.656L0.261543 45.701L0.244575 45.746L0.227546 45.791L0.210579 45.836L0.19355 45.881L0.177559 45.926L0.16053 45.971C-0.15747 46.846 0.00555468 47.617 0.573555 48.161C0.622555 48.22 0.663551 48.285 0.719551 48.339C0.761551 48.486 0.816539 48.628 0.894539 48.759C0.994539 49.069 1.15956 49.341 1.41456 49.547C1.45256 49.636 1.49657 49.723 1.54957 49.805C1.65257 50.096 1.80956 50.353 2.05256 50.55C2.09456 50.649 2.14655 50.742 2.20655 50.833C2.27655 51.016 2.37458 51.18 2.49958 51.328C2.58858 52.69 3.55956 53.982 5.45356 53.982C5.45856 53.982 7.46956 53.982 7.47456 53.982C8.99956 53.982 9.89057 53.021 10.5496 52.39C11.0826 51.879 11.3205 51.29 11.4645 50.803C11.5205 50.655 11.5546 50.518 11.5856 50.389C11.5906 50.367 11.5986 50.344 11.6036 50.322C11.6096 50.3 11.6166 50.279 11.6226 50.257C11.6286 50.236 11.6346 50.217 11.6406 50.196C11.6516 50.161 11.6616 50.128 11.6716 50.094C11.6796 50.066 11.6896 50.037 11.6976 50.01C11.7076 49.982 11.7166 49.952 11.7246 49.925C11.7376 49.885 11.7485 49.848 11.7615 49.811C11.7735 49.78 11.7836 49.751 11.7946 49.722C11.8096 49.68 11.8246 49.639 11.8386 49.601L11.8555 49.556L11.8726 49.511L11.8895 49.466L11.9056 49.421L11.9226 49.376L11.9376 49.336L15.1206 52.918C15.5286 53.448 16.4626 53.844 17.2896 53.844C17.5806 53.844 17.7816 53.984 17.9746 53.984H19.7366C20.8986 53.984 22.1186 53.528 23.1356 52.758C23.4986 53.453 24.3086 53.984 25.8756 53.984H27.9705C28.4905 53.984 29.1606 53.841 29.9216 53.556C30.3836 53.383 30.8586 53.041 31.2576 52.752C31.6366 53.364 32.2976 53.983 33.4926 53.983C33.4976 53.983 35.3725 53.983 35.3785 53.983C37.4275 53.983 38.8895 52.181 39.6575 50.1C39.7575 50.246 39.8936 50.373 40.0526 50.491C40.1366 50.84 40.3106 51.165 40.6206 51.424C40.7576 52.558 41.4246 53.984 43.8886 53.984C43.8886 53.984 45.4495 53.984 45.4545 53.984C47.0065 53.984 48.7206 52.655 49.6646 50.081C49.7646 50.225 49.8935 50.355 50.0505 50.472C50.1315 50.809 50.3006 51.124 50.5946 51.381C50.7196 52.527 51.4036 53.984 53.9876 53.984H55.9445C56.4585 53.984 56.8696 53.739 57.6166 53.467C59.1156 52.924 60.1556 51.488 60.6776 50.056L60.6945 50.011L60.7116 49.966L60.7275 49.921L60.7446 49.876L60.7615 49.831L60.7786 49.786L60.7955 49.741L60.8126 49.696L60.8295 49.651L60.8466 49.606L60.8635 49.561L60.8806 49.516L60.8975 49.471L60.9136 49.426L60.9305 49.381L60.9476 49.336L60.9645 49.291L60.9816 49.246L60.9985 49.201L61.0156 49.156L61.0325 49.111L61.0496 49.066L63.3626 42.712C63.7106 41.757 64.2026 40.844 64.2846 39.89C64.2856 39.876 64.2865 39.862 64.2875 39.848C64.2895 39.827 64.2976 39.806 64.2996 39.785C64.3906 38.771 64.4785 37.785 63.9775 36.939C63.8365 36.703 63.6476 36.383 63.3956 36.067C63.3746 36.026 63.3675 35.981 63.3425 35.941C63.2025 35.705 63.0126 35.384 62.7606 35.069C62.7396 35.028 62.7326 34.983 62.7086 34.943C62.5606 34.695 62.3636 34.356 62.0936 34.026C62.0726 33.987 62.0656 33.944 62.0416 33.906C61.9016 33.672 61.7136 33.356 61.4656 33.045C61.4426 33 61.4335 32.951 61.4075 32.907C61.2455 32.637 61.0345 32.26 60.7205 31.903C60.7085 31.889 60.6986 31.877 60.6856 31.863C60.6756 31.851 60.6656 31.841 60.6556 31.829C60.6446 31.816 60.6345 31.804 60.6235 31.791C60.6135 31.779 60.6045 31.768 60.5946 31.756C60.5816 31.743 60.5716 31.73 60.5596 31.716C60.5496 31.705 60.5415 31.695 60.5325 31.684C60.5195 31.67 60.5105 31.657 60.4965 31.643C60.4865 31.632 60.4795 31.622 60.4705 31.611C60.4575 31.597 60.4476 31.584 60.4346 31.57C60.4246 31.559 60.4165 31.549 60.4075 31.538C60.0915 31.189 59.6735 30.858 59.0946 30.665L58.8416 30.564C58.6966 30.505 58.5305 30.438 58.3475 30.371C57.9145 30.171 57.3986 29.991 56.7326 29.991H56.6876H56.6415H56.5966H56.5505H56.5056H56.4595H56.4146H56.3685H56.3236H56.2775H56.2326H53.4916H53.4465H53.4006H53.3555H53.3096H53.2645H53.2186H53.1735H53.1276H53.0825H53.0366H52.9916C51.4876 29.991 49.9095 30.384 48.3295 31.137C48.3235 31.134 48.3156 31.131 48.3096 31.128C48.2966 31.121 48.2825 31.114 48.2695 31.107C48.2555 31.099 48.2416 31.092 48.2266 31.085C48.2136 31.077 48.1995 31.071 48.1865 31.064C48.1675 31.053 48.1455 31.043 48.1265 31.032C48.1035 31.017 48.0725 31.004 48.0485 30.99C48.0265 30.976 48.0005 30.963 47.9775 30.949C47.9675 30.943 47.9576 30.938 47.9486 30.932C47.6606 30.73 47.2895 30.531 46.8085 30.427C46.7445 30.41 46.6796 30.385 46.6116 30.361C46.5106 30.326 46.3966 30.286 46.2716 30.247C45.9716 30.111 45.6115 29.993 45.1625 29.993H45.1176H45.0715H45.0266H44.9805H44.9356H44.8895H44.8446H44.7985H44.7535H44.7075H44.6625H42.0186H41.9736H41.9276H41.8826H41.8366H41.7916H41.7456H41.7006H41.6545H41.6096H41.5635H41.5186C40.3106 29.993 39.2176 30.337 38.4976 30.565L38.2366 30.647C38.1526 30.669 38.0685 30.704 37.9835 30.73C37.9405 30.61 37.8856 30.499 37.8156 30.401C37.8126 30.397 37.8106 30.394 37.8076 30.39C37.8046 30.386 37.8035 30.382 37.8005 30.378C37.7975 30.374 37.7935 30.37 37.7905 30.365C37.7885 30.362 37.7875 30.358 37.7855 30.355C37.7825 30.352 37.7805 30.348 37.7775 30.344C37.7745 30.34 37.7746 30.335 37.7716 30.332C37.7686 30.327 37.7646 30.323 37.7606 30.318C37.7596 30.316 37.7585 30.313 37.7565 30.311C37.7555 30.309 37.7536 30.306 37.7526 30.304C37.7476 30.295 37.7416 30.285 37.7376 30.276C37.6666 30.155 37.5915 30.037 37.5115 29.925C37.4735 29.873 37.4086 29.842 37.3646 29.795C37.3186 29.652 37.2615 29.517 37.1785 29.402C37.1765 29.399 37.1736 29.396 37.1726 29.393C37.1686 29.389 37.1676 29.383 37.1646 29.379C37.1616 29.375 37.1575 29.37 37.1545 29.366C37.1525 29.363 37.1506 29.359 37.1486 29.356C37.1456 29.351 37.1416 29.347 37.1386 29.342L37.1376 29.341C37.1366 29.339 37.1355 29.336 37.1345 29.334C37.1335 29.332 37.1316 29.331 37.1306 29.329C37.0476 29.182 36.9576 29.039 36.8596 28.904C36.8236 28.853 36.7586 28.824 36.7156 28.779C36.6686 28.634 36.6106 28.498 36.5266 28.382C36.5246 28.379 36.5226 28.377 36.5206 28.374C36.5176 28.37 36.5156 28.364 36.5126 28.359C36.5086 28.355 36.5055 28.35 36.5015 28.345C36.4995 28.343 36.4996 28.338 36.4976 28.336C36.4946 28.333 36.5486 28.33 36.5476 28.326C36.5446 28.323 36.5965 28.319 36.5975 28.315L36.7136 27.995H36.6545C36.6405 27.995 36.5515 28.124 36.5435 28.11C36.5425 28.108 36.4986 28.184 36.4976 28.182C36.4946 28.178 36.4716 28.214 36.4686 28.21C36.4616 28.197 36.4446 28.204 36.4376 28.192C36.3926 28.118 36.3336 28.067 36.2836 27.996H39.0115C40.4795 27.996 41.7996 27.718 42.9716 27.458C44.3756 27.13 45.7126 26.423 46.8936 25.623C46.9566 25.58 47.0106 25.551 47.0686 25.518C47.2015 25.854 47.3965 26.136 47.6395 26.361C47.9755 27.406 48.8846 27.995 49.9606 27.995H60.1466C61.2596 27.995 62.2566 27.765 63.1486 27.599C64.2856 27.366 65.3796 26.791 66.2246 26.244C66.4256 26.118 66.5786 26.085 66.7506 25.955C66.7586 25.963 66.7655 25.972 66.7725 25.981C67.2095 27.113 68.3356 27.996 69.7236 27.996H71.3715C73.5265 27.996 75.4186 25.909 76.2636 23.715C76.3116 23.783 76.3676 23.846 76.4246 23.909C76.4966 24.045 76.5796 24.171 76.6766 24.285C76.7736 24.53 76.9095 24.751 77.0895 24.945C77.1055 24.972 77.1176 25.001 77.1356 25.027C77.2676 26.657 78.5815 27.996 80.2955 27.996H82.2955C83.4465 27.996 84.6646 27.507 85.6796 26.725C86.0866 27.565 86.9656 27.996 87.9946 27.996H89.5706C91.4216 27.996 94.2515 26.517 95.2075 23.891L96.1776 21.228C96.0516 21.574 96.2876 21.878 96.5656 22.126C96.6476 22.399 96.6786 22.643 96.8576 22.859C96.9376 23.021 96.9816 23.169 97.0966 23.3C97.1846 23.518 97.2785 23.717 97.4335 23.895C97.5105 24.043 97.5866 24.18 97.6956 24.302C97.7876 24.534 97.9115 24.744 98.0795 24.93C98.1005 24.968 98.1146 25.008 98.1386 25.044C98.2736 26.666 99.5736 27.995 101.268 27.995H102.844C104.994 27.995 107.452 25.97 108.323 23.577L108.34 23.532L108.357 23.487L108.374 23.442L108.391 23.397L108.408 23.352L108.424 23.307L108.441 23.262L108.458 23.217L108.475 23.172L108.492 23.127L108.509 23.082L108.526 23.037L108.543 22.992L108.56 22.947L108.577 22.902L108.594 22.857L108.61 22.812L108.627 22.767L108.644 22.722L108.661 22.677L108.678 22.632L108.695 22.587L110.649 17.217L110.666 17.172L110.683 17.127L110.7 17.082L110.717 17.037L110.734 16.992L110.751 16.947L110.768 16.902L110.785 16.857L110.802 16.812L110.818 16.767L110.835 16.722L110.852 16.677L110.869 16.632L110.886 16.587L110.903 16.542L110.92 16.497L110.937 16.452L110.954 16.407L110.971 16.362L110.988 16.317L111.004 16.272L111.021 16.227C111.052 16.15 111.06 16.079 111.085 15.999ZM27.7946 24.255C27.8716 24.401 27.9346 24.555 28.0306 24.687C28.1046 24.789 28.1986 24.883 28.2836 24.981C28.3906 25.227 28.5125 25.468 28.6655 25.685C28.9005 25.998 29.1976 26.289 29.5396 26.554C29.1506 26.72 28.7715 26.909 28.4305 27.142C28.0115 27.429 27.6276 27.77 27.2806 28.138C26.8156 27.513 26.1226 27.015 25.1766 27.015H25.1315H25.0856H25.0405H24.9946H24.9495H24.9036H24.8585H24.8126H24.7676H24.7216H24.6766H23.6525C24.5925 26.634 25.4926 26.117 26.2996 25.568C26.9146 25.141 27.3926 24.703 27.7946 24.255ZM15.1486 28.016H18.3966C19.0086 28.016 19.5916 27.953 20.1556 27.87C20.0636 27.926 19.9726 27.978 19.8796 28.041L16.2756 30.387C16.1446 29.993 15.9355 29.661 15.6345 29.422C15.5065 29.026 15.3035 28.688 15.0065 28.444C14.9525 28.275 14.8846 28.117 14.8016 27.971C14.9166 27.986 15.0276 28.016 15.1486 28.016Z" fill="#FF6E59"/>
<path d="M13.0089 19.015L13.4159 17.895C13.6169 17.343 14.0179 17.016 14.5699 17.016H17.5289C18.1209 17.016 18.6749 16.908 19.0799 16.812C19.4979 16.715 19.9059 16.503 20.1889 16.294C20.4949 16.07 20.8189 15.79 21.0209 15.454C21.2389 15.118 21.5749 14.71 21.7499 14.23L25.2379 4.64601C25.4389 4.09401 25.6369 4.015 26.1899 4.015H27.8359C28.3889 4.015 28.4389 4.09401 28.2369 4.64601L24.6869 14.398C24.3089 15.438 24.0699 16.318 23.6009 17.038C23.1509 17.743 22.7889 18.318 22.1459 18.767C21.5099 19.199 20.7459 19.519 19.8529 19.727C18.9849 19.919 17.9399 20.016 16.7249 20.016H13.4769C12.9259 20.016 12.8079 19.568 13.0089 19.015ZM44.4179 17.038C44.8869 16.318 45.3109 15.438 45.6889 14.398L48.0159 8.00601C48.2169 7.45301 47.931 7.015 47.38 7.015H45.8269C45.2739 7.015 44.2169 7.45301 44.0149 8.00601L41.7229 14.302C41.5189 14.862 41.5309 15.318 41.3059 15.67C41.1039 16.006 40.9679 16.27 40.6749 16.461C40.3969 16.653 40.0999 16.814 39.6859 16.894C39.2779 16.958 38.8349 17.015 38.2589 17.015H34.5149C33.9699 17.015 33.5279 16.958 33.1659 16.894C32.8279 16.814 32.5849 16.666 32.4329 16.474C32.2779 16.283 32.2829 16.013 32.2909 15.677C32.3229 15.324 32.5189 14.863 32.7229 14.303L35.0149 8.007C35.2159 7.454 34.7779 7.01601 34.2269 7.01601H32.6269C32.0739 7.01601 31.2159 7.454 31.0149 8.007L28.6879 14.399C28.3099 15.439 28.2109 16.319 28.1409 17.039C28.0909 17.744 28.2899 18.319 28.6059 18.768C28.9289 19.2 29.4849 19.52 30.2079 19.728C30.9389 19.92 31.9359 20.017 33.1349 20.017H37.3599C38.5769 20.017 39.6199 19.921 40.4879 19.728C41.3809 19.52 42.1439 19.199 42.7819 18.768C43.4229 18.319 43.9699 17.744 44.4179 17.038ZM48.3089 20.016H58.4949C59.4049 20.016 60.1619 19.959 60.7639 19.848C61.3859 19.72 61.9069 19.519 62.3259 19.248C62.7619 18.976 62.9939 18.623 63.2629 18.191C63.5389 17.744 63.6719 17.199 63.9049 16.559L64.1499 15.887C64.3999 15.199 64.6749 14.622 64.7309 14.159C64.7939 13.679 64.7849 13.294 64.5859 13.007C64.3929 12.702 64.1079 12.423 63.6269 12.295C63.1499 12.15 62.5499 12.016 61.7179 12.016H54.6629C54.3429 12.016 54.0139 12.016 53.9159 11.887C53.8179 11.759 53.7189 11.575 53.8529 11.206L54.0719 10.606C54.1939 10.27 54.3909 10.186 54.5819 10.059C54.7899 9.93001 55.1109 10.015 55.4629 10.015H58.5429C59.0959 10.015 59.5589 9.27 59.7589 8.718L60.0189 8.00601C60.2199 7.45301 60.1879 7.015 59.6349 7.015H55.6919C54.9889 7.015 54.386 7.066 53.88 7.179C53.375 7.29 52.9419 7.47201 52.5759 7.72801C52.2179 7.96801 52.0549 8.28701 51.7829 8.68701C51.5239 9.08701 51.4499 9.566 51.2469 10.125L50.8889 11.109C50.6789 11.685 50.3789 12.189 50.3019 12.621C50.2459 13.037 50.2169 13.39 50.3679 13.678C50.5179 13.966 50.6689 14.419 51.0629 14.563C51.4749 14.707 51.9229 15.015 52.6599 15.015H59.9549C60.3869 15.015 60.9099 14.843 61.0389 14.971C61.1889 15.083 61.4209 15.142 61.2459 15.622L61.0889 16.055C60.9259 16.503 60.5969 16.712 60.3479 16.872C60.0979 17.031 59.6129 17.016 59.1319 17.016H49.4029C48.8519 17.016 48.5069 17.655 48.3049 18.206L48.0109 19.015C47.8079 19.568 47.7579 20.016 48.3089 20.016ZM78.5559 7.01601H76.4519C75.8989 7.01601 75.5419 6.559 75.7429 6.007L76.3509 4.33501C76.5519 3.78201 76.4599 3.01601 75.9079 3.01601H74.2599C73.7069 3.01601 72.5529 3.78301 72.3519 4.33501L71.7109 6.095C71.5269 6.599 71.3829 7.007 70.8789 7.007C70.3749 7.007 70.2309 7.41501 70.0469 7.91901L69.6539 8.99901C69.4699 9.50201 69.3179 9.91101 69.8219 9.91101C70.3259 9.91101 70.1739 10.319 69.9899 10.822L67.0089 19.014C66.8079 19.567 67.5199 20.015 68.0719 20.015H69.7199C70.2729 20.015 70.8069 19.567 71.0079 19.014L73.9569 10.91C74.1579 10.357 74.8069 10.014 75.3589 10.014H77.4629C78.0159 10.014 78.4839 9.461 78.6859 8.91L79.0149 8.00601C79.2169 7.45401 79.1089 7.01601 78.5559 7.01601ZM86.0119 8.01601C86.2129 7.46401 85.9289 7.01601 85.3759 7.01601H83.3759C82.8229 7.01601 82.2129 7.46401 82.0119 8.01601L78.0089 19.016C77.8079 19.568 78.0919 20.016 78.6449 20.016H80.6449C81.1979 20.016 81.8079 19.568 82.0089 19.016L86.0119 8.01601ZM86.3339 3.01601H85.1579C84.7109 3.01601 84.3659 2.93901 84.1109 3.11501C83.8769 3.27501 83.6979 3.38201 83.5579 3.76701L83.0509 5.16C82.9109 5.543 82.9939 5.70001 83.1059 5.87601C83.2329 6.05201 83.6189 6.01601 84.0659 6.01601H85.242C85.7069 6.01601 86.1379 6.05201 86.3789 5.87601C86.6349 5.69901 86.9119 5.543 87.0519 5.16L87.5589 3.76701C87.6989 3.38201 87.5169 3.27501 87.3839 3.11501C87.2719 2.93901 86.7989 3.01601 86.3339 3.01601ZM105.75 10.007C105.819 9.286 105.579 8.71 105.256 8.278C104.941 7.831 104.359 7.51501 103.628 7.32201C102.904 7.11401 101.876 7.015 100.659 7.015H96.3149C95.116 7.015 94.0799 7.11401 93.2039 7.32201C92.3329 7.51401 91.5779 7.83201 90.9349 8.28001C90.2969 8.71201 89.8939 9.28701 89.4249 10.008C88.9699 10.728 88.7039 11.607 88.3249 12.647L86.0079 19.015C85.8069 19.568 85.7899 20.016 86.3429 20.016H87.9189C88.4719 20.016 88.8069 19.568 89.0079 19.015L91.2819 12.767C91.4789 12.223 91.8179 11.783 92.0189 11.447C92.2449 11.095 92.5729 10.823 92.8659 10.631C93.1659 10.424 93.5589 10.248 93.9579 10.168C94.3689 10.088 94.9019 10.017 95.4629 10.017H99.3519C99.9259 10.017 100.373 10.088 100.713 10.168C101.067 10.248 101.305 10.409 101.437 10.616C101.591 10.808 101.657 11.089 101.609 11.44C101.582 11.776 101.48 12.224 101.283 12.768L99.0089 19.016C98.8079 19.569 99.0649 20.017 99.6149 20.017H101.191C101.744 20.017 102.807 19.569 103.008 19.016L105.325 12.648C105.705 11.607 105.696 10.727 105.75 10.007ZM14.6089 38.846C14.2959 38.444 14.5629 37.727 15.1719 37.331L23.5689 31.839C24.4999 31.236 24.5179 30.016 23.5869 30.016H21.7669C21.5249 30.016 21.2359 30.164 20.9959 30.325L11.5429 36.478C10.6879 37.044 9.60394 36.616 9.91694 35.756L11.5979 31.138C11.7979 30.586 12.0149 30.016 11.4619 30.016H9.83894C9.28594 30.016 8.79791 30.586 8.59791 31.138L3.3689 45.506C3.1679 46.059 3.4629 46.016 4.0149 46.016H5.63795C6.19095 46.016 6.16693 46.058 6.36793 45.506L8.10889 40.72C8.4219 39.861 9.82992 39.402 10.2719 39.968L15.3629 46.013C15.4859 46.173 15.8909 46.016 16.1339 46.016H18.0889C19.0129 46.016 19.7709 45.117 19.2979 44.509L14.6089 38.846ZM32.0429 29.016H30.867C30.418 29.016 29.9 29.185 29.643 29.361C29.409 29.521 29.0559 29.873 28.9159 30.258L28.4089 31.651C28.2689 32.034 28.3449 32.445 28.4559 32.622C28.5849 32.798 28.9619 33.017 29.4109 33.017H30.5869C31.0519 33.017 31.4869 32.798 31.7279 32.622C31.9859 32.445 32.2699 32.034 32.4099 31.651L32.9169 30.258C33.0569 29.873 33.0499 29.521 32.9149 29.361C32.8029 29.185 32.5079 29.016 32.0429 29.016ZM30.4719 34.016H28.8239C28.2729 34.016 27.4529 34.281 27.2519 34.834L23.3679 45.506C23.1669 46.059 23.9049 46.016 24.4559 46.016H26.104C26.6569 46.016 27.1669 46.058 27.3679 45.506L31.2519 34.834C31.4529 34.281 31.0249 34.016 30.4719 34.016ZM58.1919 34.626C57.9629 34.242 57.6729 33.721 57.1439 33.544C56.6219 33.353 56.0179 33.016 55.1529 33.016H51.9129C50.6339 33.016 49.5149 33.449 48.7359 33.833C48.3609 34.015 47.9739 34.365 47.6609 34.646C47.3509 34.922 46.7409 34.991 46.6399 34.709C46.5529 34.422 46.3629 34.219 46.091 34.043C45.84 33.851 45.5739 33.481 45.1309 33.385C44.7009 33.289 44.2399 33.015 43.5839 33.015H40.4409C39.5759 33.015 38.7259 33.352 38.0629 33.543C37.4069 33.72 36.7829 34.12 36.2739 34.504C35.7669 34.888 35.3669 35.437 34.9909 36.028C34.6219 36.604 34.3339 37.352 34.0429 38.153L31.367 45.505C31.166 46.058 31.4999 46.015 32.0529 46.015H33.5329C34.0839 46.015 34.166 46.057 34.367 45.505L36.8499 38.681C37.1469 37.865 37.5849 37.536 37.979 37.248C38.3919 36.944 39.0569 37.016 39.7759 37.016H42.0569C42.5999 37.016 43.1139 36.832 43.4379 36.912C43.7659 36.976 44.0359 36.984 44.1629 37.161C44.3129 37.321 44.2479 37.481 44.2119 37.753C44.1989 38.009 43.9959 38.281 43.8509 38.682L41.3679 45.506C41.1669 46.059 41.9169 46.016 42.4699 46.016H43.6149C44.1659 46.016 44.1679 46.058 44.3689 45.506L46.8519 38.682C46.9979 38.282 47.3729 37.953 47.5459 37.698C47.7249 37.427 48.0479 37.211 48.2969 37.051C48.5679 36.874 48.8589 36.978 49.2179 36.914C49.5989 36.834 50.0259 37.018 50.5549 37.018H52.8809C53.5699 37.018 53.8959 36.947 54.0879 37.25C54.3039 37.538 54.1489 37.867 53.8519 38.683L51.3689 45.507C51.1679 46.06 52.0209 46.017 52.5739 46.017H54.0779C54.631 46.017 55.1679 46.059 55.3689 45.507L58.0449 38.155C58.3359 37.354 58.4529 36.667 58.5029 36.091C58.5569 35.498 58.4189 35.01 58.1919 34.626Z" fill="white"/>
<path d="M86.9229 36.766C86.9199 36.761 86.9149 36.757 86.9119 36.751C86.9089 36.746 86.9059 36.741 86.9029 36.736C86.8999 36.732 86.8979 36.729 86.8959 36.725C86.8879 36.712 86.8789 36.7 86.8719 36.687C86.8689 36.683 86.8669 36.679 86.8639 36.674C86.8599 36.669 86.8569 36.664 86.8539 36.659C86.8499 36.653 86.8469 36.648 86.8439 36.643C86.8409 36.637 86.8369 36.633 86.8339 36.627C86.8309 36.622 86.8269 36.617 86.8249 36.611C86.8219 36.608 86.8199 36.605 86.8169 36.601C86.8099 36.588 86.8009 36.576 86.7929 36.563C86.7929 36.56 86.7899 36.558 86.7879 36.555C86.7809 36.542 86.7719 36.53 86.7649 36.517C86.7619 36.513 86.7589 36.509 86.7559 36.504C86.7529 36.499 86.7499 36.494 86.7469 36.489C86.7439 36.485 86.7419 36.482 86.7399 36.478C86.7319 36.465 86.7229 36.453 86.7159 36.44C86.7149 36.437 86.7129 36.435 86.7109 36.432C86.7039 36.419 86.6939 36.407 86.6869 36.394C86.6849 36.389 86.6809 36.386 86.6789 36.381C86.6759 36.376 86.6719 36.371 86.6699 36.365C86.6669 36.362 86.6649 36.359 86.6619 36.355C86.6549 36.342 86.6459 36.33 86.6379 36.317C86.6379 36.314 86.6349 36.312 86.6329 36.309C86.6259 36.296 86.6169 36.284 86.6099 36.271C86.6089 36.268 86.6059 36.266 86.6039 36.263C86.5979 36.252 86.5899 36.242 86.5839 36.23C86.5759 36.218 86.5679 36.207 86.5609 36.195C86.5599 36.192 86.5579 36.19 86.5559 36.187C86.5489 36.174 86.5389 36.162 86.5319 36.149C86.5309 36.146 86.5289 36.144 86.5269 36.141C86.5199 36.13 86.5129 36.12 86.5059 36.109C86.5019 36.102 86.4989 36.096 86.4949 36.089C86.4879 36.08 86.4819 36.071 86.4759 36.062C86.4689 36.05 86.4599 36.039 86.4539 36.027C86.4529 36.024 86.4499 36.022 86.4479 36.019C86.4419 36.008 86.4339 35.998 86.4279 35.986C86.4239 35.98 86.4199 35.974 86.4159 35.968C86.4099 35.958 86.4029 35.949 86.3979 35.941C86.3899 35.928 86.3819 35.917 86.3749 35.905C86.3739 35.902 86.3719 35.9 86.3699 35.897C86.3629 35.886 86.3559 35.876 86.3489 35.865C86.3449 35.858 86.3419 35.852 86.3379 35.845C86.3309 35.836 86.3249 35.827 86.3189 35.818C86.3159 35.812 86.3119 35.806 86.3079 35.8C86.3019 35.79 86.2949 35.781 86.2889 35.773C86.2829 35.762 86.2759 35.752 86.2699 35.742C86.2659 35.736 86.2619 35.73 86.2579 35.724C86.2519 35.714 86.2449 35.705 86.2399 35.697C86.2359 35.69 86.2319 35.684 86.2289 35.677C86.2219 35.668 86.2149 35.659 86.2099 35.65C86.2059 35.644 86.2019 35.638 86.1989 35.632C86.1959 35.626 86.1909 35.622 86.1879 35.616C86.1849 35.611 86.1819 35.606 86.1789 35.6C86.1719 35.591 86.1659 35.582 86.1599 35.573C86.1569 35.567 86.1529 35.561 86.1489 35.555C86.1429 35.545 86.1359 35.536 86.1299 35.528C86.1269 35.521 86.1229 35.515 86.1189 35.508C86.1159 35.503 86.1119 35.499 86.1089 35.493C86.1059 35.488 86.1029 35.483 86.0989 35.478C86.0929 35.468 86.0859 35.459 86.0809 35.451C86.0769 35.444 86.0729 35.438 86.0699 35.431C86.0629 35.422 86.0559 35.413 86.0509 35.404C86.0469 35.398 86.0429 35.392 86.0399 35.386C86.0369 35.38 86.0319 35.376 86.0289 35.37C86.0259 35.365 86.0229 35.36 86.0199 35.354C86.0159 35.349 86.0129 35.344 86.0099 35.338C86.0069 35.333 86.0019 35.329 85.9989 35.323C85.9959 35.318 85.9929 35.313 85.9899 35.308C85.9839 35.298 85.9769 35.289 85.9709 35.281C85.9679 35.274 85.9639 35.268 85.9599 35.261C85.9569 35.256 85.9529 35.252 85.9499 35.246C85.9469 35.241 85.9439 35.236 85.9399 35.231C85.0519 33.69 83.3989 32.735 81.1919 32.735C76.7809 32.735 71.8029 36.548 70.0979 41.235C69.2429 43.585 69.3699 45.714 70.2649 47.255C70.2679 47.261 70.2719 47.265 70.2749 47.271C70.2779 47.276 70.2819 47.281 70.2839 47.287C70.2869 47.29 70.2889 47.293 70.2919 47.297C70.2989 47.31 70.3079 47.322 70.3159 47.335C70.3179 47.34 70.3209 47.343 70.3239 47.348C70.3269 47.353 70.3299 47.358 70.3329 47.364C70.3369 47.369 70.3399 47.374 70.3429 47.38C70.3459 47.385 70.3509 47.389 70.3539 47.395C70.3569 47.4 70.3599 47.405 70.3629 47.41C70.3659 47.414 70.3679 47.417 70.3699 47.421C70.3779 47.434 70.3869 47.446 70.3939 47.459C70.3949 47.462 70.3969 47.464 70.3989 47.467C70.4069 47.48 70.4159 47.492 70.4229 47.505C70.4249 47.51 70.4279 47.513 70.4309 47.518C70.4339 47.523 70.4379 47.528 70.4399 47.534C70.4429 47.537 70.4449 47.54 70.4479 47.544C70.4549 47.557 70.4639 47.569 70.4719 47.582C70.4729 47.585 70.4749 47.587 70.4769 47.59C70.4839 47.603 70.4929 47.615 70.5009 47.628C70.5029 47.632 70.5069 47.636 70.5089 47.641C70.5119 47.646 70.5149 47.651 70.5179 47.656C70.5209 47.66 70.5229 47.663 70.5249 47.667C70.5329 47.68 70.5419 47.692 70.5489 47.705C70.5499 47.708 70.5519 47.71 70.5539 47.713C70.5619 47.726 70.5709 47.738 70.5779 47.751C70.5789 47.754 70.5809 47.756 70.5829 47.759C70.5889 47.77 70.5969 47.78 70.6039 47.791C70.6109 47.804 70.6199 47.815 70.6269 47.827C70.6279 47.83 70.6299 47.832 70.6319 47.835C70.6389 47.848 70.6479 47.86 70.6559 47.873C70.6559 47.876 70.6589 47.878 70.6609 47.881C70.6679 47.892 70.6749 47.902 70.6809 47.914C70.6849 47.92 70.6889 47.926 70.6929 47.932C70.6989 47.942 70.7059 47.951 70.7119 47.959C70.7189 47.972 70.7269 47.983 70.7339 47.995C70.7349 47.998 70.7369 48 70.7389 48.003C70.7449 48.014 70.7529 48.024 70.7599 48.035C70.7639 48.042 70.7669 48.048 70.7709 48.055C70.7779 48.064 70.7839 48.073 70.7899 48.082C70.7969 48.094 70.8059 48.105 70.8129 48.117C70.8129 48.12 70.8159 48.122 70.8179 48.125C70.8249 48.136 70.8319 48.146 70.8379 48.158C70.8419 48.164 70.8459 48.17 70.8499 48.176C70.8559 48.186 70.8629 48.195 70.8689 48.203C70.8719 48.21 70.8759 48.216 70.8789 48.223C70.8859 48.232 70.8929 48.241 70.8979 48.25C70.9039 48.26 70.9119 48.27 70.9179 48.279C70.9219 48.286 70.9249 48.292 70.9289 48.299C70.9359 48.308 70.9419 48.317 70.9479 48.326C70.9509 48.332 70.9549 48.338 70.9589 48.344C70.9649 48.354 70.9719 48.363 70.9779 48.371C70.9809 48.378 70.9849 48.384 70.9889 48.391C70.9919 48.396 70.9959 48.4 70.9989 48.406C71.0019 48.411 71.0059 48.416 71.0089 48.421C71.0149 48.431 71.0219 48.44 71.0279 48.448C71.0309 48.455 71.0349 48.461 71.0379 48.468C71.0449 48.477 71.0519 48.486 71.0569 48.495C71.0609 48.501 71.0649 48.507 71.0689 48.513C71.0709 48.519 71.0759 48.523 71.0789 48.529C71.0819 48.534 71.0849 48.539 71.0879 48.545C71.0949 48.554 71.1009 48.563 71.1069 48.572C71.1099 48.578 71.1139 48.584 71.1179 48.59C71.1239 48.6 71.1309 48.609 71.1369 48.617C71.1399 48.624 71.1439 48.63 71.1479 48.637C71.1509 48.642 71.1549 48.646 71.1579 48.652C71.1609 48.657 71.1649 48.662 71.1679 48.667C71.1719 48.673 71.1749 48.678 71.1779 48.683C71.1809 48.689 71.1849 48.693 71.1879 48.699C71.1909 48.704 71.1939 48.709 71.1969 48.715C71.2039 48.724 71.2109 48.733 71.2159 48.742C71.2199 48.748 71.2239 48.754 71.2279 48.76C71.2299 48.766 71.2349 48.77 71.2379 48.776C71.2409 48.781 71.2439 48.786 71.2469 48.792C72.1359 50.332 73.7889 51.287 75.9959 51.287C80.4069 51.287 85.3839 47.474 87.0899 42.787C87.9459 40.437 87.8169 38.308 86.9229 36.766Z" fill="#FF6E59"/>
<path d="M84.1113 41.245C82.8043 44.835 79.0593 47.745 75.7453 47.745C72.4313 47.745 70.8053 44.835 72.1113 41.245C73.4173 37.655 77.1623 34.745 80.4763 34.745C83.7903 34.745 85.4173 37.655 84.1113 41.245Z" fill="white"/>
<path d="M109.158 35.961C109.155 35.957 109.152 35.953 109.149 35.948C109.146 35.943 109.144 35.939 109.141 35.935C109.139 35.931 109.136 35.929 109.134 35.926C109.127 35.915 109.119 35.904 109.113 35.892C109.111 35.889 109.109 35.885 109.106 35.881C109.103 35.877 109.1 35.873 109.098 35.868C109.095 35.862 109.091 35.859 109.089 35.854C109.086 35.849 109.083 35.845 109.08 35.84C109.077 35.835 109.074 35.831 109.072 35.826C109.069 35.824 109.068 35.822 109.065 35.818C109.058 35.808 109.051 35.796 109.044 35.784C109.044 35.782 109.041 35.78 109.039 35.777C109.032 35.766 109.026 35.754 109.019 35.743C109.016 35.739 109.013 35.736 109.011 35.732C109.008 35.728 109.006 35.723 109.003 35.719C109.001 35.715 108.999 35.713 108.997 35.71C108.991 35.698 108.982 35.687 108.976 35.676C108.974 35.674 108.973 35.672 108.971 35.669C108.964 35.658 108.956 35.647 108.95 35.635C108.948 35.631 108.945 35.628 108.943 35.624C108.94 35.62 108.938 35.615 108.935 35.61C108.933 35.607 108.931 35.606 108.928 35.602C108.921 35.592 108.914 35.58 108.907 35.568C108.907 35.566 108.904 35.564 108.902 35.561C108.895 35.55 108.889 35.538 108.882 35.527C108.88 35.525 108.878 35.523 108.876 35.52C108.871 35.511 108.864 35.501 108.858 35.491C108.852 35.481 108.845 35.47 108.838 35.46C108.836 35.458 108.835 35.456 108.833 35.453C108.826 35.442 108.817 35.431 108.812 35.419C108.811 35.417 108.809 35.415 108.808 35.412C108.803 35.402 108.795 35.393 108.789 35.384C108.786 35.378 108.783 35.373 108.779 35.367C108.773 35.359 108.768 35.351 108.763 35.343C108.757 35.333 108.748 35.322 108.743 35.312C108.742 35.31 108.739 35.308 108.737 35.305C108.732 35.296 108.726 35.286 108.72 35.276C108.717 35.271 108.713 35.266 108.709 35.261C108.703 35.253 108.698 35.244 108.693 35.237C108.686 35.226 108.678 35.216 108.672 35.205C108.671 35.203 108.669 35.201 108.668 35.198C108.663 35.188 108.655 35.179 108.649 35.17C108.646 35.164 108.643 35.159 108.639 35.153C108.633 35.145 108.628 35.137 108.623 35.129C108.62 35.124 108.617 35.119 108.613 35.113C108.607 35.105 108.602 35.097 108.597 35.089C108.591 35.079 108.586 35.07 108.58 35.061C108.577 35.056 108.573 35.051 108.569 35.046C108.563 35.038 108.558 35.029 108.553 35.022C108.55 35.016 108.546 35.011 108.544 35.005C108.537 34.997 108.532 34.989 108.527 34.981C108.524 34.975 108.52 34.971 108.517 34.965C108.515 34.96 108.51 34.957 108.507 34.951C108.505 34.947 108.503 34.942 108.5 34.937C108.494 34.928 108.488 34.921 108.483 34.913C108.48 34.908 108.477 34.903 108.473 34.897C108.467 34.889 108.461 34.881 108.457 34.873C108.454 34.867 108.451 34.861 108.447 34.855C108.444 34.851 108.441 34.848 108.438 34.842C108.435 34.838 108.432 34.834 108.429 34.829C108.423 34.821 108.418 34.812 108.413 34.805C108.41 34.799 108.406 34.794 108.404 34.788C108.397 34.78 108.392 34.772 108.387 34.764C108.384 34.758 108.38 34.754 108.377 34.748C108.375 34.743 108.37 34.74 108.367 34.734C108.365 34.73 108.363 34.725 108.36 34.72C108.357 34.715 108.354 34.711 108.351 34.706C108.348 34.701 108.344 34.698 108.341 34.693C108.339 34.689 108.336 34.685 108.333 34.68C108.328 34.671 108.321 34.664 108.317 34.656C108.314 34.65 108.311 34.645 108.307 34.638C108.304 34.634 108.301 34.631 108.298 34.625C108.295 34.621 108.292 34.617 108.289 34.612C107.337 33.37 106.053 32.415 104.11 32.415C100.228 32.415 95.8473 35.771 94.3463 39.895C93.5933 41.963 93.8293 43.773 94.4933 45.193C94.4953 45.198 94.4993 45.202 94.5023 45.207C94.5043 45.211 94.5083 45.216 94.5093 45.221C94.5123 45.224 94.5143 45.226 94.5173 45.23C94.5243 45.24 94.5313 45.252 94.5383 45.264C94.5393 45.268 94.5423 45.271 94.5453 45.275C94.5473 45.279 94.5504 45.283 94.5524 45.289C94.5564 45.293 94.5583 45.298 94.5613 45.303C94.5633 45.308 94.5683 45.311 94.5713 45.316C94.5743 45.32 94.5763 45.325 94.5793 45.329C94.5823 45.332 94.5833 45.335 94.5853 45.338C94.5923 45.349 94.6013 45.36 94.6063 45.372C94.6073 45.374 94.6093 45.376 94.6113 45.379C94.6183 45.39 94.6253 45.401 94.6323 45.412C94.6333 45.416 94.6364 45.419 94.6384 45.423C94.6414 45.427 94.6454 45.432 94.6464 45.437C94.6494 45.439 94.6514 45.441 94.6544 45.445C94.6614 45.455 94.6683 45.467 94.6753 45.479C94.6753 45.481 94.6773 45.483 94.6793 45.486C94.6863 45.497 94.6943 45.508 94.7003 45.519C94.7023 45.523 94.7053 45.526 94.7073 45.53C94.7103 45.534 94.7123 45.539 94.7153 45.543C94.7183 45.546 94.7193 45.549 94.7213 45.552C94.7283 45.563 94.7374 45.574 94.7424 45.586C94.7434 45.588 94.7453 45.59 94.7473 45.593C94.7543 45.604 94.7614 45.615 94.7684 45.627C94.7684 45.629 94.7703 45.631 94.7723 45.634C94.7773 45.643 94.7843 45.653 94.7903 45.662C94.7963 45.673 94.8043 45.683 94.8113 45.694C94.8113 45.696 94.8134 45.698 94.8154 45.701C94.8224 45.712 94.8294 45.723 94.8364 45.735C94.8364 45.737 94.8383 45.739 94.8403 45.742C94.8463 45.751 94.8513 45.761 94.8583 45.771C94.8623 45.776 94.8653 45.782 94.8683 45.787C94.8743 45.796 94.8803 45.803 94.8853 45.811C94.8923 45.822 94.8984 45.832 94.9064 45.843C94.9064 45.845 94.9083 45.847 94.9103 45.85C94.9153 45.859 94.9223 45.869 94.9283 45.878C94.9323 45.884 94.9343 45.889 94.9383 45.895C94.9443 45.903 94.9503 45.911 94.9553 45.919C94.9613 45.929 94.9693 45.94 94.9763 45.95C94.9763 45.952 94.9783 45.954 94.9803 45.957C94.9863 45.966 94.9923 45.976 94.9983 45.986C95.0013 45.991 95.0054 45.996 95.0084 46.001C95.0144 46.01 95.0213 46.017 95.0253 46.025C95.0283 46.031 95.0304 46.037 95.0344 46.043C95.0394 46.051 95.0453 46.059 95.0503 46.067C95.0553 46.076 95.0634 46.084 95.0684 46.093C95.0724 46.099 95.0744 46.104 95.0784 46.11C95.0844 46.118 95.0894 46.126 95.0944 46.134C95.0974 46.139 95.1014 46.144 95.1044 46.15C95.1104 46.159 95.1173 46.166 95.1213 46.174C95.1243 46.18 95.1283 46.185 95.1313 46.191C95.1333 46.195 95.1373 46.199 95.1403 46.204C95.1423 46.208 95.1463 46.212 95.1483 46.217C95.1533 46.226 95.1603 46.234 95.1653 46.241C95.1683 46.247 95.1703 46.252 95.1743 46.258C95.1793 46.266 95.1854 46.274 95.1904 46.282C95.1934 46.288 95.1983 46.292 95.2013 46.298C95.2033 46.303 95.2073 46.306 95.2103 46.312C95.2123 46.316 95.2153 46.32 95.2183 46.326C95.2233 46.334 95.2293 46.342 95.2343 46.35C95.2373 46.355 95.2413 46.36 95.2443 46.366C95.2503 46.375 95.2573 46.382 95.2613 46.39C95.2643 46.396 95.2684 46.401 95.2714 46.407C95.2734 46.411 95.2773 46.415 95.2803 46.42C95.2823 46.424 95.2863 46.428 95.2883 46.433C95.2913 46.439 95.2944 46.443 95.2974 46.447C95.3004 46.452 95.3033 46.456 95.3063 46.461C95.3083 46.465 95.3113 46.469 95.3143 46.475C95.3193 46.483 95.3253 46.491 95.3303 46.499C95.3333 46.505 95.3384 46.509 95.3414 46.515C95.3434 46.52 95.3473 46.523 95.3503 46.529C95.3523 46.533 95.3553 46.538 95.3583 46.543C96.1523 47.892 97.5953 48.739 99.5383 48.739C103.42 48.739 107.8 45.383 109.302 41.259C110.057 39.192 109.986 37.292 109.158 35.961Z" fill="#FF6E59"/>
<path d="M106.682 39.903C105.533 43.063 102.237 45.624 99.3194 45.624C96.4034 45.624 94.9714 43.063 96.1224 39.903C97.2714 36.744 100.567 34.182 103.484 34.182C106.401 34.182 107.832 36.744 106.682 39.903Z" fill="white"/>
<path d="M131.348 31.313C131.346 31.309 131.343 31.306 131.34 31.301C131.338 31.297 131.335 31.294 131.333 31.29C131.331 31.287 131.329 31.284 131.327 31.281C131.321 31.271 131.315 31.262 131.309 31.253C131.307 31.25 131.306 31.247 131.303 31.243C131.3 31.239 131.297 31.235 131.295 31.231C131.292 31.227 131.289 31.223 131.287 31.219C131.285 31.215 131.283 31.212 131.28 31.207C131.278 31.203 131.276 31.199 131.273 31.195C131.271 31.193 131.269 31.19 131.267 31.187C131.261 31.177 131.255 31.168 131.248 31.159C131.248 31.156 131.245 31.155 131.244 31.153C131.239 31.143 131.233 31.132 131.226 31.124C131.223 31.121 131.221 31.118 131.219 31.114C131.217 31.11 131.215 31.107 131.212 31.103C131.21 31.1 131.209 31.097 131.207 31.094C131.201 31.084 131.193 31.076 131.188 31.066C131.187 31.063 131.185 31.062 131.184 31.06C131.179 31.05 131.171 31.04 131.165 31.031C131.163 31.027 131.161 31.025 131.159 31.021C131.157 31.017 131.153 31.013 131.152 31.009C131.15 31.007 131.148 31.005 131.146 31.001C131.139 30.992 131.134 30.982 131.127 30.973C131.127 30.97 131.125 30.97 131.123 30.967C131.116 30.958 131.111 30.947 131.105 30.938C131.104 30.936 131.102 30.934 131.101 30.932C131.096 30.923 131.09 30.915 131.085 30.907C131.08 30.898 131.072 30.89 131.067 30.881C131.066 30.878 131.065 30.878 131.063 30.875C131.056 30.866 131.05 30.855 131.044 30.846C131.043 30.844 131.042 30.842 131.041 30.84C131.036 30.831 131.029 30.823 131.025 30.816C131.021 30.81 131.019 30.806 131.016 30.801C131.011 30.794 131.006 30.787 131.001 30.78C130.996 30.771 130.989 30.762 130.984 30.754C130.983 30.752 130.981 30.75 130.979 30.748C130.975 30.739 130.97 30.731 130.965 30.723C130.962 30.718 130.958 30.714 130.955 30.709C130.951 30.702 130.945 30.695 130.941 30.688C130.935 30.678 130.929 30.669 130.923 30.661C130.923 30.659 130.921 30.658 130.919 30.655C130.913 30.647 130.908 30.639 130.903 30.631C130.9 30.626 130.899 30.621 130.895 30.615C130.891 30.609 130.885 30.602 130.881 30.594C130.879 30.59 130.876 30.585 130.873 30.58C130.869 30.573 130.863 30.566 130.858 30.559C130.853 30.551 130.847 30.544 130.843 30.536C130.841 30.531 130.838 30.527 130.835 30.522C130.83 30.514 130.826 30.508 130.821 30.501C130.817 30.496 130.816 30.491 130.813 30.486C130.808 30.478 130.802 30.472 130.798 30.465C130.796 30.461 130.791 30.456 130.789 30.452C130.787 30.447 130.783 30.444 130.781 30.44C130.779 30.436 130.777 30.432 130.775 30.427C130.769 30.421 130.765 30.414 130.76 30.406C130.757 30.402 130.755 30.398 130.751 30.392C130.746 30.386 130.741 30.379 130.737 30.371C130.735 30.366 130.731 30.361 130.729 30.356C130.727 30.352 130.723 30.349 130.721 30.345C130.719 30.341 130.716 30.338 130.713 30.333C130.708 30.327 130.703 30.319 130.7 30.312C130.697 30.307 130.694 30.302 130.691 30.297C130.687 30.29 130.682 30.283 130.677 30.276C130.674 30.272 130.671 30.267 130.669 30.263C130.667 30.258 130.663 30.256 130.66 30.251C130.658 30.247 130.656 30.243 130.653 30.238C130.651 30.235 130.649 30.231 130.646 30.226C130.644 30.222 130.639 30.219 130.637 30.215C130.635 30.211 130.633 30.207 130.631 30.203C130.627 30.196 130.62 30.19 130.616 30.182C130.613 30.178 130.611 30.172 130.608 30.167C130.605 30.163 130.603 30.161 130.6 30.156C130.598 30.152 130.595 30.148 130.593 30.144C129.952 28.954 128.661 28.247 126.984 28.247C123.63 28.247 119.846 31.146 118.55 34.709C117.9 36.495 118.034 38.094 118.677 39.285C118.679 39.289 118.682 39.292 118.685 39.297C118.687 39.301 118.689 39.304 118.691 39.309C118.693 39.311 118.695 39.314 118.697 39.317C118.703 39.326 118.709 39.336 118.716 39.345C118.717 39.349 118.72 39.35 118.723 39.355C118.725 39.359 118.727 39.363 118.729 39.367C118.732 39.371 118.735 39.375 118.737 39.379C118.739 39.383 118.743 39.386 118.745 39.391C118.747 39.395 118.749 39.398 118.752 39.402C118.754 39.405 118.755 39.408 118.757 39.411C118.763 39.42 118.77 39.43 118.777 39.439C118.777 39.442 118.779 39.443 118.78 39.445C118.786 39.455 118.793 39.465 118.799 39.474C118.801 39.478 118.803 39.48 118.805 39.484C118.807 39.488 118.811 39.491 118.812 39.496C118.815 39.498 118.816 39.501 118.818 39.504C118.823 39.513 118.832 39.522 118.837 39.532C118.838 39.535 118.839 39.535 118.841 39.538C118.848 39.547 118.855 39.557 118.86 39.567C118.861 39.57 118.865 39.573 118.866 39.577C118.868 39.581 118.871 39.584 118.873 39.588C118.875 39.591 118.877 39.594 118.878 39.597C118.883 39.607 118.892 39.615 118.897 39.625C118.898 39.628 118.899 39.629 118.901 39.631C118.908 39.64 118.914 39.651 118.92 39.66C118.921 39.662 118.922 39.664 118.923 39.666C118.928 39.674 118.935 39.683 118.939 39.69C118.945 39.7 118.953 39.708 118.958 39.717C118.959 39.72 118.96 39.721 118.961 39.723C118.967 39.733 118.974 39.743 118.981 39.752C118.981 39.754 118.983 39.756 118.985 39.758C118.991 39.765 118.995 39.775 119 39.783C119.003 39.788 119.006 39.792 119.009 39.797C119.013 39.804 119.019 39.811 119.023 39.818C119.029 39.828 119.035 39.837 119.041 39.845C119.041 39.847 119.043 39.848 119.045 39.851C119.05 39.858 119.056 39.867 119.061 39.875C119.064 39.88 119.066 39.885 119.069 39.89C119.074 39.897 119.079 39.904 119.083 39.911C119.088 39.92 119.095 39.929 119.101 39.937C119.101 39.939 119.104 39.941 119.105 39.943C119.11 39.952 119.117 39.959 119.121 39.968C119.123 39.973 119.127 39.977 119.13 39.982C119.135 39.989 119.139 39.996 119.144 40.003C119.147 40.008 119.149 40.013 119.152 40.018C119.157 40.025 119.162 40.032 119.166 40.039C119.17 40.047 119.177 40.055 119.181 40.061C119.185 40.067 119.187 40.071 119.19 40.076C119.195 40.083 119.199 40.09 119.204 40.097C119.207 40.101 119.21 40.105 119.213 40.11C119.218 40.117 119.223 40.124 119.227 40.131C119.229 40.136 119.233 40.141 119.235 40.146C119.237 40.15 119.241 40.153 119.243 40.157C119.245 40.161 119.249 40.165 119.251 40.169C119.255 40.176 119.261 40.182 119.265 40.19C119.267 40.195 119.27 40.2 119.273 40.205C119.277 40.212 119.282 40.219 119.287 40.226C119.29 40.23 119.294 40.234 119.296 40.239C119.299 40.243 119.301 40.246 119.304 40.251C119.306 40.255 119.308 40.259 119.311 40.264C119.315 40.27 119.321 40.277 119.325 40.285C119.327 40.289 119.331 40.294 119.333 40.298C119.338 40.306 119.344 40.312 119.348 40.319C119.351 40.323 119.354 40.328 119.357 40.334C119.359 40.338 119.361 40.34 119.364 40.345C119.366 40.349 119.368 40.353 119.371 40.357C119.374 40.361 119.377 40.365 119.379 40.369C119.381 40.374 119.385 40.377 119.387 40.381C119.389 40.385 119.391 40.389 119.393 40.393C119.398 40.4 119.403 40.407 119.408 40.414C119.411 40.418 119.415 40.422 119.417 40.427C119.42 40.431 119.423 40.435 119.425 40.439C119.427 40.443 119.429 40.447 119.431 40.452C120.021 41.667 121.365 42.348 123.042 42.348C126.395 42.348 130.178 39.449 131.475 35.886C132.125 34.103 131.991 32.504 131.348 31.313Z" fill="#FF6E59"/>
<path d="M129.21 34.717C128.216 37.446 125.37 39.658 122.85 39.658C120.33 39.658 119.095 37.445 120.087 34.717C121.081 31.988 123.927 29.776 126.446 29.776C128.965 29.776 130.204 31.988 129.21 34.717Z" fill="white"/>
<path d="M126.681 16.383C126.68 16.38 126.676 16.377 126.674 16.373C126.672 16.37 126.671 16.367 126.668 16.364C126.666 16.362 126.665 16.359 126.664 16.357C126.66 16.348 126.654 16.341 126.648 16.333C126.646 16.331 126.645 16.328 126.643 16.325C126.64 16.322 126.639 16.319 126.636 16.315C126.634 16.312 126.632 16.309 126.63 16.305C126.628 16.301 126.626 16.299 126.624 16.295C126.622 16.292 126.619 16.288 126.618 16.285C126.616 16.284 126.614 16.281 126.613 16.279C126.609 16.27 126.602 16.263 126.597 16.255C126.597 16.253 126.595 16.252 126.594 16.25C126.589 16.242 126.584 16.233 126.578 16.225C126.576 16.223 126.575 16.221 126.572 16.217C126.57 16.214 126.569 16.21 126.566 16.208C126.565 16.206 126.564 16.203 126.562 16.201C126.556 16.193 126.552 16.185 126.546 16.177C126.546 16.175 126.544 16.174 126.543 16.172C126.538 16.164 126.531 16.156 126.527 16.147C126.526 16.144 126.523 16.142 126.522 16.139C126.52 16.136 126.517 16.132 126.516 16.129C126.514 16.128 126.513 16.125 126.511 16.123C126.505 16.115 126.501 16.107 126.495 16.099C126.495 16.097 126.493 16.096 126.492 16.094C126.487 16.086 126.482 16.077 126.476 16.069C126.476 16.068 126.474 16.066 126.473 16.064C126.469 16.057 126.464 16.05 126.46 16.043C126.455 16.035 126.45 16.028 126.444 16.021C126.444 16.019 126.442 16.018 126.441 16.016C126.436 16.008 126.43 15.999 126.425 15.991C126.425 15.99 126.424 15.989 126.422 15.986C126.417 15.979 126.413 15.972 126.409 15.965C126.406 15.96 126.404 15.956 126.402 15.953C126.398 15.947 126.393 15.941 126.389 15.935C126.384 15.928 126.379 15.92 126.374 15.913C126.374 15.912 126.372 15.91 126.371 15.908C126.367 15.901 126.362 15.894 126.358 15.887C126.356 15.883 126.352 15.88 126.35 15.876C126.346 15.87 126.342 15.864 126.339 15.858C126.334 15.85 126.329 15.842 126.324 15.835C126.323 15.834 126.322 15.833 126.32 15.83C126.315 15.823 126.312 15.816 126.307 15.809C126.304 15.804 126.303 15.8 126.3 15.796C126.297 15.791 126.29 15.786 126.287 15.779C126.286 15.776 126.283 15.772 126.281 15.767C126.278 15.761 126.271 15.756 126.268 15.75C126.264 15.744 126.26 15.737 126.256 15.73C126.254 15.726 126.251 15.722 126.249 15.719C126.245 15.713 126.241 15.707 126.237 15.701C126.234 15.697 126.232 15.693 126.23 15.689C126.227 15.683 126.221 15.678 126.218 15.671C126.216 15.668 126.212 15.664 126.211 15.66C126.208 15.656 126.206 15.654 126.204 15.65C126.202 15.646 126.2 15.643 126.198 15.639C126.195 15.634 126.19 15.628 126.186 15.622C126.184 15.619 126.181 15.615 126.179 15.61C126.176 15.604 126.169 15.599 126.166 15.593C126.164 15.589 126.161 15.585 126.159 15.58C126.158 15.577 126.155 15.575 126.153 15.571C126.152 15.568 126.149 15.564 126.147 15.561C126.143 15.555 126.138 15.549 126.136 15.543C126.132 15.539 126.13 15.535 126.128 15.531C126.124 15.525 126.12 15.519 126.116 15.513C126.114 15.51 126.111 15.506 126.109 15.502C126.107 15.498 126.104 15.496 126.102 15.492C126.1 15.488 126.098 15.485 126.096 15.481C126.094 15.479 126.092 15.475 126.09 15.471C126.088 15.468 126.084 15.465 126.083 15.462C126.08 15.459 126.079 15.456 126.077 15.452C126.073 15.446 126.068 15.44 126.064 15.435C126.063 15.431 126.06 15.427 126.058 15.422C126.056 15.419 126.053 15.417 126.051 15.413C126.05 15.41 126.047 15.406 126.045 15.403C125.444 14.436 124.418 13.805 123.005 13.805C120.18 13.805 116.993 16.247 115.901 19.247C115.353 20.751 115.347 22.171 116.007 23.101C116.01 23.105 116.012 23.107 116.014 23.111C116.016 23.114 116.017 23.117 116.02 23.121C116.022 23.123 116.023 23.125 116.024 23.128C116.028 23.136 116.035 23.144 116.04 23.152C116.042 23.155 116.044 23.157 116.046 23.16C116.048 23.163 116.05 23.166 116.052 23.17C116.054 23.174 116.056 23.176 116.058 23.18C116.06 23.184 116.063 23.186 116.065 23.19C116.067 23.193 116.069 23.196 116.071 23.199C116.072 23.201 116.074 23.204 116.076 23.206C116.081 23.213 116.086 23.222 116.092 23.23C116.092 23.232 116.093 23.233 116.094 23.235C116.1 23.243 116.106 23.252 116.11 23.259C116.112 23.262 116.114 23.264 116.116 23.267C116.118 23.27 116.12 23.273 116.122 23.277C116.124 23.278 116.125 23.281 116.126 23.283C116.13 23.291 116.136 23.299 116.142 23.307C116.144 23.309 116.145 23.31 116.146 23.312C116.151 23.32 116.157 23.328 116.162 23.336C116.163 23.339 116.166 23.341 116.167 23.344C116.168 23.347 116.171 23.35 116.173 23.353C116.174 23.355 116.176 23.358 116.177 23.36C116.181 23.369 116.189 23.375 116.193 23.384C116.194 23.386 116.195 23.387 116.196 23.389C116.202 23.397 116.207 23.406 116.212 23.414C116.213 23.415 116.214 23.417 116.215 23.419C116.219 23.426 116.225 23.433 116.229 23.44C116.234 23.448 116.24 23.456 116.244 23.463C116.245 23.465 116.246 23.466 116.247 23.468C116.252 23.476 116.258 23.485 116.264 23.493C116.264 23.494 116.266 23.496 116.267 23.498C116.271 23.505 116.276 23.512 116.28 23.519C116.282 23.523 116.285 23.526 116.288 23.531C116.292 23.536 116.297 23.542 116.3 23.548C116.305 23.556 116.309 23.564 116.314 23.571C116.315 23.572 116.316 23.574 116.317 23.576C116.321 23.582 116.327 23.589 116.331 23.597C116.334 23.601 116.336 23.606 116.338 23.609C116.342 23.615 116.346 23.621 116.35 23.627C116.354 23.634 116.36 23.642 116.365 23.649C116.365 23.65 116.368 23.652 116.369 23.654C116.373 23.661 116.377 23.668 116.381 23.675C116.383 23.679 116.387 23.682 116.39 23.686C116.394 23.691 116.398 23.697 116.401 23.703C116.403 23.707 116.406 23.711 116.408 23.716C116.411 23.722 116.417 23.727 116.42 23.733C116.424 23.74 116.43 23.746 116.433 23.752C116.436 23.757 116.438 23.76 116.44 23.764C116.444 23.77 116.448 23.776 116.452 23.782C116.454 23.785 116.457 23.789 116.459 23.793C116.463 23.799 116.468 23.805 116.471 23.811C116.473 23.815 116.476 23.819 116.478 23.823C116.48 23.826 116.483 23.829 116.484 23.832C116.487 23.835 116.489 23.838 116.491 23.842C116.494 23.848 116.499 23.854 116.503 23.86C116.505 23.864 116.508 23.868 116.509 23.872C116.514 23.878 116.519 23.883 116.522 23.89C116.524 23.893 116.526 23.897 116.529 23.901C116.531 23.904 116.534 23.907 116.536 23.911C116.538 23.915 116.54 23.917 116.541 23.922C116.546 23.927 116.55 23.933 116.554 23.939C116.556 23.942 116.559 23.946 116.561 23.95C116.565 23.956 116.569 23.962 116.573 23.968C116.574 23.972 116.577 23.976 116.58 23.98C116.582 23.983 116.584 23.986 116.586 23.989C116.588 23.992 116.59 23.995 116.593 23.999C116.595 24.002 116.598 24.006 116.599 24.009C116.601 24.013 116.604 24.016 116.605 24.019C116.608 24.022 116.61 24.025 116.611 24.029C116.616 24.035 116.62 24.04 116.624 24.047C116.626 24.05 116.628 24.054 116.631 24.058C116.632 24.062 116.636 24.064 116.637 24.068C116.64 24.071 116.641 24.075 116.643 24.079C117.07 25.134 118.271 25.676 119.684 25.676C122.508 25.676 125.695 23.234 126.787 20.234C127.336 18.733 127.127 17.433 126.681 16.383Z" fill="#FF6E59"/>
<path d="M124.881 19.25C124.043 21.548 121.646 23.412 119.524 23.412C117.401 23.412 116.361 21.548 117.197 19.25C118.034 16.951 120.431 15.088 122.553 15.088C124.675 15.088 125.717 16.952 124.881 19.25Z" fill="white"/>
<path d="M126.431 2.785C126.43 2.782 126.427 2.78001 126.426 2.77701C126.424 2.77401 126.423 2.77201 126.421 2.76901C126.419 2.76701 126.418 2.765 126.417 2.763C126.413 2.756 126.409 2.75001 126.404 2.74301C126.403 2.74101 126.402 2.73901 126.4 2.73601C126.398 2.73401 126.397 2.73101 126.395 2.72801C126.393 2.72501 126.391 2.723 126.39 2.72C126.388 2.717 126.386 2.71501 126.385 2.71201C126.383 2.70901 126.381 2.706 126.38 2.703C126.378 2.702 126.377 2.70001 126.376 2.69801C126.372 2.69101 126.367 2.68501 126.363 2.67801C126.363 2.67601 126.361 2.67501 126.36 2.67401C126.356 2.66701 126.352 2.66 126.348 2.653C126.346 2.651 126.345 2.649 126.343 2.647C126.341 2.644 126.34 2.64101 126.338 2.63901C126.337 2.63701 126.336 2.63501 126.335 2.63301C126.33 2.62601 126.326 2.62001 126.322 2.61301C126.321 2.61101 126.32 2.61001 126.319 2.60901C126.315 2.60201 126.31 2.59501 126.306 2.58801C126.305 2.58601 126.303 2.584 126.302 2.582C126.3 2.579 126.298 2.57601 126.297 2.57301C126.296 2.57201 126.295 2.57001 126.293 2.56801C126.289 2.56101 126.285 2.555 126.28 2.548C126.28 2.546 126.278 2.54501 126.277 2.54401C126.274 2.53701 126.269 2.53001 126.265 2.52301C126.264 2.52201 126.263 2.52101 126.262 2.51901C126.259 2.51301 126.254 2.50801 126.251 2.50101C126.247 2.49501 126.243 2.489 126.239 2.483C126.238 2.481 126.237 2.48 126.236 2.479C126.233 2.472 126.227 2.46501 126.223 2.45801C126.223 2.45701 126.222 2.45601 126.221 2.45401C126.217 2.44801 126.213 2.44301 126.21 2.43701C126.208 2.43301 126.206 2.43 126.204 2.427C126.2 2.422 126.197 2.417 126.194 2.412C126.19 2.406 126.186 2.39901 126.182 2.39301C126.182 2.39201 126.18 2.39101 126.179 2.38901C126.176 2.38301 126.172 2.378 126.169 2.371C126.167 2.368 126.164 2.365 126.162 2.362C126.159 2.357 126.156 2.352 126.153 2.347C126.149 2.341 126.145 2.334 126.141 2.328C126.14 2.327 126.139 2.32601 126.138 2.32401C126.134 2.31801 126.131 2.31301 126.127 2.30701C126.125 2.30301 126.123 2.30001 126.121 2.29601C126.118 2.29201 126.114 2.28701 126.111 2.28201C126.11 2.27901 126.108 2.276 126.106 2.272C126.103 2.267 126.099 2.26301 126.096 2.25801C126.093 2.25201 126.089 2.24701 126.086 2.24101C126.084 2.23801 126.082 2.23501 126.08 2.23201C126.076 2.22701 126.073 2.22201 126.07 2.21701C126.068 2.21401 126.066 2.211 126.065 2.207C126.061 2.202 126.057 2.198 126.055 2.192C126.053 2.189 126.05 2.18601 126.049 2.18301C126.047 2.18001 126.045 2.178 126.043 2.175C126.042 2.172 126.04 2.169 126.039 2.166C126.035 2.162 126.032 2.15701 126.029 2.15201C126.027 2.14901 126.025 2.14601 126.023 2.14201C126.02 2.13701 126.016 2.13301 126.013 2.12801C126.011 2.12401 126.009 2.121 126.007 2.117C126.006 2.115 126.004 2.113 126.002 2.11C126.001 2.107 125.999 2.104 125.997 2.10201C125.994 2.09701 125.99 2.09201 125.988 2.08701C125.985 2.08401 125.983 2.08001 125.982 2.07701C125.978 2.07201 125.975 2.06701 125.972 2.06201C125.97 2.05901 125.968 2.05601 125.966 2.05301C125.965 2.05001 125.962 2.04801 125.96 2.04501C125.959 2.04201 125.957 2.03901 125.956 2.03601C125.954 2.03401 125.952 2.031 125.951 2.028C125.949 2.025 125.946 2.023 125.945 2.02C125.943 2.017 125.942 2.01501 125.94 2.01201C125.937 2.00701 125.933 2.002 125.93 1.998C125.929 1.994 125.927 1.991 125.925 1.987C125.923 1.985 125.921 1.98301 125.919 1.98001C125.918 1.97701 125.916 1.974 125.914 1.972C125.452 1.17 124.592 0.673004 123.443 0.673004C121.147 0.673004 118.557 2.65701 117.67 5.09601C117.225 6.31901 117.292 7.427 117.757 8.229C117.759 8.232 117.761 8.234 117.763 8.237C117.764 8.24 117.766 8.24201 117.767 8.24501C117.769 8.24701 117.77 8.24901 117.771 8.25101C117.775 8.25701 117.78 8.26401 117.784 8.27101C117.785 8.27401 117.787 8.275 117.789 8.278C117.79 8.28 117.792 8.28301 117.793 8.28601C117.795 8.28901 117.797 8.29101 117.798 8.29401C117.8 8.29701 117.803 8.299 117.804 8.302C117.806 8.305 117.807 8.30701 117.809 8.31001C117.81 8.31201 117.811 8.31401 117.813 8.31601C117.817 8.32201 117.821 8.32901 117.826 8.33601C117.826 8.33801 117.827 8.33901 117.828 8.34001C117.832 8.34701 117.837 8.354 117.841 8.36C117.842 8.363 117.844 8.365 117.845 8.367C117.847 8.37 117.849 8.37201 117.85 8.37601C117.852 8.37701 117.853 8.37901 117.854 8.38101C117.858 8.38701 117.862 8.394 117.867 8.401C117.868 8.403 117.869 8.40401 117.87 8.40501C117.873 8.41201 117.878 8.419 117.883 8.425C117.884 8.428 117.886 8.43001 117.887 8.43201C117.888 8.43501 117.89 8.437 117.892 8.44C117.893 8.442 117.894 8.444 117.895 8.446C117.899 8.453 117.904 8.459 117.908 8.466C117.909 8.468 117.91 8.469 117.911 8.47C117.915 8.477 117.92 8.48401 117.924 8.49101C117.924 8.49201 117.925 8.49301 117.926 8.49501C117.93 8.50001 117.934 8.50601 117.937 8.51201C117.941 8.51901 117.946 8.52501 117.95 8.53101C117.95 8.53301 117.951 8.534 117.952 8.535C117.956 8.542 117.961 8.549 117.966 8.556C117.966 8.557 117.967 8.55801 117.968 8.56001C117.972 8.56501 117.975 8.57101 117.979 8.57701C117.981 8.58101 117.983 8.58401 117.985 8.58701C117.988 8.59201 117.992 8.59701 117.995 8.60101C117.998 8.60801 118.002 8.614 118.007 8.621C118.007 8.622 118.008 8.623 118.009 8.625C118.012 8.63 118.016 8.63601 118.02 8.64201C118.022 8.64601 118.024 8.64901 118.026 8.65201C118.03 8.65701 118.033 8.66201 118.036 8.66701C118.039 8.67301 118.044 8.679 118.048 8.686C118.048 8.68701 118.05 8.688 118.051 8.69C118.054 8.696 118.058 8.70101 118.061 8.70801C118.063 8.71101 118.065 8.71401 118.068 8.71701C118.071 8.72201 118.074 8.727 118.077 8.731C118.079 8.735 118.081 8.738 118.083 8.742C118.086 8.747 118.09 8.75101 118.092 8.75601C118.096 8.76201 118.1 8.767 118.103 8.772C118.105 8.776 118.107 8.77901 118.109 8.78201C118.112 8.78701 118.115 8.79201 118.118 8.79701C118.12 8.80001 118.122 8.803 118.124 8.806C118.127 8.812 118.131 8.816 118.134 8.821C118.136 8.825 118.138 8.82801 118.14 8.83101C118.141 8.83401 118.144 8.836 118.145 8.839C118.147 8.842 118.149 8.844 118.15 8.847C118.153 8.852 118.157 8.857 118.16 8.862C118.162 8.865 118.164 8.86801 118.165 8.87201C118.169 8.87701 118.173 8.88101 118.175 8.88701C118.177 8.89001 118.179 8.89301 118.181 8.89601C118.183 8.89901 118.185 8.90101 118.187 8.90401C118.188 8.90701 118.19 8.90901 118.191 8.91301C118.195 8.91701 118.198 8.922 118.201 8.927C118.203 8.93 118.205 8.933 118.207 8.936C118.21 8.942 118.214 8.946 118.217 8.951C118.218 8.955 118.22 8.95801 118.223 8.96101C118.224 8.96401 118.226 8.96601 118.228 8.96901C118.229 8.97201 118.231 8.974 118.233 8.97701C118.235 8.98001 118.237 8.983 118.238 8.985C118.24 8.989 118.242 8.991 118.243 8.994C118.245 8.996 118.247 8.999 118.248 9.002C118.252 9.007 118.255 9.01101 118.258 9.01701C118.26 9.02001 118.262 9.023 118.264 9.026C118.265 9.029 118.268 9.03101 118.269 9.03401C118.271 9.03701 118.273 9.04 118.274 9.043C118.737 9.844 119.597 10.341 120.746 10.341C123.041 10.341 125.631 8.357 126.518 5.918C126.963 4.695 126.897 3.586 126.431 2.785Z" fill="#FF6E59"/>
<path d="M124.968 5.11501C124.287 6.98301 122.339 8.498 120.614 8.498C118.889 8.498 118.044 6.98301 118.723 5.11501C119.402 3.24701 121.352 1.73201 123.077 1.73201C124.802 1.73201 125.648 3.24601 124.968 5.11501Z" fill="white"/>
</svg>
